<svg id="emoji_1" xmlns="http://www.w3.org/2000/svg" viewBox="0 0 129.69 74.36"><defs><style>.emoji-1-1{fill:#fff;}.emoji-1-2{fill:#fecb4e;}.emoji-1-3{fill:#674711;}.emoji-1-4{fill:#f39015;}</style></defs><g id="Vrstva_1-2"><g><path class="emoji-1-1" d="m28.34,37.18c0,1.04.06,2.07.17,3.09,2.14,19.09,23.94,34.09,50.51,34.09,27.99,0,50.68-16.65,50.68-37.18,0-20.53-22.69-37.18-50.68-37.18C51.03,0,28.34,16.65,28.34,37.18Z"/><path class="emoji-1-1" d="m31.06,36.09c-.3,1.77-28.14,23.86-31.06,37.01,0,0,17.96-16.86,40.81-16.95s-9.75-20.06-9.75-20.06Z"/></g><path class="emoji-1-4" d="m60.71,41.01c.1-.27.2-.55.3-.82,1.44-.78,2.55-.41,3.58.83,1.11,1.34,2.4,2.52,3.54,3.83,1.07,1.23,2.22,2.44,2.66,4.08.44,1.65,1.54,2.69,3.03,3.4.27.13.55.26.8.43.81.55.85.93.23,1.7-.35.44-.66.91-.99,1.37-.86.95-1.73,1.89-2.58,2.85-.15.17-.26.39-.42.55-.87.93-.88.94-1.78.03-3.22-3.25-7.27-5.06-11.49-6.57-.86-.31-1.75-.59-2.55-1.03-.64-.35-1.15-.93-1.71-1.4,0-.54,0-1.08,0-1.61.34-.68.68-1.37,1.01-2.05-.03.58-.06,1.17-.09,1.75.1.02.2.04.31.06.62-1.9,1.25-3.8,1.87-5.7-.1-.04-.2-.07-.31-.11-.18.39-.33.79-.53,1.17-.25.47-.55.93-.82,1.39.59-1.41,1.06-2.88,1.83-4.18.21-.35,1.36-.27,2.04-.17.61.09,1.17.48,1.75.74.33.56.6,1.17.99,1.68.41.52,1,.9,1.4,1.43.15.2.1.86-.06.95-1.33.72-2.71,1.36-4.07,2.03-.07-.09-.15-.17-.22-.26.65-.65,1.3-1.3,2.1-2.09-.6-.09-1.26-.4-1.72-.21-.62.26-1.07,2.9-.83,3.6,1.48-.74,2.96-1.5,4.46-2.21,1.45-.69,1.58-1.38.37-2.46-.93-.84-1.79-1.71-2.09-2.98Z"/><path class="emoji-1-2" d="m73.85,55.84c.33-.46.64-.93.99-1.37.62-.77.58-1.15-.23-1.7-.25-.17-.52-.3-.8-.43-1.49-.71-2.59-1.75-3.03-3.4-.44-1.64-1.58-2.85-2.66-4.08-1.14-1.31-2.44-2.49-3.54-3.83-1.03-1.24-2.14-1.61-3.58-.83-.14-1.42-.44-2.84-.41-4.26.08-3.53.94-6.85,2.86-9.87,1.23-1.95,2.49-3.84,4.2-5.42,2.54-2.34,5.56-3.77,8.83-4.61,5.41-1.38,10.7-.86,15.65,1.78,5.96,3.18,9.58,8.1,10.8,14.81.69,3.81.29,7.47-.98,11.06-1.37,3.88-3.83,6.97-7.12,9.41-.62-.32-1.24-.65-1.86-.95-.99-.47-1.65-1.25-2.03-2.25-.57-1.5-1.21-2.93-2.36-4.13-1.67-1.73-3.21-3.58-4.88-5.3-.95-.98-2.31-.69-3,.52-.12.32-.25.65-.37.97-.57-.33-1.12-.8-1.73-.94-.65-.15-1.77-.24-1.98.09-.74,1.13-1.17,2.47-1.71,3.72,0,0,0-.02,0-.02-.13.24-.25.48-.38.72l-.18,1.06c-.36.95-.85,1.88-1.04,2.86-.22,1.12.36,1.88,1.48,2.33,2.76,1.13,5.55,2.19,8.27,3.4,1,.44,1.84,1.24,2.75,1.87-2.81.66-5.64.7-8.44.02-1.2-.29-2.34-.83-3.51-1.26Zm-3.94-27.72c-.11.76-.24,1.27-.25,1.79,0,.52.07,1.06.2,1.57.38,1.45,1.46,2.43,2.65,2.46.64.02,2.02-.97,2.21-1.8.24-1.03.28-2.1.42-3.23.78.28,1.7.52,2.55.92.81.38,1.35.09,1.73-.54.42-.7-.02-1.25-.62-1.56-3.03-1.6-6.2-2.33-9.64-1.54-.87.2-1.29.64-1.09,1.42.2.77.8,1.09,1.84.5Zm17.02,1.39c.35,1.01.6,1.93.97,2.79.41.93,1.61,1.58,2.41,1.42.8-.16,2.07-1.5,2.1-2.32.04-1.16.01-2.32.01-3.58.79.09,1.64.09,2.42.31.71.2,1.23.14,1.39-.57.16-.71.05-1.3-.94-1.53-1.58-.37-3.12-.36-4.72-.18-1.85.2-3.53.84-5.11,1.74-.34.2-.62.89-.57,1.31.08.67.67.94,1.37.81.25-.05.5-.14.67-.19Zm3.68,10.23c-.26-.24-.64-.68-1.11-.98-2.7-1.7-5.68-1.79-8.72-1.38-.48.07-1.03.19-1.37.49-.26.23-.41.84-.3,1.17.24.72.79.98,1.65.84,1.38-.22,2.79-.29,4.19-.31,1.5-.02,2.81.62,4.07,1.4.7.43,1.62-.14,1.59-1.24Z"/><path class="emoji-1-4" d="m74.91,44.84c.55-1.26.98-2.59,1.71-3.72.22-.33,1.34-.24,1.98-.09.62.14,1.16.62,1.73.94.36.54.68,1.12,1.09,1.62.38.46.91.81,1.26,1.29.15.2.1.83-.04.91-1.37.73-2.78,1.39-4.18,2.07-.07-.08-.15-.17-.22-.25.68-.67,1.35-1.33,2.17-2.14-.61-.09-1.59-.42-1.71-.22-.67,1.07-1.03,2.31-1.16,3.8.49-.22.78-.33,1.06-.47,1.19-.61,2.35-1.28,3.56-1.82,1.6-.71,1.76-1.55.43-2.64-.36-.3-.8-.57-1.02-.96-.37-.67-.59-1.43-.88-2.15.69-1.21,2.05-1.5,3-.52,1.67,1.72,3.22,3.57,4.88,5.3,1.15,1.19,1.79,2.62,2.36,4.13.38,1,1.04,1.77,2.03,2.25.63.3,1.24.63,1.86.95.54.91-.12,1.49-.6,2.08-1.25,1.55-2.53,3.07-3.8,4.61-.42.51-.81.46-1.26.02-.77-.74-1.56-1.45-2.38-2.15-.29-.25-.67-.4-1.01-.6-.91-.63-1.75-1.43-2.75-1.87-2.72-1.21-5.51-2.27-8.27-3.4-1.11-.46-1.69-1.22-1.48-2.33.19-.99.68-1.91,1.04-2.86-.08.67-.16,1.34-.24,2.01.08.02.16.04.24.06.67-1.99,1.34-3.98,2.01-5.97-.07-.02-.14-.05-.22-.07-.41.74-.82,1.48-1.23,2.21Z"/><path class="emoji-1-3" d="m60.71,41.01c.3,1.27,1.17,2.14,2.09,2.98,1.2,1.09,1.07,1.77-.37,2.46-1.5.72-2.98,1.48-4.46,2.21-.24-.7.21-3.34.83-3.6.46-.19,1.12.12,1.72.21-.8.79-1.45,1.44-2.1,2.09.07.09.15.17.22.26,1.36-.66,2.74-1.3,4.07-2.03.16-.09.21-.74.06-.95-.4-.53-.99-.91-1.4-1.43-.4-.51-.67-1.11-.99-1.68.11-.18.22-.36.33-.54Z"/><path class="emoji-1-3" d="m54.76,45.16c.28-.46.57-.91.82-1.39.2-.38.36-.78.53-1.17.1.04.2.07.31.11-.62,1.9-1.25,3.8-1.87,5.7-.1-.02-.2-.04-.31-.06.03-.58.06-1.17.09-1.75.14-.48.28-.96.42-1.44Z"/><path class="emoji-1-3" d="m69.91,28.12c-1.03.59-1.64.27-1.84-.5-.2-.78.22-1.22,1.09-1.42,3.44-.8,6.61-.06,9.64,1.54.59.31,1.03.86.62,1.56-.37.63-.92.92-1.73.54-.85-.4-1.77-.65-2.55-.92-.14,1.12-.18,2.2-.42,3.23-.19.82-1.56,1.82-2.21,1.8-1.18-.03-2.27-1.01-2.65-2.46-.13-.51-.21-1.04-.2-1.57,0-.51.13-1.02.25-1.79Z"/><path class="emoji-1-3" d="m86.94,29.51c-.17.05-.41.14-.67.19-.69.14-1.29-.14-1.37-.81-.05-.42.23-1.12.57-1.31,1.58-.9,3.25-1.53,5.11-1.74,1.6-.18,3.14-.19,4.72.18.99.23,1.1.82.94,1.53-.16.72-.68.77-1.39.57-.78-.22-1.63-.22-2.42-.31,0,1.27.03,2.43-.01,3.58-.03.82-1.3,2.17-2.1,2.32-.8.16-2-.49-2.41-1.42-.38-.86-.63-1.78-.97-2.79Z"/><path class="emoji-1-3" d="m90.62,39.74c.03,1.1-.89,1.67-1.59,1.24-1.26-.78-2.57-1.42-4.07-1.4-1.4.02-2.81.09-4.19.31-.86.14-1.41-.12-1.65-.84-.11-.34.04-.95.3-1.17.34-.3.89-.42,1.37-.49,3.04-.41,6.01-.32,8.72,1.38.47.3.85.74,1.11.98Z"/><path class="emoji-1-3" d="m80.71,41c.29.72.51,1.48.88,2.15.21.39.65.66,1.02.96,1.33,1.09,1.17,1.92-.43,2.64-1.22.54-2.38,1.22-3.56,1.82-.28.14-.57.26-1.06.47.13-1.49.48-2.72,1.16-3.8.13-.2,1.1.13,1.71.22-.82.81-1.49,1.47-2.17,2.14.07.08.15.17.22.25,1.4-.68,2.81-1.34,4.18-2.07.15-.08.19-.71.04-.91-.35-.48-.88-.83-1.26-1.29-.41-.5-.73-1.08-1.09-1.62.12-.32.25-.65.37-.97Z"/><path class="emoji-1-3" d="m74.91,44.84c.41-.74.82-1.48,1.23-2.21.07.02.14.05.22.07-.67,1.99-1.34,3.98-2.01,5.97-.08-.02-.16-.04-.24-.06.08-.67.16-1.34.24-2.01.06-.35.12-.71.18-1.06.13-.24.25-.48.38-.72,0,0,0,.02,0,.02Z"/><path class="emoji-1-4" d="m74.91,44.82c-.13.24-.25.48-.38.72.13-.24.25-.48.38-.72Z"/></g></svg>