<svg id="emoji_4" xmlns="http://www.w3.org/2000/svg" viewBox="0 0 129.69 74.36"><defs><style>.emoji-4-1{fill:#674811;}.emoji-4-2{fill:#fff;}.emoji-4-3{fill:#6e4e12;}.emoji-4-4{fill:#694911;}.emoji-4-5{fill:#fecb4e;}.emoji-4-6{fill:#fecc51;}.emoji-4-7{fill:#664710;}</style></defs><g id="Vrstva_5"><g><path class="emoji-4-2" d="m28.34,37.18c0,1.04.06,2.07.17,3.09,2.14,19.09,23.94,34.09,50.51,34.09,27.99,0,50.68-16.65,50.68-37.18,0-20.53-22.69-37.18-50.68-37.18S28.34,16.65,28.34,37.18Z"/><path class="emoji-4-2" d="m31.06,36.09c-.3,1.77-28.14,23.86-31.06,37.01,0,0,17.96-16.86,40.81-16.95s-9.75-20.06-9.75-20.06Z"/></g><g><path class="emoji-4-5" d="m101.49,37.41v.83c-.23.13-.25.28-.17.54.07.26.04.56,0,.83-.59,3.97-2.16,7.5-4.72,10.58-2.33,2.8-5.22,4.86-8.61,6.21-1.61.64-3.28,1.08-5,1.24-1.32.12-2.66.24-3.97.15-2.6-.17-5.11-.8-7.49-1.91-4.17-1.95-7.37-4.93-9.64-8.92-1.16-2.05-1.9-4.25-2.33-6.56-.17-.92-.21-1.87-.25-2.8-.04-.95-.07-1.91,0-2.86.15-1.78.55-3.51,1.15-5.19.88-2.47,2.19-4.69,3.91-6.68,1.79-2.07,3.89-3.72,6.3-4.99,1.56-.82,3.22-1.42,4.95-1.77.85-.17,1.72-.27,2.58-.41.06-.01.12-.06.18-.09.14-.02.28-.05.41-.07,1.1,0,2.2,0,3.3,0,.42.08.84.19,1.26.24,2.04.24,3.98.83,5.83,1.7,4.27,1.99,7.53,5.08,9.8,9.21.9,1.63,1.56,3.36,1.99,5.18.19.79.3,1.6.43,2.41.01.09,0,.2-.05.27-.14.22-.09.38.14.49v1.24c0,.28,0,.55,0,.83v.33Zm-7.2-3.64v-.02c.08-.1.17-.2.25-.3-.09-.31-.16-.63-.28-.92-.14-.33-.43-.48-.79-.48-.69,0-1.38-.04-2.06.03-.23.03-.43.05-.65-.02l-.06.06c-.55.16-1.09.35-1.64.49-2.06.53-3.95,1.38-5.54,2.81-.31.28-.74.55-.77,1.06-.05.81.22,1.14,1.04,1.36.15.85.22,1.68.46,2.46.32,1.03.94,1.86,2.06,2.16.74.2,1.4.04,1.97-.47.81-.72,1.25-1.61,1.42-2.68.23-1.51-.06-2.86-1.05-4.09.49-.16.98-.32,1.46-.48h.15c.36-.08.72-.16,1.08-.24.05,0,.1,0,.16,0,.19-.02.37-.03.56-.05.35-.03.7-.05,1.04-.1.24-.03.48-.11.71-.16.06-.03.11-.05.17-.08l.24-.25s.03-.05.05-.08h.02Zm-23.26,5.37c.14,1.3.61,2.48,1.89,3.15.94.48,1.8.28,2.52-.37.83-.75,1.25-1.72,1.35-2.84.04-.38.06-.77.1-1.22.06-.02.21-.04.35-.1.83-.36,1.07-1.33.39-1.92-.81-.7-1.67-1.37-2.59-1.92-1.15-.69-2.44-1.12-3.76-1.41-.66-.15-1.32-.29-1.99-.37-.63-.07-1.26-.07-1.89-.09-.48-.01-.84.19-1.05.63-.18.38-.07,1.02.25,1.3.36.32.77.52,1.27.3.07-.03.17-.1.22-.07.87.45,1.88.29,2.78.61.38.14.77.22,1.24.35-1.04,1.2-1.25,2.57-1.09,3.98Zm.92,12.13c.16.06.44.02.57-.08,1.12-.91,2.42-1.37,3.79-1.72,1.59-.4,3.21-.44,4.83-.42.13,0,.26-.06.39-.06.45,0,.9.02,1.34.16.24.08.5.09.75.14,1.6.32,3.16.76,4.46,1.83.24.2.52.38.84.11.31-.25.29-.56.15-.89-1.1-2.53-3.06-3.98-5.73-4.51-.37-.07-.78,0-1.14-.1-.84-.24-1.69-.27-2.54-.22-2.53.15-4.91.73-6.71,2.7-.59.65-1.1,1.36-1.32,2.24-.03.1-.04.21-.07.32-.02.03-.04.06-.07.08.15.15.27.36.44.42Z"/><path class="emoji-4-2" d="m78.37,15.53s0,.05,0,.07c.14-.02.28-.05.41-.07-.14,0-.28,0-.41,0Z"/><path class="emoji-4-6" d="m101.49,35.93v.33-.33Z"/><path class="emoji-4-6" d="m101.49,37.08v.33-.33Z"/><path class="emoji-4-7" d="m90.26,34.75c.36-.08.72-.16,1.08-.25.05,0,.1,0,.16,0,.19-.02.37-.03.56-.05.35-.03.7-.05,1.04-.1.24-.03.48-.11.71-.16.06-.03.11-.05.17-.08.08-.08.16-.17.24-.25.02-.03.03-.05.05-.08h.02s0-.03,0-.03c.08-.1.16-.2.24-.3-.09-.31-.16-.63-.28-.92-.14-.33-.43-.48-.79-.48-.69,0-1.38-.04-2.06.03-.23.03-.43.05-.65-.02l-.06.06c-.55.16-1.09.35-1.64.49-2.06.53-3.95,1.38-5.54,2.81-.31.28-.74.55-.77,1.06-.05.81.22,1.14,1.04,1.36.15.85.22,1.68.46,2.46.32,1.03.94,1.86,2.06,2.16.74.2,1.4.04,1.97-.47.81-.72,1.25-1.61,1.42-2.68.23-1.51-.06-2.86-1.05-4.09.49-.16.98-.32,1.46-.48.05,0,.1,0,.15,0Z"/><path class="emoji-4-7" d="m72.12,35.17c-1.04,1.2-1.25,2.57-1.09,3.98.14,1.3.61,2.48,1.89,3.15.94.48,1.8.28,2.52-.37.83-.75,1.25-1.72,1.35-2.84.04-.38.06-.77.1-1.22.06-.02.21-.04.35-.1.83-.36,1.07-1.33.39-1.92-.81-.7-1.67-1.37-2.59-1.92-1.15-.69-2.44-1.12-3.76-1.41-.66-.15-1.32-.29-1.99-.37-.63-.07-1.26-.07-1.89-.09-.48-.01-.84.19-1.05.63-.18.38-.07,1.02.25,1.3.36.32.77.52,1.27.3.07-.03.17-.1.22-.07.87.45,1.88.29,2.78.61.38.14.77.22,1.24.35Z"/><path class="emoji-4-7" d="m71.51,50.85c.15.15.27.36.44.42.16.06.44.02.57-.08,1.12-.91,2.42-1.37,3.79-1.72,1.59-.4,3.21-.44,4.83-.42.13,0,.26-.06.39-.06.45,0,.9.02,1.34.16.24.08.5.09.75.14,1.6.32,3.16.76,4.46,1.83.24.2.52.38.84.11.31-.25.29-.56.15-.89-1.1-2.53-3.06-3.98-5.73-4.51-.37-.07-.78,0-1.14-.1-.84-.24-1.69-.27-2.54-.22-2.53.15-4.91.73-6.71,2.7-.59.65-1.1,1.36-1.32,2.24-.03.1-.04.21-.07.32-.02.03-.04.06-.07.08Z"/><path class="emoji-4-3" d="m94.54,33.45c-.08.1-.16.2-.24.3.08-.1.16-.2.24-.3Z"/><path class="emoji-4-3" d="m93.98,34.11c-.06.03-.11.05-.17.08.06-.03.11-.05.17-.08Z"/><path class="emoji-4-4" d="m91.5,34.5c-.05,0-.1,0-.16,0,.05,0,.1,0,.16,0Z"/><path class="emoji-4-4" d="m90.26,34.75c-.05,0-.1,0-.15,0,.05,0,.1,0,.15,0Z"/><path class="emoji-4-1" d="m90.69,32.13l.06-.06-.06.06Z"/><path class="emoji-4-3" d="m94.27,33.78s-.03.05-.05.08c.02-.03.03-.05.05-.08Z"/></g></g></svg>