<svg id="emoji_2" xmlns="http://www.w3.org/2000/svg" viewBox="0 0 101.36 110.02"><defs><style>.emoji-2-1{fill:#f39014;}.emoji-2-2{fill:#fff;}.emoji-2-3{fill:#cdd7de;}.emoji-2-4{fill:#674711;}.emoji-2-5{fill:#fecc4f;}</style></defs><g id="Vrstva_1-2"><path class="emoji-2-2" d="m0,37.18c0,1.04.06,2.07.17,3.09,2.14,19.09,23.94,34.09,50.51,34.09,27.99,0,50.68-16.65,50.68-37.18C101.36,16.65,78.67,0,50.68,0,22.69,0,0,16.65,0,37.18Z"/><path class="emoji-2-2" d="m42.38,61.73c.95,1.53-5.24,36.52,1.3,48.3,0,0,2.26-24.53,19.3-39.75,17.04-15.22-20.6-8.54-20.6-8.54Z"/><g><path class="emoji-2-5" d="m66.4,32.42c-.9,1.41-1.75,2.85-2.62,4.28-.04.07-.05.15-.08.22-.33-.32-.61-.7-.99-.95-.58-.38-1.29-.21-1.62.39-.28.5-.44,1.06-.65,1.59-.52,1.32-1.32,2.42-2.64,3-.59.26-1.26.34-1.9.48-.63.13-1.27.2-1.89.36-1,.26-1.97.62-2.81,1.27-.66.51-1.22,1.09-1.66,1.82-.64,1.06-1.09,2.16-1.37,3.36-.21.93-.28,1.88-.09,2.79.27,1.3.63,2.6,1.43,3.69.43.58.93,1.12,1.39,1.67-.12.03-.24.08-.36.07-.85-.04-1.71-.06-2.56-.14-.83-.08-1.67-.18-2.48-.37-1.22-.29-2.45-.59-3.59-1.15-1.02-.5-2.07-.97-3.02-1.58-1.04-.67-2.02-1.45-2.97-2.24-1.44-1.2-2.61-2.67-3.58-4.26-.6-.97-1.11-2.01-1.58-3.05-.37-.82-.7-1.67-.93-2.55-.27-1.03-.44-2.09-.58-3.15-.11-.9-.15-1.82-.14-2.73.01-.92.09-1.84.21-2.74.12-.89.29-1.77.52-2.64.18-.69.45-1.37.73-2.03.36-.84.73-1.68,1.16-2.49.68-1.28,1.55-2.43,2.49-3.54,1.11-1.3,2.4-2.42,3.81-3.39.56-.39,1.14-.77,1.75-1.08.99-.51,2-1,3.03-1.42.73-.29,1.51-.46,2.27-.67,1.36-.37,2.75-.58,4.16-.62,1.18-.03,2.37.03,3.55.14.84.08,1.67.27,2.49.47.72.17,1.42.42,2.12.63.3.09.62.14.91.26.27.12.48.34.75.47,1.35.68,2.69,1.37,3.86,2.35.43.37.94.66,1.36,1.03.37.33.67.73,1.01,1.09.27.29.59.54.84.85.38.47.74.95,1.06,1.46.51.78,1,1.57,1.45,2.39.33.6.58,1.24.87,1.86-1.04,1.58-2.09,3.16-3.11,4.75Zm-26.9-3.64c-.05.13,0,.29,0,.43,0,.39-.09.8-.01,1.17.08.37.32.7.47,1.06.25.59.73.95,1.28,1.24.71.37,1.9.11,2.42-.42.73-.76,1-1.67,1.08-2.68.05-.63-.09-1.19-.4-1.72-.04-.06-.02-.22.02-.24.09-.05.22-.08.32-.05.35.09.69.22,1.04.3.24.06.5.09.75.08.37-.02.8-.53.84-.96.06-.6-.19-1.06-.65-1.18-.78-.2-1.56-.38-2.34-.57-.3-.08-.59-.17-.89-.25-.05-.01-.11,0-.17,0-.53.04-1.07.12-1.6.11-.24,0-.47.01-.7.03-.64.06-1.25.21-1.86.36-.62.16-1.22.41-1.82.65-.33.13-.66.3-.96.5-.46.31-.58,1.03-.28,1.49.29.43.96.55,1.44.34.85-.38,1.66-.84,2.62-.96-.2.44-.4.86-.57,1.3Zm13.91-.91c-.15.83-.01,1.62.43,2.33.28.44.69.76,1.14,1.06.7.46,1.34.38,2.01,0,.79-.44,1.36-1.35,1.52-2.31.2-1.16-.15-2.16-.8-3.07.66-.44,1.33-.86,1.96-1.33.46-.35.91-.75,1.27-1.2.52-.64.2-1.51-.6-1.68-.37-.08-.75,0-1.03.31-.78.86-1.72,1.53-2.76,2-.83.37-1.74.6-2.64.82-.57.14-1.18.16-1.77.22-.25.02-.5,0-.74,0-.62.02-1.14.66-1.04,1.28.08.53.46.87.99.88.7,0,1.4,0,2.14,0-.02.21-.04.45-.08.69Zm-9.44,14.85c.4.22.78.15,1.14-.09.46-.31.89-.68,1.37-.94,1.32-.73,2.72-1.23,4.25-1.26.8-.01,1.61.01,2.41.06.69.04,1.22-.29,1.4-.91.21-.73-.42-1.3-.94-1.32-1.03-.03-2.07-.14-3.09-.05-1,.09-2,.35-2.97.62-1.27.36-2.39,1.05-3.44,1.85-.37.28-.74.59-.64,1.13-.06.44.16.72.51.91Z"/><path class="emoji-2-1" d="m63.7,36.93c-.33-.32-.61-.7-.99-.95-.58-.38-1.29-.21-1.62.39-.28.5-.44,1.06-.65,1.59-.52,1.32-1.32,2.42-2.64,3-.59.26-1.26.34-1.9.48-.63.13-1.27.2-1.89.36-1,.26-1.97.62-2.81,1.27-.66.51-1.22,1.09-1.66,1.82-.64,1.06-1.09,2.16-1.37,3.36-.21.93-.28,1.88-.09,2.79.27,1.3.63,2.6,1.43,3.69.43.58.93,1.12,1.39,1.67.67.43,1.33.9,2.03,1.29.48.27,1.02.45,1.55.65.81.32,1.64.61,2.45.93.58.23,1.17.45,1.8.4.86-.06,1.45-.4,1.71-1.29.08-.27-.05-.6-.09-.93.71.08,1.46.02,2.04-.61.61-.66.67-1.37.17-2.16.88,0,1.59-.25,2.11-.93.56-.73.42-1.47.04-2.26.12,0,.21-.02.27,0,1.12.41,2.22.84,3.34,1.23.58.2,1.17.22,1.74-.07.84-.43,1.23-1.81.49-2.69-.24-.29-.5-.4-.82-.52-1.02-.38-2.03-.79-3.04-1.19-.42-.16-.84-.32-1.26-.48-.09-.04-.19-.08-.28-.11-1.51-.55-3.02-1.1-4.53-1.66-.34-.13-.69-.26-1.01-.43-.11-.06-.24-.27-.21-.38.03-.12.22-.21.35-.28.11-.05.25-.04.36-.07.93-.29,1.7-.82,2.29-1.6.18-.23.38-.44.58-.66.12-.26.26-.51.34-.77.26-.83.52-1.65.72-2.49.2-.84,0-1.65-.38-2.41Z"/><path class="emoji-2-3" d="m63.7,36.93c.39.76.58,1.57.38,2.41-.2.84-.46,1.67-.72,2.49-.08.27-.23.52-.34.77.64.38,1.28.75,1.91,1.14.4.24.79.5,1.18.74.01.01.03.03.04.04,0,0,0,0,0,0,.12.06.25.11.37.18.6.35,1.2.71,1.8,1.07.3.15.6.27.88.44.72.43,1.69.25,2.12-.48.36-.62.61-1.29.9-1.94.64-1.46,1.27-2.92,1.9-4.39.61-1.41,1.2-2.82,1.81-4.23.4-.92.88-1.82,1.18-2.77.3-.97.47-1.99.61-3,.11-.83.16-1.68.14-2.51-.04-1.47-.21-2.94-.67-4.35-.22-.68-.47-1.35-.73-2.01-.16-.42-.44-.52-.78-.22-.54.47-1.08.95-1.54,1.49-1,1.19-1.96,2.42-2.91,3.65-.49.64-.94,1.31-1.41,1.97-.08.1-.2.17-.3.26-1.04,1.58-2.09,3.16-3.11,4.75-.9,1.41-1.75,2.85-2.62,4.28-.04.07-.05.15-.08.22Z"/><path class="emoji-2-5" d="m68.32,45.78c-.6-.36-1.2-.72-1.8-1.07-.12-.07-.24-.12-.37-.18.45.69.44,1.38-.01,2.08-.25.39-.45.8-.68,1.2.42.16.84.32,1.26.48.1-.16.19-.33.3-.49.43-.67.87-1.34,1.3-2.01Z"/><path class="emoji-2-4" d="m40.07,27.49c-.2.44-.4.86-.57,1.3-.05.13,0,.29,0,.43,0,.39-.09.8-.01,1.17.08.37.32.7.47,1.06.25.59.73.95,1.28,1.24.71.37,1.9.11,2.42-.42.73-.76,1-1.67,1.08-2.68.05-.63-.09-1.19-.4-1.72-.04-.06-.02-.22.02-.24.09-.05.22-.08.32-.05.35.09.69.22,1.04.3.24.06.5.09.75.08.37-.02.8-.53.84-.96.06-.6-.19-1.06-.65-1.18-.78-.2-1.56-.38-2.34-.57-.3-.08-.59-.17-.89-.25-.05-.01-.11,0-.17,0-.53.04-1.07.12-1.6.11-.24,0-.47.01-.7.03-.64.06-1.25.21-1.86.36-.62.16-1.22.41-1.82.65-.33.13-.66.3-.96.5-.46.31-.58,1.03-.28,1.49.29.43.96.55,1.44.34.85-.38,1.66-.84,2.62-.96Z"/><path class="emoji-2-4" d="m53.49,27.18c-.02.21-.04.45-.08.69-.15.83-.01,1.62.43,2.33.28.44.69.76,1.14,1.06.7.46,1.34.38,2.01,0,.79-.44,1.36-1.35,1.52-2.31.2-1.16-.15-2.16-.8-3.07.66-.44,1.33-.86,1.96-1.33.46-.35.91-.75,1.27-1.2.52-.64.2-1.51-.6-1.68-.37-.08-.75,0-1.03.31-.78.86-1.72,1.53-2.76,2-.83.37-1.74.6-2.64.82-.57.14-1.18.16-1.77.22-.25.02-.5,0-.74,0-.62.02-1.14.66-1.04,1.28.08.53.46.87.99.88.7,0,1.4,0,2.14,0Z"/><path class="emoji-2-4" d="m43.46,41.81c-.06.44.16.72.51.91.4.22.78.15,1.14-.09.46-.31.89-.68,1.37-.94,1.32-.73,2.72-1.23,4.25-1.26.8-.01,1.61.01,2.41.06.69.04,1.22-.29,1.4-.91.21-.73-.42-1.3-.94-1.32-1.03-.03-2.07-.14-3.09-.05-1,.09-2,.35-2.97.62-1.27.36-2.39,1.05-3.44,1.85-.37.28-.74.59-.64,1.13Z"/><path class="emoji-2-4" d="m65.46,47.8c.23-.4.43-.81.68-1.2.45-.7.46-1.38.01-2.08,0,0,0,0,0,0-.01-.01-.03-.03-.04-.04-.39-.25-.78-.5-1.18-.74-.63-.38-1.28-.76-1.91-1.14-.19.22-.4.43-.58.66-.59.78-1.36,1.31-2.29,1.6-.12.04-.26.02-.36.07-.14.07-.32.16-.35.28-.03.1.1.32.21.38.32.17.66.31,1.01.43,1.51.56,3.02,1.11,4.53,1.66.1.03.19.08.28.11Z"/><path class="emoji-2-5" d="m66.11,44.49s.03.03.04.04c-.01-.01-.03-.03-.04-.04Z"/><path class="emoji-2-4" d="m46.93,25.94s-4.57-2.28-8.67-.22.69.88.69.88l7.99-.66Z"/></g></g></svg>