<?xml version="1.0" encoding="UTF-8"?><svg id="Vrstva_2" xmlns="http://www.w3.org/2000/svg" viewBox="0 0 129.69 74.36"><defs><style>.cls-1{fill:#f39014;}.cls-2{fill:#fff;}.cls-3{fill:#fecb4e;}.cls-4{fill:#ffdc5e;}.cls-5{fill:#654611;}</style></defs><g id="Vrstva_1-2"><g><path class="cls-2" d="m101.36,37.18c0,1.04-.06,2.07-.17,3.09-2.14,19.09-23.94,34.09-50.51,34.09C22.69,74.36,0,57.71,0,37.18,0,16.65,22.69,0,50.68,0s50.68,16.65,50.68,37.18Z"/><path class="cls-2" d="m98.63,36.09c.3,1.77,28.14,23.86,31.06,37.01,0,0-17.96-16.86-40.81-16.95s9.75-20.06,9.75-20.06Z"/></g><g><circle class="cls-3" cx="44.98" cy="32.97" r="20.7"/><path class="cls-3" d="m30.03,47.05c-.38-.42-.78-.83-1.13-1.27-.48-.6-.95-1.2-1.37-1.85-.37-.58-.66-1.21-.97-1.82-.25-.5-.5-1.01-.73-1.53-.13-.31-.21-.64-.32-.96-.11-.31-.24-.62-.34-.93-.11-.32-.22-.64-.28-.97-.09-.45-.11-.92-.19-1.37-.3-1.78-.12-3.58-.14-5.37,0-.66.26-1.33.26-2,0-.5.29-.89.31-1.38.01-.33.24-.64.36-.97.15-.44.25-.9.44-1.32.29-.67.62-1.33.97-1.98.35-.64.72-1.27,1.12-1.88.27-.4.6-.77.92-1.14.8-.89,1.57-1.79,2.42-2.63.52-.51,1.14-.91,1.73-1.33.61-.43,1.22-.88,1.87-1.24.66-.36,1.29-.78,2.05-.95.63-.14,1.21-.49,1.83-.7.42-.14.86-.22,1.29-.31.45-.1.89-.2,1.34-.28.5-.1,1-.23,1.51-.27.8-.06,1.6-.08,2.4-.08.67,0,1.34.02,2,.09.38.04.75.19,1.13.28.04,0,.08.02.12.02.6.13,1.19.26,1.78.4.49.12.99.24,1.46.41.74.28,1.49.57,2.2.91.68.33,1.34.7,1.98,1.11,1.61,1.03,3.07,2.25,4.31,3.71.57.67,1.14,1.33,1.64,2.05.38.54.66,1.15.97,1.73.31.58.64,1.16.91,1.76.21.47.35.98.52,1.47.09.27.2.53.29.8.05.15.08.3.11.45.01.06-.02.17,0,.19.41.29.25.75.36,1.12,0,.03.02.05.02.08.09.69.22,1.38.24,2.07.04,1.33.02,2.66,0,3.98,0,.25-.13.51-.17.76-.08.47-.14.94-.23,1.54.62-.15,1.19-.28,1.76-.42.05-.01.1-.06.15-.05.82.02,1.65.03,2.47.09,2.16.14,4.27.5,6.17,1.59.65.38,1.23.89,1.86,1.35.09-1.57-.17-3.15-.48-4.74-.31-1.57-.58-3.15-1.17-4.67-.52.24-1.03.44-1.51.71-1.02.57-2.09.63-3.18.28-.52-.17-1.05-.34-1.52-.6-.46-.24-.53-.51-.36-1.01.15-.45.34-.89.53-1.39-.48-.16-.99-.35-1.51-.49-.35-.1-.59-.31-.65-.64-.1-.6-.19-1.22-.19-1.83,0-.45.11-.91.21-1.36.18-.81.6-1.49,1.14-2.12.54-.62,1.23-.9,1.98-.95,1.9-.12,3.72.1,5.41,1.14,1.4.86,2.56,1.94,3.48,3.28,1.11,1.63,2.2,3.28,3.22,4.96,1.5,2.45,2.8,5.01,3.77,7.71.58,1.62,1.08,3.26,1.34,4.97.14.89.51,1.75.7,2.64.14.67.17,1.36.24,2.05.04.42-.15.73-.49.95-.39.25-.76.52-1.28.49-.18,0-.36.23-.56.28-.68.18-1.38.3-2.06.5-.37.11-.7.35-1.06.52-.33.16-.68.29-1.02.44-2.07.89-4.24,1.43-6.45,1.85-.51.1-1.04.09-1.55.19-.4.08-.77.25-1.19.15-.17-.04-.33-.07-.5-.1-.1-.02-.23-.09-.31-.05-.62.3-1.29.14-1.93.17-.8.03-1.61.06-2.41,0-.67-.06-1.33-.26-2-.39-1.52-.29-3.01-.7-4.38-1.43-.98-.52-1.94-1.11-2.58-2.08-.19-.28-.44-.52-.71-.83-.39.31-.76.65-1.17.92-.82.54-1.66,1.05-2.5,1.55-.49.29-.98.61-1.51.76-.68.19-1.3.54-1.99.74-.56.16-1.16.2-1.7.42-1.01.4-2.06.42-3.12.38.03-.39.05-.77.09-1.16.04-.54-.16-.93-.65-1.18-.11-.06-.2-.16-.3-.25,1.3-.91,1.7-2.57.12-3.71.12-.08.21-.18.32-.21.85-.22,1.7-.44,2.56-.64,1.35-.31,2.71-.6,4.06-.92.29-.07.58-.22.81-.42.58-.5.77-1.11.51-1.89-.22-.65-.68-1.11-1.35-1.13-.73-.03-1.43.14-2.12.33-.64.17-1.29.32-1.94.47-.73.17-1.46.31-2.18.48-1.01.24-2.02.5-3.03.74-1.2.28-2.41.56-3.61.83-.47.11-.93.22-1.4.29-.14.02-.41-.09-.43-.18-.03-.16.02-.41.13-.53.86-.86,1.22-1.93,1.24-3.11.03-1.22-.18-2.42-.72-3.53-.49-1.02-1.13-1.92-2.37-2.11-1.22-.19-1.85.2-1.73,1.56.02.19.12.38.15.58.09.51.19,1.02.23,1.53.1,1.14,0,2.26-.79,3.18-.33.38-.7.73-1.07,1.08-1.14,1.07-2.19,2.2-2.96,3.57Zm20.82-21.88c-.51.77-.64,1.51-.62,2.33.03.99.41,1.77,1.12,2.43.77.72,1.99.58,2.67.04.85-.68,1.28-1.58,1.27-2.65,0-.5.04-1.04-.33-1.5-.13-.16-.15-.41-.22-.62.04-.04.08-.08.12-.13.62.25,1.22.54,1.85.75.41.14.75.5,1.27.37.71-.18,1.12-.86.73-1.49-.28-.45-.72-.66-1.16-.83-1-.38-2.01-.7-3.07-.89-1.34-.24-2.66-.23-3.99.01-.65.12-1.29.29-1.92.46-.8.21-1.09.75-.82,1.5.14.4.86.77,1.21.64.43-.16.86-.3,1.3-.43.15-.04.33,0,.6,0Zm13.15,18.9c-.59,0-1.15.7-.91,1.13.23.43.45.89.76,1.27.87,1.04,1.77,2.06,2.97,2.76,1.13.65,2.33,1.07,3.62,1.21.51.05,1.03.05,1.55.03.26-.01.52-.14.78-.2.57-.12,1.18-.14,1.7-.36,1.02-.43,2.01-.95,3-1.46.52-.27.71-.82.48-1.24-.27-.49-.87-.66-1.39-.32-.45.3-.96.43-1.42.71-.97.6-2.11.82-3.23.97-.94.13-1.89,0-2.81-.26-1.06-.3-1.95-.91-2.69-1.68-.6-.62-1.07-1.36-1.58-2.05-.22-.3-.45-.53-.84-.49Zm-27.44-18.1c-.02,1.11.37,2.06,1.23,2.76.47.39,1.04.55,1.67.41,1.21-.27,1.79-1.14,2.13-2.23.1-.32.23-.69.17-1-.14-.63-.3-1.29-.63-1.84-.81-1.37-2.34-1.77-3.61-.57-.7.66-.94,1.53-.96,2.47Zm6.54,9.71s-.01-.07-.02-.1c-.55.07-1.11.12-1.66.2-.58.08-.88.37-.91.9-.04.62.18,1,.74,1.17.38.12.83.03,1.25.02,1.2-.02,2.38,0,3.56.3,1.39.36,2.62.99,3.71,1.9.54.44,1.13.18,1.46-.3.31-.46.22-1.21-.55-1.69-.51-.32-1-.68-1.54-.94-.78-.37-1.59-.69-2.41-.95-.73-.23-1.5-.35-2.24-.52-.19-.04-.38-.18-.56-.17-.28.02-.55.12-.82.19Zm-9.36-16.02c0,.67.7,1.28,1.34,1.13.26-.06.5-.22.77-.3.78-.21,1.55-.53,2.34-.56,1.21-.05,2.46-.25,3.65.21.42.16.86.28,1.3.4.33.09.65.21.99.24.32.02.78-.57.82-.95.05-.47-.23-.97-.64-1.12-.98-.34-1.94-.69-2.98-.85-1.51-.23-3-.19-4.49.08-.82.14-1.61.45-2.41.71-.43.14-.69.54-.69,1.02Zm37.77,8.73c.06-.17.09-.25.12-.33.23-.55.13-1.15-.33-1.54-.16-.13-.42-.14-.63-.21-.01.2-.08.41-.03.59.14.53.12.98-.29,1.41-.5.53-.77,1.12-.37,1.87.28.54.62.96,1.21,1.16.88.29,1.63-.09,2.37-.47.1-.05.21-.24.18-.33-.09-.36.22-.77-.16-1.08-.02-.02-.02-.11,0-.14.19-.31.13-.55-.24-.76.51-.21.97-.4,1.43-.57.28-.1.46-.25.35-.56-.13-.34-.39-.25-.64-.15-.81.32-1.62.64-2.43.96-.15.06-.31.1-.55.18Zm2.27-4.94c-.03.46-.01.89.41,1.08.13.06.4-.03.52-.15.34-.31.21-.69.01-1.1.24.06.43.12.62.15.25.05.35-.13.26-.3-.07-.14-.27-.28-.42-.29-.35-.03-.72-.01-1.06.05-.32.06-.63.18-.94.31-.08.03-.11.18-.16.28.1.04.21.13.3.12.14-.01.27-.09.46-.16Zm-2.46,1.29c.14-.13.41-.27.4-.38-.03-.29.37-.65-.14-.91-.25-.12-.44-.23-.68-.05-.27.2-.34.48-.22.77.1.25.21.54.65.57Zm3.13,1.97c.02-.07.05-.14.07-.21-.1-.05-.19-.09-.29-.14-.67-.31-1.36-.45-2.08-.24-.1.03-.16.2-.24.3.12.05.26.18.36.15.64-.16,1.22-.04,1.81.22.09.04.24-.06.36-.09Zm-2-4.26c-.18-.14-.25-.24-.34-.25-.74-.1-1.47-.16-2.13.29-.09.06-.1.24-.15.36.12.01.26.07.36.03.54-.23,1.07-.41,1.68-.25.14.04.32-.09.58-.18Z"/><path class="cls-1" d="m30.03,47.05c.77-1.37,1.82-2.5,2.96-3.57.37-.35.74-.69,1.07-1.08.79-.92.89-2.03.79-3.18-.04-.51-.14-1.02-.23-1.53-.03-.2-.14-.38-.15-.58-.12-1.35.51-1.75,1.73-1.56,1.23.19,1.88,1.09,2.37,2.11.53,1.11.74,2.31.72,3.53-.03,1.18-.39,2.24-1.24,3.11-.11.12-.17.37-.13.53.02.09.29.2.43.18.47-.07.94-.18,1.4-.29,1.2-.27,2.41-.55,3.61-.83,1.01-.24,2.02-.5,3.03-.74.72-.17,1.46-.31,2.18-.48.65-.15,1.3-.3,1.94-.47.7-.19,1.39-.36,2.12-.33.67.03,1.13.48,1.35,1.13.26.78.07,1.39-.51,1.89-.22.19-.52.35-.81.42-1.35.33-2.71.61-4.06.92-.86.2-1.71.42-2.56.64-.11.03-.21.13-.32.21,1.58,1.14,1.18,2.8-.12,3.71.1.09.19.2.3.25.49.25.69.65.65,1.18-.03.38-.06.77-.09,1.16-.1.09-.21.18-.31.26-.29.23-.59.46-.95.73.07.08.2.27.37.39.34.25.41.6.33.96-.17.77-.66,1.29-1.37,1.61-.45.21-.91.3-1.41.34-.29.02-.58.21-.91.24-.47.05-.94.36-1.39.32-.53-.05-.87.36-1.35.37-.49.01-.99.12-1.47.07-.6-.06-1.23,0-1.8-.34-.28-.16-.66-.14-.96-.28-.63-.29-1.29-.56-1.84-.96-.65-.47-1.23-1.04-1.78-1.62-.67-.69-1.13-1.53-1.47-2.43-.06-.16-.06-.33-.09-.5-.03-.21-.03-.42-.09-.62-.04-.14-.15-.25-.23-.38-.03-.37-.05-.73-.08-1.1-.03-.04-.06-.09-.09-.13-.04-.59-.15-1.17.14-1.75.13-.27.12-.61.19-.91.05-.21.11-.42.16-.63Z"/><path class="cls-4" d="m29.71,51.57c.08.12.19.24.23.38.06.2.06.41.09.62-.08-.08-.21-.15-.23-.24-.06-.25-.07-.5-.1-.76Z"/><path class="cls-4" d="m29.54,50.34s.06.09.09.13c-.03-.04-.06-.09-.09-.13Z"/><path class="cls-5" d="m50.85,25.17c-.26,0-.44-.04-.6,0-.44.12-.87.27-1.3.43-.35.13-1.06-.24-1.21-.64-.27-.75.02-1.3.82-1.5.64-.16,1.28-.34,1.92-.46,1.33-.24,2.65-.25,3.99-.01,1.06.19,2.08.51,3.07.89.44.17.88.38,1.16.83.39.63-.02,1.31-.73,1.49-.52.13-.86-.23-1.27-.37-.63-.22-1.24-.5-1.85-.75-.04.04-.08.08-.12.13.07.21.09.46.22.62.37.45.32.99.33,1.5.01,1.07-.42,1.97-1.27,2.65-.67.54-1.89.67-2.67-.04-.71-.66-1.09-1.44-1.12-2.43-.02-.81.1-1.56.62-2.33Z"/><path class="cls-1" d="m63.99,44.07c.38-.04.62.2.84.49.51.7.98,1.44,1.58,2.05.75.77,1.63,1.39,2.69,1.68.92.26,1.87.39,2.81.26,1.12-.15,2.26-.36,3.23-.97.46-.28.97-.41,1.42-.71.52-.34,1.12-.17,1.39.32.23.42.04.97-.48,1.24-.99.51-1.97,1.03-3,1.46-.53.22-1.13.24-1.7.36-.26.06-.52.19-.78.2-.51.03-1.03.03-1.55-.03-1.29-.14-2.49-.56-3.62-1.21-1.2-.7-2.1-1.72-2.97-2.76-.31-.37-.53-.83-.76-1.27-.24-.44.32-1.13.91-1.13Z"/><path class="cls-5" d="m36.55,25.97c.02-.94.26-1.81.96-2.47,1.27-1.19,2.8-.79,3.61.57.33.55.49,1.21.63,1.84.07.31-.06.67-.17,1-.34,1.09-.93,1.95-2.13,2.23-.63.14-1.2-.02-1.67-.41-.86-.71-1.24-1.65-1.23-2.76Z"/><path class="cls-5" d="m43.1,35.68c.27-.07.54-.18.82-.19.18-.01.37.12.56.17.75.18,1.51.29,2.24.52.82.26,1.63.59,2.41.95.54.25,1.03.62,1.54.94.77.48.86,1.23.55,1.69-.33.49-.93.75-1.46.3-1.1-.91-2.33-1.54-3.71-1.9-1.18-.31-2.36-.33-3.56-.3-.42,0-.87.1-1.25-.02-.56-.17-.78-.56-.74-1.17.04-.53.33-.81.91-.9.55-.08,1.11-.13,1.66-.2,0,.03.01.07.02.1Z"/><path class="cls-5" d="m33.73,19.66c0-.48.26-.88.69-1.02.8-.25,1.59-.56,2.41-.71,1.48-.26,2.97-.3,4.49-.08,1.04.16,2.01.51,2.98.85.41.14.69.65.64,1.12-.04.38-.51.97-.82.95-.33-.02-.66-.14-.99-.24-.44-.12-.88-.24-1.3-.4-1.2-.46-2.44-.26-3.65-.21-.79.03-1.56.35-2.34.56-.26.07-.5.23-.77.3-.64.16-1.34-.45-1.34-1.13Z"/><path class="cls-1" d="m71.5,28.39c.23-.07.39-.12.55-.18.81-.32,1.62-.64,2.43-.96.25-.1.51-.19.64.15.11.31-.07.46-.35.56-.46.17-.91.37-1.43.57.37.21.43.46.24.76-.02.04-.03.12,0,.14.38.31.07.73.16,1.08.02.09-.09.28-.18.33-.74.38-1.49.76-2.37.47-.59-.19-.93-.62-1.21-1.16-.39-.75-.13-1.34.37-1.87.41-.43.43-.88.29-1.41-.05-.18.02-.39.03-.59.21.07.48.07.63.21.46.39.56.99.33,1.54-.03.08-.06.16-.12.33Z"/><path class="cls-5" d="m73.77,23.45c-.19.07-.32.15-.46.16-.1,0-.2-.08-.3-.12.05-.1.08-.25.16-.28.3-.13.62-.25.94-.31.35-.06.71-.08,1.06-.05.15.01.36.15.42.29.09.17,0,.35-.26.3-.19-.04-.37-.09-.62-.15.19.41.33.79-.01,1.1-.12.11-.39.2-.52.15-.42-.2-.44-.62-.41-1.08Z"/><path class="cls-5" d="m71.31,24.74c-.45-.03-.55-.32-.65-.57-.11-.29-.05-.57.22-.77.24-.18.43-.07.68.05.51.25.11.61.14.91.01.11-.26.25-.4.38Z"/><path class="cls-5" d="m74.44,26.71c-.12.03-.27.13-.36.09-.58-.26-1.17-.38-1.81-.22-.1.03-.24-.1-.36-.15.08-.1.14-.28.24-.3.72-.21,1.41-.07,2.08.24.1.05.19.09.29.14-.02.07-.05.14-.07.21Z"/><path class="cls-5" d="m72.45,22.45c-.26.09-.44.21-.58.18-.6-.16-1.14.02-1.68.25-.1.04-.24-.02-.36-.03.05-.12.06-.3.15-.36.65-.46,1.39-.4,2.13-.29.08.01.16.11.34.25Z"/><path class="cls-1" d="m34.44,41.87c-.37.54-8.59,6.28-3.79,12.33,4.8,6.05,8.53,5.28,14.29,2.93"/><path class="cls-3" d="m65.07,37.46s6.14-2.8,12.4,2.56c6.26,5.36,10.95,8.9,10.95,8.9,0,0-21.22,10.88-29.97-.3l6.61-11.16Z"/><path class="cls-5" d="m55.02,24.55c-.16.53.32.98.25,2.26s-2.02-2.07-2.02-2.07l1.77-.19Z"/><path class="cls-5" d="m50.93,38.27s-4.75-4.13-10.05-2.31c0,0,3.02,1.36,3.17,1.36s6.88.95,6.88.95Z"/></g></g></svg>