<svg id="emoji_3" xmlns="http://www.w3.org/2000/svg" viewBox="0 0 101.36 110.02"><defs><style>.emoji-3-1{fill:#664e27;}.emoji-3-2{fill:#fff;}.emoji-3-3{fill:#4c3526;}.emoji-3-4{fill:#b99a48;}.emoji-3-5{fill:#ffde6e;}.emoji-3-6{fill:#674f27;}.emoji-3-7{fill:#c5645e;}.emoji-3-8{fill:#fecb4e;}.emoji-3-9{fill:#6bafe1;}.emoji-3-10{fill:#71b1de;}.emoji-3-11{fill:#ea6e7c;}.emoji-3-12{fill:#fadc6d;}.emoji-3-13{fill:#fbfdfe;}.emoji-3-14{fill:#ffdd68;}.emoji-3-15{fill:#674e27;}.emoji-3-16{fill:#ed6f7f;}.emoji-3-17{fill:#684f28;}.emoji-3-18{fill:#ffde6f;}.emoji-3-19{fill:#ffdf71;}.emoji-3-20{fill:#76b2dc;}</style></defs><g id="Vrstva_1-2"><g><path class="emoji-3-2" d="m0,37.18c0,1.04.06,2.07.17,3.09,2.14,19.09,23.94,34.09,50.51,34.09,27.99,0,50.68-16.65,50.68-37.18C101.36,16.65,78.67,0,50.68,0,22.69,0,0,16.65,0,37.18Z"/><path class="emoji-3-2" d="m42.38,61.73c.95,1.53-5.24,36.52,1.3,48.3,0,0,2.26-24.53,19.3-39.75,17.04-15.22-20.6-8.54-20.6-8.54Z"/><g><path class="emoji-3-8" d="m30.17,29.4c.04-.08.08-.15.11-.23,0-.01,0-.03,0-.04.05-.14.1-.28.15-.42,0,0,.02,0,.03-.01,0,0,.01.01.03.02-.01-.01-.02-.02-.02-.03.19-.37.38-.73.57-1.1.01-.03.02-.06.04-.09,0,0,0,0,0,0,.01,0,.02,0,.03-.01-.01,0-.02,0-.03-.01.13-.21.26-.42.39-.63.12-.2.21-.42.34-.61.3-.44.62-.88.93-1.32.13-.18.26-.37.4-.55.17-.22.36-.42.54-.63.02-.02.04-.05.05-.07.07-.08.14-.16.22-.23.02-.02.04-.05.05-.07.1-.11.21-.21.31-.32.2-.2.39-.41.59-.61.24-.24.49-.48.74-.72.02-.02.05-.04.07-.06.07-.06.13-.11.2-.17.01-.01.02-.02.03-.04,0,0,0,0,0,0,.03-.02.05-.04.08-.06.05-.04.11-.09.16-.13,0-.01.02-.02.03-.03,0,0,0,0,0,0,.02-.02.05-.04.07-.05.04-.03.08-.07.12-.1,0-.01.02-.02.03-.03.22-.17.44-.34.66-.5.01-.01.02-.02.03-.04,0,0,0,0,0,0,.02-.02.05-.04.07-.07.42-.28.84-.57,1.26-.85.03-.02.05-.04.08-.06.27-.16.54-.31.81-.47.04-.02.07-.03.11-.05.08-.05.16-.09.24-.14.06-.03.12-.06.18-.09.36-.17.71-.35,1.07-.52.06-.04.13-.07.19-.11.08-.04.15-.08.23-.12.03,0,.05-.02.08-.03.09-.03.18-.06.27-.09.27-.1.53-.2.8-.3.05-.02.1-.05.15-.07.3-.1.61-.21.91-.31.07-.02.14-.04.2-.07.02-.01.05-.03.07-.04.19-.04.38-.08.57-.13.02-.02.05-.05.07-.07.09-.01.17-.02.26-.04.26-.05.51-.12.77-.17.38-.08.77-.15,1.15-.22.01-.01.03-.02.04-.03.08,0,.15,0,.23,0,.01-.01.03-.02.04-.03.19-.02.38-.03.57-.05.01-.01.03-.02.04-.03.11,0,.22-.01.33-.02.06,0,.11,0,.17,0,.06,0,.12.03.17.01.13-.06.26-.06.41-.04.3.02.6-.03.9-.03.86.02,1.73.05,2.59.08.08,0,.16.08.24.09.18.02.36,0,.54.01,1.5.19,2.95.56,4.36,1.07.67.24,1.34.52,1.98.83,2.76,1.32,5.13,3.16,7.11,5.5,2.04,2.41,3.47,5.14,4.32,8.18.39,1.42.61,2.87.73,4.33.06.66.04,1.33.04,2,0,.36-.05.73-.08,1.09-.05.51-.07,1.03-.15,1.53-.1.65-.25,1.3-.38,1.94-.03-.03-.07-.05-.09-.08-.77-1.43-1.93-2.47-3.3-3.31-1.46-.9-3.05-1.47-4.69-1.89-.07-.02-.13-.03-.2-.04-.05-.01-.1-.02-.15-.03h-.04s-.08-.03-.11-.04c-.01,0-.03,0-.04,0-.04,0-.07-.02-.11-.03-.03,0-.05,0-.08,0-.04,0-.07-.02-.11-.03-.03,0-.05,0-.08,0-.04-.01-.08-.02-.11-.03-.03,0-.05,0-.08,0-.04,0-.08-.02-.11-.03h-.08s-.08-.03-.11-.04c-.04,0-.08,0-.12,0-.04,0-.08-.02-.11-.03-.04,0-.08,0-.11,0-.04,0-.08-.02-.11-.03-.03,0-.05,0-.08,0-.06-.01-.12-.02-.19-.03-.57-.07-1.14-.14-1.71-.21-.12-.01-.25,0-.41.02.02.2.04.4.05.6,0,.02,0,.04,0,.06-.08.29.07.56.06.84,0,.19.06.37.01.56-.01.02-.03.04-.04.06-.08,0-.17,0-.25,0-5.58,0-11.16,0-16.75,0-.08,0-.17,0-.25,0,0-.03,0-.07-.01-.1-.02-.1-.04-.18.02-.29.06-.1.01-.26.02-.39,0-.17.02-.33.03-.5,0-.05,0-.1,0-.15,0-.01,0-.03.01-.04.01-.01.02-.03.03-.04v-.62c-.45.03-.89.06-1.33.1-.04,0-.07.02-.11.03-.13.03-.25.06-.38.07-.14.02-.28.02-.41.04-.23.03-.46.06-.69.09-.02-.03-.05-.08-.07-.08-.24.02-.48.03-.66.22-.3.08-.59.15-.89.23-1.72.46-3.36,1.09-4.84,2.08-1.2.81-2.22,1.79-2.9,3.09,0,.01-.02.02-.03.03,0-.04-.02-.07-.02-.11-.07-.29-.14-.57-.2-.86-.01-.02-.02-.05-.04-.07-.03-.2-.07-.4-.09-.6-.02-.14-.02-.29-.03-.43-.02-.04-.05-.08-.07-.11-.01-.18-.03-.36-.04-.54-.01-.02-.03-.05-.04-.07-.01-.13-.04-.26-.04-.4,0-.23,0-.45,0-.68,0-.27-.04-.53-.04-.8,0-.54,0-1.07,0-1.61,0-.17,0-.34,0-.5.02-.22.07-.44.1-.66.02-.14.03-.28.04-.42.02-.22.02-.43.05-.65.04-.24.11-.48.16-.73.17-.88.35-1.75.67-2.59.1-.26.16-.53.24-.79.02-.03.04-.05.07-.08.02-.08.03-.15.05-.23,0-.01.02-.02.03-.03.07-.18.14-.36.2-.54,0-.01.02-.02.03-.04Zm7.61,6.6c.54-.55,1.14-1.02,1.83-1.35.53-.25,1.07-.43,1.66-.48.44-.03.89-.1,1.33-.07.64.04,1.28.12,1.86.44.41.22.84.41,1.22.66.31.2.58.46.84.73.26.26.55.21.78.01.27-.22.33-.47.19-.79-.14-.3-.23-.62-.36-.92-.11-.24-.26-.47-.39-.7-.09-.18-.16-.38-.26-.55-.13-.21-.27-.42-.42-.62-.17-.23-.34-.45-.52-.67-.07-.09-.18-.15-.22-.24-.17-.38-.54-.53-.83-.76-.3-.24-.68-.37-1-.58-.25-.17-.53-.14-.8-.21-.46-.13-.9-.02-1.35.06-.41.07-.76.28-1.11.48-.23.13-.46.28-.69.42-.04.03-.04.12-.08.16-.21.19-.43.37-.63.57-.07.07-.12.17-.17.25-.15.22-.28.45-.45.66-.44.54-.67,1.18-.98,1.79-.16.32-.3.64-.44.96-.1.24-.02.44.18.62.15.14.29.27.54.28.08-.05.17-.09.24-.16Zm25.37-.27c.07-.11.09-.28.06-.41-.04-.2-.15-.39-.22-.59-.03-.08-.03-.18-.06-.25-.07-.15-.16-.3-.24-.45-.13-.27-.24-.55-.38-.82-.08-.16-.2-.3-.31-.45-.04-.05-.08-.1-.11-.15-.24-.35-.48-.72-.74-1.06-.11-.14-.27-.24-.39-.38-.37-.41-.84-.68-1.31-.94-.63-.34-1.32-.46-2.03-.34-.29.05-.59.12-.86.23-.74.29-1.33.79-1.86,1.38-.72.79-1.25,1.7-1.7,2.67-.13.29-.22.61-.38.88-.11.19-.09.37-.13.56,0,.03,0,.07,0,.09.11.24.53.46.78.4.08-.02.15-.08.21-.15.5-.54,1.08-.96,1.73-1.29.53-.26,1.09-.44,1.68-.5.45-.04.91-.09,1.36-.07.41.02.83.02,1.22.21.22.1.48.12.7.21.78.32,1.46.79,2.05,1.39.05.05.09.12.13.18.38.1.62-.1.8-.38Z"/><path class="emoji-3-8" d="m39.27,56.31c.1.06.16.2.31.13,0,0,.02.01.03.02.34.35.81.48,1.24.66.17.07.33.19.5.27.29.13.59.25.89.37.01.01.02.02.03.03.45.15.89.3,1.34.45.32.1.64.18.95.27.02.01.05.03.07.04.29.06.57.12.86.17.67.12,1.34.24,2.01.34.42.06.85.08,1.28.12.1,0,.21-.02.27-.03.12.03.22.07.31.07.43,0,.85.02,1.28,0,.5-.02.99-.07,1.48-.12.52-.05,1.04-.11,1.56-.19.43-.07.86-.16,1.28-.28.8-.22,1.61-.43,2.39-.71,1.04-.37,2.05-.83,3.01-1.38.62-.36,1.24-.71,1.82-1.12.69-.49,1.35-1.04,2.01-1.58.36-.29.7-.61,1.01-.94.56-.6,1.09-1.23,1.63-1.85.13-.15.26-.31.39-.46-.04,0-.07-.01-.11,0-.32,0-.64.04-.96.02-1.06-.07-1.97-.5-2.8-1.14-.57-.44-1.05-.97-1.51-1.53-.02.02-.03.04-.05.06-1.32,1.91-3.07,3.29-5.18,4.21-1.27.56-2.6.9-3.96,1.1-.47.07-.94.15-1.41.15-.83,0-1.65.1-2.48.01-.29-.03-.59-.04-.88-.08-.42-.06-.84-.07-1.25-.18-.57-.16-1.15-.26-1.72-.42-.48-.14-.95-.31-1.41-.5-1.42-.59-2.7-1.4-3.82-2.47-.59-.57-1.12-1.2-1.59-1.87-.48.55-.91,1.15-1.54,1.55-.33.21-.64.45-.98.63-.29.15-.61.23-.92.35-.02,0-.05.02-.07.03-.03,0-.05,0-.08.01-.02,0-.05.02-.07.03h-.08s-.08.03-.11.04c-.37.03-.74.05-1.1.08-.04,0-.08-.02-.11-.03-.05,0-.1,0-.16,0-.03.01-.05.03-.08.04.15.19.3.39.46.58.16.19.32.38.49.57.31.34.62.69.95,1.02.21.22.43.42.66.63.15.14.3.27.47.39.32.22.56.54.86.78.49.38,1,.72,1.5,1.07.28.19.57.36.86.53.07.04.14.08.22.11,0,0,0,0,0,0Z"/><path class="emoji-3-9" d="m61.87,47.92c.46.56.93,1.09,1.51,1.53.83.64,1.74,1.07,2.8,1.14.32.02.64,0,.96-.02.04,0,.07,0,.11,0,.5-.16,1.02-.27,1.49-.5.4-.19.76-.48,1.08-.81.34-.35.68-.7.91-1.13.33-.63.63-1.27.68-2,.03-.38.07-.77.04-1.16-.03-.35-.12-.7-.2-1.05-.07-.27-.16-.53-.25-.8-.03-.08-.08-.15-.11-.23-.03-.03-.07-.05-.09-.08-.77-1.43-1.93-2.47-3.3-3.31-1.46-.9-3.05-1.47-4.69-1.89-.07-.02-.13-.03-.2-.04-.05-.01-.1-.02-.15-.03h-.04s-.08-.03-.11-.04c-.01,0-.03,0-.04,0-.04,0-.07-.02-.11-.03-.03,0-.05,0-.08,0-.04,0-.07-.02-.11-.03-.03,0-.05,0-.08,0-.04-.01-.08-.02-.11-.03-.03,0-.05,0-.08,0-.04,0-.08-.02-.11-.03-.03,0-.05,0-.08,0-.04,0-.08-.02-.11-.03-.04,0-.08,0-.12,0-.04,0-.08-.02-.11-.03-.04,0-.08,0-.11,0-.04,0-.08-.02-.11-.03-.03,0-.05,0-.08,0-.06-.01-.12-.02-.19-.03-.57-.07-1.14-.14-1.71-.21-.12-.01-.25,0-.41.02.02.2.04.4.05.6,0,.02,0,.04,0,.06-.08.29.07.56.06.84,0,.19.06.37.01.56.02.02.03.05.05.07.02.1.04.2.05.3.06.37.11.75.17,1.12,0,0,0,.01,0,.02h.01s0,.01,0,.01c0,.05.02.11.02.16.01,0,.02.02.01.03,0,.05.02.11.03.16.01,0,.02.02.01.03.21.82.42,1.63.63,2.45,0,.02.02.03.03.05.51,1.59,1.2,3.08,2.19,4.42Z"/><path class="emoji-3-9" d="m33.15,50.63c.37-.03.74-.05,1.1-.08.04,0,.08-.02.11-.03.03,0,.05,0,.08,0,.02,0,.05-.02.07-.03.03,0,.05,0,.08-.01.02,0,.05-.02.07-.03.31-.11.63-.2.92-.35.34-.18.66-.42.98-.63.63-.4,1.06-1,1.54-1.55.54-.74,1.03-1.53,1.39-2.37.3-.69.55-1.4.82-2.1.14-.52.3-1.05.43-1.57.11-.43.2-.86.29-1.29.01-.09.02-.17.04-.26.06-.39.13-.77.19-1.16l.07-.11c-.02-.1-.04-.18.02-.29.06-.1.01-.26.02-.39,0-.17.02-.33.03-.5,0-.05,0-.1,0-.15,0-.01,0-.03.01-.04.01-.01.02-.03.03-.04v-.62c-.45.03-.89.06-1.33.1-.04,0-.07.02-.11.03-.13.03-.25.06-.38.07-.14.02-.28.02-.41.04-.23.03-.46.06-.69.09-.24.05-.49.09-.73.14-.3.08-.59.15-.89.23-1.72.46-3.36,1.09-4.84,2.08-1.2.81-2.22,1.79-2.9,3.09,0,.01-.02.02-.03.03-.15.38-.32.75-.45,1.13-.06.18-.05.4-.1.59-.09.32-.02.64-.03.95,0,.3,0,.61.04.91.03.21.12.41.2.61.12.31.24.62.4.91.15.28.33.54.53.79.56.69,1.26,1.21,2.1,1.52.3.11.61.18.91.27.04,0,.08,0,.12,0,.05,0,.1,0,.16,0,.04,0,.08.02.11.03Z"/><path class="emoji-3-18" d="m40.94,18.25c.06-.04.13-.07.19-.11-.06.04-.13.07-.19.11Z"/><path class="emoji-3-18" d="m39.69,18.86c.06-.03.12-.06.18-.09-.06.03-.12.06-.18.09Z"/><path class="emoji-3-18" d="m42.51,17.6c.05-.02.1-.05.15-.07-.05.02-.1.05-.15.07Z"/><path class="emoji-3-5" d="m28.76,40.85s-.05-.08-.07-.11c.02.04.05.08.07.11Z"/><path class="emoji-3-19" d="m32.88,50.59s-.08,0-.12,0c.01.01.03.03.04.04.03-.01.05-.03.08-.04Z"/><path class="emoji-3-18" d="m39.35,19.05s.07-.03.11-.05c-.04.02-.07.03-.11.05Z"/><path class="emoji-3-19" d="m44.42,16.99s.05-.05.07-.07c-.02.02-.05.05-.07.07Z"/><path class="emoji-3-19" d="m43.77,17.15s.05-.03.07-.04c-.02.01-.05.03-.07.04Z"/><path class="emoji-3-18" d="m41.36,18.02s.05-.02.08-.03c-.03,0-.05.02-.08.03Z"/><path class="emoji-3-18" d="m38.46,19.58s.05-.04.08-.06c-.03.02-.05.04-.08.06Z"/><path class="emoji-3-18" d="m37.13,20.5s.05-.04.07-.07c-.02.02-.05.04-.07.07Z"/><path class="emoji-3-18" d="m36.21,21.23s.05-.04.07-.05c-.02.02-.05.04-.07.05Z"/><path class="emoji-3-18" d="m35.94,21.45s.05-.04.08-.06c-.03.02-.05.04-.08.06Z"/><path class="emoji-3-18" d="m35.64,21.72s.05-.04.07-.06c-.02.02-.05.04-.07.06Z"/><path class="emoji-3-18" d="m33.94,23.44s.04-.05.05-.07c-.02.02-.04.05-.05.07Z"/><path class="emoji-3-18" d="m33.67,23.75s.04-.05.05-.07c-.02.02-.04.05-.05.07Z"/><path class="emoji-3-18" d="m31.04,27.6s.02-.06.04-.09c-.01.03-.02.06-.04.09Z"/><path class="emoji-3-18" d="m29.8,30.31s.04-.05.07-.08c-.02.03-.04.05-.07.08Z"/><path class="emoji-3-19" d="m28.65,40.2s-.03-.05-.04-.07c.01.02.03.05.04.07Z"/><path class="emoji-3-5" d="m28.92,41.96s-.02-.05-.04-.07c.01.02.02.05.04.07Z"/><path class="emoji-3-18" d="m35.91,21.49s.02-.02.03-.04c-.01.01-.02.02-.03.04Z"/><path class="emoji-3-18" d="m36.18,21.26s.02-.02.03-.03c0,.01-.02.02-.03.03Z"/><path class="emoji-3-18" d="m37.09,20.54s.02-.02.03-.04c-.01.01-.02.02-.03.04Z"/><path class="emoji-3-5" d="m46.67,16.49s.03-.02.04-.03c-.01.01-.03.02-.04.03Z"/><path class="emoji-3-5" d="m46.94,16.45s.03-.02.04-.03c-.01.01-.03.02-.04.03Z"/><path class="emoji-3-19" d="m47.55,16.37s.03-.02.04-.03c-.01.01-.03.02-.04.03Z"/><path class="emoji-3-18" d="m36.41,21.07s.02-.02.03-.03c0,.01-.02.02-.03.03Z"/><path class="emoji-3-18" d="m29.92,30.01s.02-.02.03-.03c0,.01-.02.02-.03.03Z"/><path class="emoji-3-18" d="m30.15,29.43s.02-.02.03-.04c0,.01-.02.02-.03.04Z"/><path class="emoji-3-18" d="m30.29,29.17s0-.03,0-.04c0,.01,0,.03,0,.04Z"/><path class="emoji-3-18" d="m31.07,27.51s.02,0,.03-.01c-.01,0-.02,0-.03-.01,0,0,0,.02,0,.03Z"/><path class="emoji-3-17" d="m37.55,36.16c.08-.05.17-.09.24-.16.54-.55,1.14-1.02,1.83-1.35.53-.25,1.07-.43,1.66-.48.44-.03.89-.1,1.33-.07.64.04,1.28.12,1.86.44.41.22.84.41,1.22.66.31.2.58.46.84.73.26.26.55.21.78.01.27-.22.33-.47.19-.79-.14-.3-.23-.62-.36-.92-.11-.24-.26-.47-.39-.7-.09-.18-.16-.38-.26-.55-.13-.21-.27-.42-.42-.62-.17-.23-.34-.45-.52-.67-.07-.09-.18-.15-.22-.24-.17-.38-.54-.53-.83-.76-.3-.24-.68-.37-1-.58-.25-.17-.53-.14-.8-.21-.46-.13-.9-.02-1.35.06-.41.07-.76.28-1.11.48-.23.13-.46.28-.69.42-.04.03-.04.12-.08.16-.21.19-.43.37-.63.57-.07.07-.12.17-.17.25-.15.22-.28.45-.45.66-.44.54-.67,1.18-.98,1.79-.16.32-.3.64-.44.96-.1.24-.02.44.18.62.15.14.29.27.54.28Z"/><path class="emoji-3-6" d="m62.35,36.1c.38.1.62-.1.8-.38.07-.11.09-.28.06-.41-.04-.2-.15-.39-.22-.59-.03-.08-.03-.18-.06-.25-.07-.15-.16-.3-.24-.45-.13-.27-.24-.55-.38-.82-.08-.16-.2-.3-.31-.45-.04-.05-.08-.1-.11-.15-.24-.35-.48-.72-.74-1.06-.11-.14-.27-.24-.39-.38-.37-.41-.84-.68-1.31-.94-.63-.34-1.32-.46-2.03-.34-.29.05-.59.12-.86.23-.74.29-1.33.79-1.86,1.38-.72.79-1.25,1.7-1.7,2.67-.13.29-.22.61-.38.88-.11.19-.09.37-.13.56,0,.03,0,.07,0,.09.11.24.53.46.78.4.08-.02.15-.08.21-.15.5-.54,1.08-.96,1.73-1.29.53-.26,1.09-.44,1.68-.5.45-.04.91-.09,1.36-.07.41.02.83.02,1.22.21.22.1.48.12.7.21.78.32,1.46.79,2.05,1.39.05.05.09.12.13.18Z"/><path class="emoji-3-15" d="m41.28,39.17c-.06.39-.13.77-.19,1.16-.01.09-.02.17-.04.26,5.96,0,11.91,0,17.87,0-.06-.37-.11-.75-.17-1.12-.02-.1-.04-.2-.05-.3-.03,0-.06,0-.09-.01-.08,0-.17,0-.25,0-5.58,0-11.16,0-16.75,0-.08,0-.17,0-.25,0-.03,0-.06,0-.09.01Z"/><path class="emoji-3-14" d="m37.81,37.49c.24-.05.49-.09.73-.14-.02-.03-.05-.08-.07-.08-.24.02-.48.03-.66.22Z"/><path class="emoji-3-4" d="m41.28,39.17s.06,0,.09-.01c0-.03,0-.07-.01-.1-.02.04-.05.08-.07.11Z"/><path class="emoji-3-20" d="m60.65,37.23c.06.01.12.02.19.03-.06-.01-.12-.02-.19-.03Z"/><path class="emoji-3-10" d="m62.44,37.58s.1.02.15.03c-.05-.01-.1-.02-.15-.03Z"/><path class="emoji-3-20" d="m41.43,37.72s0,.1,0,.15c0-.05,0-.1,0-.15Z"/><path class="emoji-3-20" d="m62.29,37.54s.08.02.11.03c-.04-.01-.08-.02-.11-.03Z"/><path class="emoji-3-20" d="m61.76,37.42s.08.02.11.03c-.04-.01-.08-.02-.11-.03Z"/><path class="emoji-3-20" d="m61.57,37.39s.08.02.11.03c-.04,0-.08-.02-.11-.03Z"/><path class="emoji-3-20" d="m61.37,37.35s.08.02.11.03c-.04,0-.08-.02-.11-.03Z"/><path class="emoji-3-20" d="m61.15,37.31s.08.02.11.03c-.04,0-.08-.02-.11-.03Z"/><path class="emoji-3-20" d="m60.92,37.27s.08.02.11.03c-.04,0-.08-.02-.11-.03Z"/><path class="emoji-3-10" d="m40.03,37.15s.07-.02.11-.03c-.04,0-.07.02-.11.03Z"/><path class="emoji-3-4" d="m58.61,39.16s.06,0,.09.01c-.02-.02-.03-.05-.05-.07-.01.02-.03.04-.04.06Z"/><path class="emoji-3-20" d="m62.14,37.5s.07.02.11.03c-.04,0-.07-.02-.11-.03Z"/><path class="emoji-3-20" d="m61.95,37.46s.07.02.11.03c-.04,0-.07-.02-.11-.03Z"/><path class="emoji-3-20" d="m41.47,37.65s-.02.03-.03.04c.01-.01.02-.03.03-.04Z"/><path class="emoji-3-18" d="m30.47,28.7s.01.01.03.02c-.01-.01-.02-.02-.02-.03,0,0,0,0,0,0Z"/><path class="emoji-3-15" d="m57.38,43.45c.76,0,1.51,0,2.27,0,0,.02.02.03.03.05.51,1.59,1.2,3.08,2.19,4.42-.02.02-.03.04-.05.06-1.32,1.91-3.07,3.29-5.18,4.21-1.27.56-2.6.9-3.96,1.1-.47.07-.94.15-1.41.15-.83,0-1.65.1-2.48.01-.29-.03-.59-.04-.88-.08-.42-.06-.84-.07-1.25-.18-.57-.16-1.15-.26-1.72-.42-.48-.14-.95-.31-1.41-.5-1.42-.59-2.7-1.4-3.82-2.47-.59-.57-1.12-1.2-1.59-1.87.54-.74,1.03-1.53,1.39-2.37.3-.69.55-1.4.82-2.1,5.68,0,11.36,0,17.04,0Zm-7.65,5.92s-.05-.02-.08-.04c-.15-.06-.31-.13-.46-.19l-.19-.15h0c-.05-.06-.1-.13-.15-.19l-.11-.19c-.03-.09-.05-.18-.08-.27,0-.15,0-.31,0-.46.01-.04.02-.08.04-.12,0-.03,0-.05,0-.08.04-.08.07-.15.11-.23,0-.02,0-.05,0-.07.17-.09.2-.25.23-.42h0c.04-.06.08-.13.11-.19.03-.04.05-.08.08-.11.01-.03.03-.05.04-.08.03-.04.05-.08.08-.11.04-.03.11-.06.12-.1.05-.18.07-.37.11-.55,0-.13,0-.25,0-.38.01-.03.04-.06.03-.08-.07-.31-.21-.58-.53-.7-.04-.02-.1,0-.15.02-.04,0-.08,0-.11,0-.03-.02-.05-.06-.09-.07-.01,0-.04.04-.07.07-.01,0-.03,0-.04,0-.04,0-.08,0-.11,0-.04.01-.08.02-.11.04-.03,0-.05,0-.08,0-.17-.06-.46.04-.53.19-.1.05-.2.1-.31.15-.04.01-.08.03-.11.04h0c-.2.05-.36.15-.46.34h0c-.22.04-.5.31-.53.54,0,.01,0,.02,0,.04-.15.03-.37.34-.38.54h0s-.09.03-.09.05c-.1.31-.19.62-.28.94,0,.01.02.03.03.04,0,.05,0,.1,0,.15-.04.04-.09.08-.1.13,0,.03.07.07.1.1,0,.03,0,.05,0,.08-.15.11-.15.18,0,.27,0,.06,0,.13,0,.19-.15.09-.03.14.04.19,0,.01,0,.03,0,.04,0,.1-.02.2,0,.28.08.26.18.52.28.78.02.05.09.08.13.12h0c0,.14.02.27.19.31.05.04.11.08.16.12-.56.21-1.11.42-1.67.63-.09.04-.18.09-.32.16.44.15.83.3,1.23.42.97.3,1.96.5,2.97.58.3.02.6.04.9.07.01,0,.03,0,.04,0h.22c.1,0,.21,0,.31,0,.22,0,.44,0,.65-.03.14-.02.27-.06.41,0,.07.03.17-.04.26-.06.03,0,.07-.01.1-.01.07,0,.15,0,.22,0,.07,0,.14-.02.22-.03.11,0,.21-.02.31-.03.13-.01.26-.03.39-.05.02,0,.04-.02.06-.02.04,0,.09,0,.13-.01l.06-.02s.09-.01.13-.02c.02,0,.04-.02.06-.02.15-.03.29-.06.44-.09.02,0,.04-.02.06-.03.64-.13,1.24-.36,1.86-.63-.66-.36-1.34-.59-2.03-.8.34-.53.6-1.09.7-1.73.14-.94,0-1.82-.58-2.59-.5-.67-1.15-1.13-2-1.31-.66-.14-1.1.38-1.13.92,0,.12,0,.24,0,.36-.06.17,0,.36.15.46.04.06.08.13.11.19.04.06.08.13.12.19.05.08.1.15.15.23-.08.11-.01.13.08.15l.11.23s.02.05.04.08c.03.09.05.18.08.27.01.04.02.08.04.12,0,.15,0,.31,0,.46-.02.08-.05.15-.07.23-.04.08-.08.15-.11.23l-.19.19h0c-.04.05-.08.1-.12.15-.15.06-.31.13-.46.19-.04.01-.08.02-.11.04-.15,0-.31,0-.46,0-.03,0-.05,0-.08,0h0Z"/><path class="emoji-3-12" d="m34.37,50.52s-.08.02-.11.03c.04,0,.08-.02.11-.03Z"/><path class="emoji-3-19" d="m33.15,50.63s-.08-.02-.11-.03c.04,0,.08.02.11.03Z"/><path class="emoji-3-12" d="m34.53,50.49s-.05.02-.07.03c.02,0,.05-.02.07-.03Z"/><path class="emoji-3-12" d="m34.68,50.45s-.05.02-.07.03l.07-.03Z"/><path class="emoji-3-2" d="m40.34,43.45c5.68,0,11.36,0,17.04,0,.76,0,1.51,0,2.27,0-.21-.82-.42-1.63-.63-2.45,0,0-.01-.02-.01-.03,0-.05-.02-.11-.03-.16,0,0-.01-.02-.01-.03,0-.05-.02-.11-.02-.16,0,0-.01-.01-.01-.01,0,0,0-.01,0-.02-5.96,0-11.91,0-17.87,0-.1.43-.18.86-.29,1.29-.13.53-.29,1.05-.43,1.57Z"/><polygon class="emoji-3-13" points="58.93 40.6 58.94 40.62 58.94 40.61 58.93 40.6"/><path class="emoji-3-13" d="m59.01,40.97s0,.02.01.03c0-.01,0-.02-.01-.03Z"/><path class="emoji-3-13" d="m58.97,40.78s0,.02.01.03c0-.01,0-.02-.01-.03Z"/><path class="emoji-3-3" d="m50.83,49.14c-.15.06-.31.13-.46.19-.04.01-.08.02-.11.04-.15,0-.31,0-.46,0,0,.02-.02.04-.03.06-.02-.02-.03-.04-.05-.06,0,0,0,0,0,0-.03-.01-.05-.02-.08-.04-.15-.06-.31-.13-.46-.19-.03,0-.05,0-.08,0-.04-.04-.08-.08-.12-.11,0-.01,0-.03,0-.04,0,0,0,0,0,0-.05-.06-.1-.13-.15-.19-.04-.06-.08-.13-.11-.19-.03-.09-.05-.18-.08-.27,0-.15,0-.31,0-.46.01-.04.02-.08.04-.12,0-.03,0-.05,0-.08.04-.08.07-.15.11-.23,0-.02,0-.05,0-.07.08-.14.15-.28.23-.42,0,0,0,0,0,0,.04-.06.08-.13.11-.19.03-.04.05-.08.08-.11.01-.03.03-.05.04-.08.03-.04.05-.08.08-.11.08-.22.15-.43.23-.65,0-.13,0-.25,0-.38-.06-.14-.13-.28-.19-.42-.04-.03-.08-.05-.11-.08h0s-.05-.08-.08-.11l-.27-.15s-.08,0-.11,0c-.05,0-.1,0-.15,0-.01,0-.03,0-.04,0-.04.01-.08.02-.12.04-.04,0-.08,0-.11,0-.03,0-.05,0-.08,0-.18.06-.36.13-.53.19-.1.05-.2.1-.31.15-.04.01-.08.03-.11.04,0,0,0,0,0,0-.15.11-.31.23-.46.34,0,0,0,0,0,0,0,.01,0,.03,0,.04,0,.13-.06.19-.19.19l-.15.15c0,.11-.04.16-.15.15-.01,0-.03,0-.04,0,0,.01,0,.02,0,.04-.13.18-.25.36-.38.54,0,0,0,0,0,0-.1.34-.2.69-.31,1.03-.02.06.11.15-.04.19,0,.06,0,.13,0,.19,0,.03,0,.05,0,.08,0,.09,0,.18,0,.27,0,.06,0,.13,0,.19.01.06.02.13.04.19,0,.01,0,.03,0,.04.14.39.28.79.42,1.18,0,0,0,0,0,0,.06.1.13.2.19.31.05.04.11.08.16.12.26,0,.48-.16.74-.17.47-.02.94-.14,1.41-.17.67-.05,1.34-.05,2-.07.02,0,.05,0,.07,0,.3.04.6.1.9.13.21.02.42.01.63.02.01,0,.02,0,.04,0,.36.07.71.15,1.07.22.02,0,.04.02.06.03.03,0,.06,0,.09,0,.34-.53.6-1.09.7-1.73.14-.94,0-1.82-.58-2.59-.5-.67-1.15-1.13-2-1.31-.66-.14-1.1.38-1.13.92,0,.12,0,.24,0,.36.05.15.1.31.15.46.04.06.08.13.11.19.04.06.08.13.12.19.05.08.1.15.15.23.03.05.05.1.08.15.04.08.08.15.11.23.01.03.02.05.04.08.03.09.05.18.08.27.01.04.02.08.04.12,0,.15,0,.31,0,.46-.02.08-.05.15-.07.23-.04.08-.08.15-.11.23-.06.06-.13.13-.19.19,0,0,0,0,0,0-.04.05-.08.1-.12.15Z"/><path class="emoji-3-16" d="m52.21,50.06c-.21,0-.42,0-.63-.02-.3-.03-.6-.09-.9-.13-.02,0-.05,0-.07,0-.67.02-1.34.03-2,.07-.47.03-.94.15-1.41.17-.27.01-.48.18-.74.17-.56.21-1.11.42-1.67.63-.09.04-.18.09-.32.16.44.15.83.3,1.23.42.97.3,1.96.5,2.97.58.3.02.6.04.9.07.01,0,.03,0,.04,0,.07,0,.15,0,.22,0,.1,0,.21,0,.31,0,.22,0,.44,0,.65-.03.14-.02.27-.06.41,0,.07.03.17-.04.26-.06.03,0,.07-.01.1-.01.07,0,.15,0,.22,0,.07,0,.14-.02.22-.03.11,0,.21-.02.31-.03.13-.01.26-.03.39-.05.02,0,.04-.02.06-.02.04,0,.09,0,.13-.01.02,0,.04-.02.06-.02.04,0,.09-.01.13-.02.02,0,.04-.02.06-.02.15-.03.29-.06.44-.09.02,0,.04-.02.06-.03.64-.13,1.24-.36,1.86-.63-.66-.36-1.34-.59-2.03-.8-.03,0-.06,0-.09,0-.02,0-.04-.02-.06-.03-.36-.07-.71-.15-1.07-.22-.01,0-.02,0-.04,0Z"/><path class="emoji-3-1" d="m46.1,49.9c-.14-.39-.28-.79-.42-1.18,0,.1-.02.2,0,.28.08.26.18.52.28.78.02.05.09.08.13.12Z"/><path class="emoji-3-1" d="m49.38,45.02c.06.14.13.28.19.42.01-.03.04-.06.03-.08-.07-.31-.21-.58-.53-.7-.04-.02-.1,0-.15.02.09.05.18.1.27.15.03.04.05.08.08.11,0,0,0,0,0,0,.04.03.08.05.11.08Z"/><path class="emoji-3-1" d="m45.68,47.57c.1-.34.2-.69.31-1.03-.03.02-.09.03-.09.05-.1.31-.19.62-.28.94,0,.01.02.03.03.04.01,0,.02,0,.04,0Z"/><path class="emoji-3-1" d="m46.37,45.97s.03,0,.04,0c.05-.05.1-.1.15-.15.05-.05.1-.1.15-.15.06-.06.13-.13.19-.19,0-.01,0-.03,0-.04-.22.04-.5.31-.53.54Z"/><path class="emoji-3-1" d="m49.57,45.82c-.08.22-.15.43-.23.65.04-.03.11-.06.12-.1.05-.18.07-.37.11-.55Z"/><path class="emoji-3-1" d="m47.78,44.9c.18-.06.36-.13.53-.19-.17-.06-.46.04-.53.19Z"/><path class="emoji-3-1" d="m45.98,46.54c.13-.18.25-.36.38-.54-.15.03-.37.34-.38.54Z"/><path class="emoji-3-1" d="m46.9,45.44c.15-.11.31-.23.46-.34-.2.05-.36.15-.46.34Z"/><path class="emoji-3-1" d="m50.61,46.43c-.05-.15-.1-.31-.15-.46-.06.17,0,.36.15.46Z"/><path class="emoji-3-1" d="m49.04,46.96c-.08.14-.15.28-.23.42.17-.09.2-.25.23-.42Z"/><path class="emoji-3-1" d="m45.64,48.3c0-.09,0-.18,0-.27-.15.11-.15.18,0,.27Z"/><path class="emoji-3-1" d="m46.29,50.21c-.06-.1-.13-.2-.19-.31,0,.14.02.27.19.31Z"/><path class="emoji-3-1" d="m45.64,47.96c0-.06,0-.13,0-.19,0-.01,0-.03,0-.04-.04.04-.09.08-.1.13,0,.03.07.07.1.1Z"/><path class="emoji-3-1" d="m50.95,48.99c.06-.06.13-.13.19-.19-.06.06-.13.13-.19.19Z"/><path class="emoji-3-1" d="m48.66,48.34c.03.09.05.18.08.27-.03-.09-.05-.18-.08-.27Z"/><path class="emoji-3-1" d="m51.25,48.57c.02-.08.05-.15.07-.23-.02.08-.05.15-.07.23Z"/><path class="emoji-3-1" d="m45.68,48.68c-.01-.06-.02-.13-.04-.19-.15.09-.03.14.04.19Z"/><path class="emoji-3-1" d="m48.85,48.8c.05.06.1.13.15.19-.05-.06-.1-.13-.15-.19Z"/><path class="emoji-3-1" d="m49,48.99s0,.03,0,.04c.04.04.08.08.12.11.03,0,.05,0,.08,0-.06-.05-.13-.1-.19-.15Z"/><path class="emoji-3-1" d="m48.81,47.46c-.04.08-.07.15-.11.23.04-.08.07-.15.11-.23Z"/><path class="emoji-3-1" d="m49.15,46.77c-.04.06-.08.13-.11.19.04-.06.08-.13.11-.19Z"/><path class="emoji-3-1" d="m50.83,46.81c-.04-.06-.08-.13-.12-.19.04.06.08.13.12.19Z"/><path class="emoji-3-1" d="m51.06,47.19c-.03-.05-.05-.1-.08-.15-.08.11-.01.13.08.15Z"/><path class="emoji-3-1" d="m48.66,44.67c.05,0,.1,0,.15,0-.03-.02-.05-.06-.09-.07-.01,0-.04.04-.07.07Z"/><path class="emoji-3-3" d="m45.64,47.73s0,.03,0,.04c.15-.04.02-.13.04-.19-.01,0-.02,0-.04,0,0,.05,0,.1,0,.15Z"/><path class="emoji-3-1" d="m50.83,49.14c.04-.05.08-.1.12-.15-.04.05-.08.1-.12.15Z"/><path class="emoji-3-7" d="m50.15,52.19c-.1,0-.21,0-.31,0,.1,0,.21,0,.31,0Z"/><path class="emoji-3-1" d="m47.36,45.09s.08-.03.11-.04c-.04.01-.08.03-.11.04Z"/><path class="emoji-3-1" d="m51.33,47.88s-.02-.08-.04-.12c.01.04.02.08.04.12Z"/><path class="emoji-3-1" d="m48.69,47.76s-.02.08-.04.12c.01-.04.02-.08.04-.12Z"/><path class="emoji-3-3" d="m48.5,44.71s.08-.02.12-.04c-.04,0-.08,0-.11,0,0,.01,0,.03,0,.04Z"/><path class="emoji-3-1" d="m50.26,49.37s.08-.02.11-.04c-.04.01-.08.02-.11.04Z"/><path class="emoji-3-1" d="m48.5,44.71s0-.03,0-.04c-.04.01-.08.02-.11.04.04,0,.08,0,.11,0Z"/><path class="emoji-3-1" d="m49.27,46.58s-.03.05-.04.08c.01-.03.03-.05.04-.08Z"/><path class="emoji-3-1" d="m51.22,47.5s-.02-.05-.04-.08c.01.03.02.05.04.08Z"/><path class="emoji-3-1" d="m49.65,49.33s.05.02.08.04c-.03-.01-.05-.02-.08-.04Z"/><path class="emoji-3-3" d="m49.73,49.37s.03.04.05.06c0-.02.02-.04.03-.06-.03,0-.05,0-.08,0Z"/><path class="emoji-3-11" d="m53.64,51.74s-.04.02-.06.03c.02,0,.04-.02.06-.03Z"/><path class="emoji-3-11" d="m53.14,51.86s-.04.02-.06.02c.02,0,.04-.02.06-.02Z"/><path class="emoji-3-11" d="m52.96,51.9s-.04.02-.06.02c.02,0,.04-.02.06-.02Z"/><path class="emoji-3-11" d="m52.76,51.93s-.04.02-.06.02c.02,0,.04-.02.06-.02Z"/><path class="emoji-3-7" d="m49.61,52.18s-.03,0-.04,0c.01,0,.03,0,.04,0Z"/><path class="emoji-3-3" d="m46.9,45.47c-.06.06-.13.13-.19.19.13,0,.19-.06.19-.19Z"/><path class="emoji-3-3" d="m46.56,45.82c-.05.05-.1.1-.15.15.11,0,.16-.04.15-.15Z"/><path class="emoji-3-3" d="m49.12,49.14s-.08-.08-.12-.11c.04.04.08.08.12.11Z"/><path class="emoji-3-3" d="m49.38,45.02s-.08-.05-.11-.08c.04.03.08.05.11.08Z"/><path class="emoji-3-3" d="m49.27,44.94s-.05-.08-.08-.11c.03.04.05.08.08.11Z"/><path class="emoji-3-11" d="m50.61,49.91s.05,0,.07,0c-.02,0-.05,0-.07,0Z"/><path class="emoji-3-11" d="m53.32,50.29s.04.02.06.03c-.02,0-.04-.02-.06-.03Z"/><path class="emoji-3-11" d="m52.21,50.06s.02,0,.04,0c-.01,0-.02,0-.04,0Z"/></g></g></g></svg>