<svg id="emoji_7" xmlns="http://www.w3.org/2000/svg" viewBox="0 0 129.69 74.36"><defs><style>.emoji-7-1{fill:#a71b17;}.emoji-7-2{fill:#7a1710;}.emoji-7-3{fill:#fff;}.emoji-7-4{fill:#cc6364;}.emoji-7-5{fill:#fee5a5;}.emoji-7-6{fill:#674711;}.emoji-7-7{fill:#931a14;}.emoji-7-8{fill:#fecc4e;}.emoji-7-9{fill:#fac84c;}.emoji-7-10{fill:#f09021;}.emoji-7-11{fill:#fdf5f5;}.emoji-7-12{fill:#f6d1d1;}</style></defs><g id="Vrstva_1-2"><g><path class="emoji-7-3" d="m28.34,37.18c0,1.04.06,2.07.17,3.09,2.14,19.09,23.94,34.09,50.51,34.09,27.99,0,50.68-16.65,50.68-37.18,0-20.53-22.69-37.18-50.68-37.18S28.34,16.65,28.34,37.18Z"/><path class="emoji-7-3" d="m31.06,36.09c-.3,1.77-28.14,23.86-31.06,37.01,0,0,17.96-16.86,40.81-16.95s-9.75-20.06-9.75-20.06Z"/></g></g><g id="Vrstva_5"><path class="emoji-7-8" d="m63.21,46.46c-.83-1.29-1.44-2.68-1.95-4.11-.29-.83-.57-1.66-.77-2.51-.19-.76-.31-1.54-.39-2.32-.09-.87-.16-1.75-.14-2.62.03-1.42.17-2.82.47-4.22.4-1.9,1.03-3.7,1.9-5.43.75-1.48,1.64-2.87,2.75-4.11.53-.6,1.05-1.22,1.64-1.77,1.23-1.17,2.58-2.19,4.05-3.04,1.68-.98,3.46-1.73,5.34-2.22.9-.24,1.83-.42,2.75-.54.96-.13,1.93-.22,2.89-.21.97.01,1.95.18,2.92.26,1.35.11,2.64.47,3.91.9,1.03.35,2.02.82,3,1.29,1.34.64,2.56,1.51,3.73,2.42.5.39.98.81,1.43,1.26,1.19,1.21,2.31,2.5,3.22,3.95,1.16,1.85,2.07,3.82,2.61,5.94.21.83.41,1.66.56,2.49.1.53.13,1.07.16,1.6.04.65.11,1.3.06,1.94-.07,1.09-.21,2.18-.34,3.27-.18,1.54-.68,3-1.23,4.44-.48,1.25-1.12,2.42-1.82,3.55-.83,1.33-1.8,2.55-2.91,3.65-1.47,1.47-3.12,2.71-4.95,3.73-1.48.82-3.04,1.46-4.67,1.91-1.27.35-2.55.69-3.88.7-1.27,0-2.54,0-3.81-.08-.8-.05-1.6-.23-2.4-.36.2-.59.29-1.19-.08-1.72-.2-.28-.5-.48-.77-.74.11-.08.25-.17.37-.28.77-.7,1.03-1.53.69-2.53.7,0,1.4.02,2.09-.02.76-.04,1.22-.44,1.18-1.19-.02-.3,0-.6,0-.9.03-.02.05-.05.09-.06.97-.23,1.95-.43,2.91-.68.45-.12.85-.35,1.09-.78.42-.73.34-1.45-.1-2.12-.46-.7-1.2-.74-1.95-.61-.67.11-1.34.27-2.01.41,0-1.55,0-3.11-.01-4.66,0-.05.03-.09.04-.14.23.02.45.04.68.06.04,0,.08.02.12.02.22.04.45.08.67.12.02.01.04.02.06.02.17.04.35.08.52.13.02.01.03.02.05.02.05.01.11.03.16.04.02,0,.04.02.07.03.05.01.1.02.15.03.02.01.05.03.07.04.12.04.25.09.37.13.01,0,.03.02.05.02.32.13.66.23.95.41.59.35,1.15.74,1.72,1.12.37.25.73.48,1.22.28.7-.29.91-1.09.47-1.82-.02-.02-.04-.04-.06-.06-1.13-.98-2.42-1.68-3.8-2.22-.02-.01-.04-.02-.06-.02-.2-.07-.4-.13-.6-.2-.02,0-.03-.02-.05-.02-.15-.04-.3-.08-.45-.13-.02-.01-.04-.02-.06-.02-.08-.02-.16-.04-.23-.05-.02-.01-.04-.02-.06-.02-.21-.03-.43-.03-.63-.08-.42-.1-.83-.23-1.25-.35h-.02c-.03-.06-.06-.11-.1-.17,0-1.75-.04-3.49,0-5.24.02-.96-.6-1.33-1.4-1.37-1.09-.06-2.19-.03-3.28-.04.4-.32.8-.64,1.2-.95.02-.01.03-.03.04-.04.04-.06.08-.12.12-.18,0-.01.02-.02.03-.04.08-.18.15-.36.23-.53.02-.03.04-.05.06-.08.01-.03.03-.05.04-.08.02-.02.03-.04.03-.06.07-.38.25-.75.16-1.16.21-.12.21-.24,0-.36,0-.21-.01-.43-.02-.64,0-.02-.02-.05-.03-.07l-.11-.45s-.01-.04-.03-.06c-.02-.03-.03-.05-.05-.08-.02-.02-.04-.05-.06-.07l-.37-.75s-.02-.03-.04-.04c-.64-.83-1.49-1.14-2.51-1.02-.02,0-.03,0-.05.01-.92.3-1.49.96-1.88,1.81-.01.02-.02.03-.03.06-.04.13-.08.25-.12.38-.01.02-.02.04-.02.06-.03.19-.06.39-.09.58-.02.03-.03.05-.05.08.05.48.1.96.14,1.44,0,.02,0,.04.02.06.04.13.08.25.12.38,0,.02.01.05.03.06.16.28.32.56.47.83,0,.02.02.03.04.04.38.29.76.59,1.13.88-.11,0-.22.02-.32.02-1.63.01-3.26.02-4.89.03-.59,0-1.07.2-1.24.83-.05.2-.02.41-.02.62,0,2.1,0,4.2,0,6.31-.02,0-.04,0-.06.01-.36-.38-.81-.61-1.32-.7-.7-.12-1.65.04-1.75,1.17-.03.35.05.72.15,1.06.31,1.04.43,2.1.24,3.17-.25,1.35-1.07,2.3-2.17,3.06Zm28.45-20.67l-.03-.02s-.05-.04-.07-.05c-.03-.02-.06-.04-.1-.06l-.02-.02c-.25-.13-.51-.27-.77-.41-.4.08-.89.09-1.29.28-.42.2-.76.57-1.13.86-.01.01-.03.02-.04.04-.16.3-.32.61-.48.91-.01.02-.02.04-.03.06-.04.15-.08.3-.11.45,0,.02-.02.05-.03.07-.03.34-.05.68-.08,1.01-.02.21-.04.42-.07.62l.19.16.1.36s.01.05.03.06c.11.23.22.46.33.69,0,.01.02.02.03.04l.12.18s.02.03.04.04c.38.47.85.81,1.43,1.01.02,0,.04.01.05.02.04,0,.08-.01.11,0,.72.33,1.34-.08,1.84-.42.44-.3.67-.92.99-1.41.02-.02.03-.04.03-.06.04-.13.08-.25.12-.38.01-.02.02-.04.02-.06.01-.07.02-.15.03-.22,0-.04.01-.07.02-.11,0-.48,0-.96,0-1.43,0-.04-.01-.07-.02-.11-.01-.07-.02-.15-.03-.22,0-.02,0-.04-.02-.06l-.12-.38s-.01-.04-.03-.06c-.22-.54-.57-.98-1-1.36-.01-.01-.02-.02-.03-.03Zm-20.47-6.52c.24.04.5.04.73.12.72.25,1.46.48,2.14.82.68.33,1.3.78,1.95,1.18.03.02.05.05.08.07.23.23.45.49.71.69.62.49,1.07,1.12,1.49,1.78.02.06.04.13.05.19.01.12.03.23.04.31.21.06.39.12.57.17.41.11.84.07,1.12-.21.42-.42.58-.92.23-1.46-.38-.58-.76-1.17-1.22-1.67-.58-.62-1.21-1.2-1.88-1.72-.61-.48-1.3-.87-1.95-1.3-.02-.02-.05-.03-.07-.05-.17-.08-.34-.17-.51-.25-.02-.01-.04-.03-.06-.04l-2.48-.83s-.05-.02-.07-.04l-1.08-.07s-.05.03-.07.04c-.1.06-.2.12-.3.17-.02.02-.04.04-.07.06-.08.13-.16.26-.24.39-.01.05-.02.1-.04.15-.04.58.04,1.11.65,1.4,0,.01.02.02.02.04.04.01.08.03.13.04.05.01.09.02.14.03Zm24.12,3.41s.05,0,.07-.02c.2-.07.39-.13.59-.2.03-.02.05-.05.08-.07.14-.29.27-.59.41-.88.01-.01.02-.03,0-.05-.2-.85-.58-1.17-1.4-1.1-.4.03-.8.08-1.2.15-.61.11-1.24.17-1.81.38-.58.21-1.21.19-1.75.56-.7.47-1.46.85-2.18,1.29-.44.26-.82.62-1.28.84-.25.12-.43.24-.55.48-.09.17-.19.35-.3.51-.12.17-.26.32-.38.48-.25.37-.31,1.03-.09,1.25.58.55.89.68,1.56.35.19-.09.33-.29.48-.45,1.12-1.26,2.48-2.16,4.06-2.75,1.2-.45,2.42-.7,3.69-.76Z"/><path class="emoji-7-6" d="m95.98,22.5c-.2.07-.39.13-.59.2-.02,0-.04.01-.07.02-1.27.05-2.5.3-3.69.76-1.58.6-2.93,1.5-4.06,2.75-.15.16-.29.36-.48.45-.67.33-.98.2-1.56-.35-.22-.21-.17-.87.09-1.25.12-.17.26-.32.38-.48.11-.16.21-.33.3-.51.12-.24.29-.36.55-.48.46-.22.84-.57,1.28-.84.72-.44,1.49-.81,2.18-1.29.54-.37,1.18-.35,1.75-.56.58-.21,1.21-.27,1.81-.38.4-.07.8-.11,1.2-.15.81-.07,1.2.25,1.4,1.1-.01.01-.02.03,0,.05-.14.29-.27.59-.41.88-.03.02-.05.05-.08.07Z"/><path class="emoji-7-6" d="m78.29,23.94c-.41-.66-.86-1.29-1.49-1.78-.26-.2-.47-.46-.71-.69-.03-.03-.05-.06-.08-.07-.65-.4-1.27-.85-1.95-1.18-.68-.34-1.42-.57-2.14-.82-.23-.08-.48-.09-.73-.12-.05-.01-.09-.02-.14-.03-.04-.01-.08-.03-.13-.04,0,0,0-.03,0-.03h-.03c-.61-.29-.69-.82-.65-1.41.01-.05.02-.1.04-.15.08-.13.16-.26.24-.39.02-.02.04-.04.07-.06.1-.06.2-.12.3-.17.02-.01.05-.03.07-.04.36.02.72.05,1.08.07.02.01.05.02.07.04.83.28,1.65.55,2.48.83.02.01.04.03.06.04.17.08.34.17.51.25.02.02.05.03.07.05.65.43,1.34.82,1.95,1.3.67.52,1.3,1.1,1.88,1.72.47.5.85,1.09,1.22,1.67.35.54.19,1.04-.23,1.46-.28.29-.71.32-1.12.21-.18-.05-.36-.11-.57-.17,0-.08-.02-.19-.04-.31-.02-.06-.04-.13-.05-.19Z"/><path class="emoji-7-3" d="m77.56,50.96c-.19-.23-.38-.45-.57-.68.12-.02.23-.05.35-.05.68,0,1.36,0,2.04,0,.12,0,.24-.05.36-.08.05-.04.1-.09.15-.13.07-.32.15-.64.22-.96.24-.07.48-.14.72-.21,0,.3-.01.6,0,.9.04.75-.42,1.15-1.18,1.19-.7.03-1.4.01-2.09.02Z"/><path class="emoji-7-9" d="m78.08,27.76c0-.12,0-.24,0-.36.21.12.21.24,0,.36Z"/><path class="emoji-7-9" d="m87.43,29.55c.06.05.13.11.19.16-.06-.05-.13-.11-.19-.16Z"/><path class="emoji-7-5" d="m80.96,37.69c-.03-.05-.06-.11-.1-.16.03.05.06.11.1.16Z"/><path class="emoji-7-9" d="m78.29,23.94c.02.06.04.13.05.19-.02-.06-.04-.13-.05-.19Z"/><path class="emoji-7-9" d="m70.29,17.62c-.01.05-.02.1-.04.15.01-.05.02-.1.04-.15Z"/><path class="emoji-7-5" d="m68.11,38.69c0,.06,0,.12,0,.17-.02-.05-.04-.11-.07-.16.02,0,.04,0,.06-.01Z"/><path class="emoji-7-9" d="m81.57,40.27s.08.02.12.02c-.04,0-.08-.02-.12-.02Z"/><path class="emoji-7-9" d="m71.05,19.24s.09.02.14.03c-.05-.01-.09-.02-.14-.03Z"/><path class="emoji-7-9" d="m92.91,28.02s-.01-.07-.02-.11c0,.04.01.07.02.11Z"/><path class="emoji-7-9" d="m72.78,28.62s.02.04.02.06c-.01-.02-.02-.04-.02-.06Z"/><path class="emoji-7-9" d="m77.9,28.98s.02-.04.03-.06c0,.02-.01.05-.03.06Z"/><path class="emoji-7-9" d="m72.92,29.06s.02.04.03.06c-.02-.02-.03-.04-.03-.06Z"/><path class="emoji-7-9" d="m77.8,29.13s.04-.05.06-.08c-.02.03-.04.05-.06.08Z"/><path class="emoji-7-9" d="m92.89,29.56s.01-.07.02-.11c0,.04-.01.07-.02.11Z"/><path class="emoji-7-9" d="m89.69,32.09s.04,0,.05.02c-.02,0-.04,0-.05-.02Z"/><path class="emoji-7-9" d="m88.22,31.04s.04.02.04.04c-.02-.01-.03-.03-.04-.04Z"/><path class="emoji-7-9" d="m70.97,16.96s-.05.03-.07.04c.02-.01.05-.03.07-.04Z"/><path class="emoji-7-9" d="m72.12,17.07s-.05-.02-.07-.04c.02.01.05.02.07.04Z"/><path class="emoji-7-9" d="m70.6,17.17s-.04.04-.07.06c.02-.02.04-.04.07-.06Z"/><path class="emoji-7-9" d="m88.07,30.82h.02s0,.04,0,.04c0-.01-.02-.02-.03-.04Z"/><path class="emoji-7-9" d="m74.66,17.94s-.04-.03-.06-.04c.02.01.04.03.06.04Z"/><path class="emoji-7-9" d="m75.24,18.24s-.05-.03-.07-.05c.02.02.05.03.07.05Z"/><path class="emoji-7-9" d="m92.69,30.28s.02-.04.03-.06c0,.02-.01.05-.03.06Z"/><path class="emoji-7-9" d="m70.9,19.17h.03s0,.04,0,.04c0-.01-.02-.02-.02-.04Z"/><path class="emoji-7-9" d="m96.46,21.51s0-.03,0-.05c.01.02,0,.03,0,.05Z"/><path class="emoji-7-9" d="m95.98,22.46s.05-.05.08-.07c-.03.02-.05.05-.08.07Z"/><path class="emoji-7-9" d="m95.32,22.68s.04-.01.07-.02c-.02.01-.04.02-.07.02Z"/><path class="emoji-7-9" d="m87.71,30.07s.02.04.03.06c-.02-.02-.03-.04-.03-.06Z"/><path class="emoji-7-9" d="m74.88,24.2l-.02.02s-.03,0-.03,0c.02,0,.03-.01.05-.01Z"/><path class="emoji-7-9" d="m82.91,38.14h-.03s-.03-.02-.03-.02c.02,0,.04,0,.06.02Z"/><path class="emoji-7-9" d="m83.2,38.21s-.04-.01-.06-.02c.02,0,.04,0,.06.02Z"/><path class="emoji-7-9" d="m83.71,38.35h-.03s-.02-.02-.02-.02c.02,0,.04,0,.05.02Z"/><path class="emoji-7-9" d="m84.37,38.58h-.03s-.02-.02-.02-.02c.02,0,.04.01.06.02Z"/><polygon class="emoji-7-9" points="91.47 25.67 91.45 25.67 91.44 25.65 91.47 25.67"/><path class="emoji-7-9" d="m91.63,25.78s-.05-.04-.07-.05c.02.02.05.04.07.05Z"/><path class="emoji-7-9" d="m91.69,25.82s-.03,0-.03-.03c.01,0,.02.02.03.03Z"/><path class="emoji-7-9" d="m73.43,29.96s.04.01.04.04c-.01-.01-.03-.02-.04-.04Z"/><path class="emoji-7-9" d="m72.95,26.03s0,.04-.03.06c0-.02.01-.04.03-.06Z"/><path class="emoji-7-9" d="m77.85,26.09s-.04-.05-.06-.07c.02.02.04.05.06.07Z"/><path class="emoji-7-9" d="m77.38,29.92s.01-.04.04-.04c0,.02-.02.03-.04.04Z"/><path class="emoji-7-9" d="m82.36,40.42s.04.01.06.02c-.02,0-.04,0-.06-.02Z"/><path class="emoji-7-9" d="m82.94,40.57s.04,0,.05.02c-.02,0-.04,0-.05-.02Z"/><path class="emoji-7-9" d="m83.16,40.63s.04.02.07.03c-.02,0-.04-.02-.07-.03Z"/><path class="emoji-7-9" d="m77.93,26.23s-.02-.04-.03-.06c.01.02.02.04.03.06Z"/><path class="emoji-7-9" d="m83.81,40.86s.04,0,.05.02c-.02,0-.03-.01-.05-.02Z"/><path class="emoji-7-9" d="m88.22,40.86s-.04-.04-.06-.06c.02.02.04.04.06.06Z"/><path class="emoji-7-9" d="m92.84,29.85s.02-.04.02-.06c0,.02,0,.04-.02.06Z"/><path class="emoji-7-9" d="m88.25,26.39s-.01.04-.04.04c0-.02.02-.03.04-.04Z"/><path class="emoji-7-9" d="m72.8,26.46s0,.04-.02.06c0-.02,0-.04.02-.06Z"/><path class="emoji-7-9" d="m78.07,26.75s-.02-.05-.03-.07c0,.02.02.05.03.07Z"/><path class="emoji-7-9" d="m72.69,27.11s-.03.05-.05.08c.02-.03.03-.05.05-.08Z"/><path class="emoji-7-9" d="m92.72,27.24s-.03-.03-.03-.06c.01.02.02.03.03.06Z"/><path class="emoji-7-9" d="m77.54,29.7v-.03s.03-.01.03-.01c0,.01-.02.02-.03.04Z"/><path class="emoji-7-9" d="m87.74,27.33s-.02.04-.03.06c0-.02.01-.04.03-.06Z"/><path class="emoji-7-9" d="m77.42,25.26s-.04-.01-.04-.04c.01.01.03.02.04.04Z"/><path class="emoji-7-9" d="m92.86,27.68s-.03-.03-.02-.06c.01.02.02.04.02.06Z"/><path class="emoji-7-9" d="m87.6,27.84s-.02.05-.03.07c0-.02.02-.05.03-.07Z"/><path class="emoji-7-9" d="m83.37,40.69s.05.03.07.04c-.02-.01-.05-.03-.07-.04Z"/><path class="emoji-7-1" d="m76.24,46.1c.64-.87,1.33-1.7,1.92-2.61.67-1.04,1.19-2.18,1.51-3.38.08-.3.19-.59.29-.89.02.13.06.25.06.38,0,1.88,0,3.75,0,5.63-1.26.29-2.53.58-3.79.87Z"/><path class="emoji-7-1" d="m78.87,49.36s.1,0,.14,0c0,.12-.01.24,0,.36.03.15.09.28.14.43l-2.3.03c-.13-.07-.25-.13-.49-.26.61-.15,1.11-.27,1.62-.39.02.13.02.38.05.38.24.03.49.02.74.02,0-.04,0-.07.01-.11-.05-.05-.1-.11-.15-.17.08-.1.15-.19.23-.28Z"/><path class="emoji-7-7" d="m79.16,50.15c-.05-.14-.11-.28-.14-.43-.02-.12,0-.24,0-.36.05-.03.09-.06.14-.09.48.02.6.39.74.75-.05.04-.1.09-.15.13-.19,0-.39,0-.58,0Z"/><path class="emoji-7-4" d="m80.04,45.22c0-1.88,0-3.75,0-5.63,0-.13-.04-.25-.06-.38.02-.08.04-.15.06-.23.03,0,.05,0,.08,0,0,.07.01.14.02.21,0,.05,0,.1,0,.15,0,1.91,0,3.81,0,5.72,0,.05-.01.09-.02.14-.02,0-.04,0-.07,0Z"/><path class="emoji-7-1" d="m79.89,50.02c-.14-.35-.26-.73-.74-.75.32-.07.64-.14.96-.21-.07.32-.15.64-.22.96Z"/><path class="emoji-7-11" d="m78.87,49.36c-.07.09-.15.18-.23.28.05.06.1.11.15.17,0,.04,0,.07-.01.11-.25,0-.5.01-.74-.02-.03,0-.03-.25-.05-.38.29-.05.58-.11.87-.16Z"/><path class="emoji-7-7" d="m68.86,47.82v-.99s.06-.01.09-.02c.15.29.29.58.44.87-.18.05-.36.09-.53.14Z"/><path class="emoji-7-12" d="m79.16,50.15c.19,0,.39,0,.58,0-.12.03-.24.08-.36.08-.68,0-1.36,0-2.04,0-.12,0-.23.03-.35.05-.04-.04-.08-.07-.13-.11.77,0,1.53-.02,2.3-.03Z"/><path class="emoji-7-9" d="m68.12,47.69c0,.07,0,.14,0,.21,0-.07,0-.14,0-.21Z"/><path class="emoji-7-12" d="m80.1,45.21s.01-.09.02-.14c.02.04.04.09.06.13-.02,0-.05,0-.07.01Z"/><path class="emoji-7-9" d="m68.12,39.86s0,.05,0,.07c0-.02-.02-.03-.03-.05,0,0,.01-.01.02-.02Z"/><path class="emoji-7-9" d="m68.12,40.37s0,.05,0,.07c0-.02-.02-.03-.02-.05,0,0,.02-.01.02-.02Z"/><path class="emoji-7-9" d="m68.12,41.09s0,.05,0,.07c0-.02-.02-.03-.03-.05,0,0,.01-.01.02-.02Z"/><path class="emoji-7-9" d="m68.12,43.12s0,.05,0,.07c0-.02-.02-.03-.02-.05,0,0,.02-.01.02-.02Z"/><path class="emoji-7-8" d="m80.75,45.07s.05-.03.08-.04c-.03.01-.05.03-.08.04Z"/><path class="emoji-7-1" d="m71.31,44.64c.15-.94.29-1.88.45-2.95.33.36.58.64.85.94.93-.8,1.84-1.58,2.75-2.37.8.61.61,1.82-.13,2.46-.49.43-1.01.83-1.52,1.24.25.3.49.59.72.88-1.04,0-2.08.01-3.12.02,0,0-.01,0-.01,0,0-.08,0-.15,0-.23Z"/><path class="emoji-7-1" d="m77.48,36.82c-.12.76-.24,1.51-.36,2.27-.04.25-.09.5-.15.83-.22-.25-.42-.44-.57-.66-.16-.22-.27-.23-.48-.05-.84.74-1.69,1.45-2.54,2.17-.83-.66-.46-2.02.18-2.46.34-.23.65-.52.96-.79.42-.36.4-.69-.04-1.04-.05-.04-.08-.09-.12-.13,0-.05.01-.09.02-.14,1.03,0,2.07,0,3.1,0Z"/><path class="emoji-7-1" d="m71.7,37.18c-.15.19-.29.39-.44.58-.05.07-.09.15-.14.22,0,0,0,0,0,0-.09.12-.18.24-.27.36-.41.81-.86,1.59-1.22,2.42-.27.61-.42,1.28-.62,1.92-.02-.06-.06-.13-.06-.19,0-1.39,0-2.77,0-4.16l.8.25s.04-.08.06-.12c-.16-.42-.58-.61-.87-.93,0-.34,0-.68,0-1.02.1.05.23.08.31.15.35.29.69.6,1.04.88.07.06.2.05.31.07,0-.12.03-.27-.02-.35-.29-.41-.61-.79-.92-1.19-.03-.05-.05-.09-.08-.14.02-.56.28-.73.8-.51.01.07,0,.15.04.2.28.37.56.74.86,1.08.12.14.3.22.45.33-.01.04-.03.08-.04.12Z"/><path class="emoji-7-2" d="m69.59,35.95s.05.09.08.14c-.04.46-.16.52-.55.28-.05-.03-.11-.04-.16-.07,0-1.45,0-2.9-.01-4.35.1-.09.2-.18.3-.27.11.02.23.05.34.05.7,0,1.41,0,2.11.01.15.68.3,1.36.46,2.04.03.12.13.23.19.34,0,.05,0,.09,0,.14-.18.12-.28.4-.58.29-.02-.05-.05-.1-.07-.14-.03-.1-.04-.21-.08-.3-.18-.46-.37-.91-.56-1.36v-.56h-.79q.11.2-.15.44c-.4.36-.41.5-.09.86-.09.07-.18.14-.27.21-.09-.05-.18-.1-.28-.16-.03.31-.05.59-.08.87-.13.12-.31.22-.36.37-.13.36.19.96.56,1.16Z"/><path class="emoji-7-7" d="m72.34,34.14c-.07-.11-.16-.22-.19-.34-.16-.68-.31-1.36-.46-2.04.39,0,.78,0,1.17,0,.11.45.24.9.34,1.35.05.2.11.43.34.35.12-.04.24-.29.24-.45.01-.42-.04-.84-.07-1.25.41,0,.83,0,1.24,0,0,.48,0,.96,0,1.44-.23-.18-.49-.32-.77-.18-.33.16-.23.49-.24.77,0,.35,0,.7,0,1.06-.12.08-.24.16-.36.23-.14-.49-.29-.98-.43-1.46-.09-.31-.23-.36-.52-.24-.38.16-.38.44-.29.76Z"/><path class="emoji-7-7" d="m71.05,32.76c.19.45.38.91.56,1.36.04.1.05.2.08.3-.19-.17-.37-.18-.57,0-.19.16-.27.33-.17.56.29.64.59,1.28.89,1.92,0,.02,0,.04,0,.06-.02.03-.04.05-.05.08-.02.01-.02.02,0,.04,0,0-.01-.02-.01-.02h-.02c-.15-.11-.33-.19-.45-.33-.3-.35-.58-.72-.86-1.08-.04-.05-.03-.14-.04-.2,0,0,0,0,0,0,.15,0,.29.01.44.02,0-.14.04-.31-.02-.43-.15-.36-.34-.7-.52-1.04.46-.36.39-.72.17-.94.13-.2.27-.33.47-.08.05-.09.09-.15.12-.21Z"/><path class="emoji-7-7" d="m76.91,33.32c-.48.17-.97.34-1.45.51.05-.09.12-.18.14-.28.08-.6.15-1.2.22-1.8.39,0,.78,0,1.17,0-.02.22-.06.44-.07.67-.01.3,0,.6-.01.9Z"/><path class="emoji-7-7" d="m78.64,33.57c-.43-.08-.87-.16-1.3-.25.36-.46.47-1.02.58-1.58.41,0,.83,0,1.24,0-.04.22-.06.45-.13.66-.12.39-.26.77-.39,1.16Z"/><path class="emoji-7-1" d="m71.84,36.9c-.3-.64-.59-1.28-.89-1.92-.11-.23-.03-.41.17-.56.21-.17.39-.16.57,0,.02.05.05.1.07.14.07.21.12.44.23.64.17.31.37.59.56.89h.03c-.25.26-.49.53-.74.8Z"/><path class="emoji-7-1" d="m72.34,34.14c-.09-.33-.09-.6.29-.76.29-.12.43-.07.52.24.14.49.29.97.43,1.46-.07.08-.15.16-.22.24-.02.02-.05.04-.07.06,0,0,0,0,0,0-.02.02-.04.04-.06.07-.1.1-.2.2-.3.3-.02.02-.04.04-.06.06,0,0,0,0,0,0-.02,0-.04,0-.07,0-.15-.51-.3-1.03-.44-1.54,0-.05,0-.09,0-.14Z"/><path class="emoji-7-2" d="m78.64,33.57c.13-.39.27-.77.39-1.16.06-.21.09-.44.13-.66.19,0,.38,0,.57,0,.12.1.24.2.37.3,0,.02,0,.04,0,.06-.02.22-.04.44-.06.65-.16.21-.35.4-.48.62-.14.25-.29.44-.61.4-.1-.07-.2-.14-.3-.2Z"/><path class="emoji-7-2" d="m75.82,31.75c-.07.6-.14,1.2-.22,1.8-.01.1-.09.19-.14.28-.09.03-.19.06-.28.08-.07-.12-.15-.24-.22-.36,0-.12,0-.24,0-.36,0-.48,0-.96,0-1.44.29,0,.57,0,.86,0Z"/><path class="emoji-7-1" d="m74.95,33.19c0,.12,0,.24,0,.36-.02.17-.23.4.14.44-.12.08-.24.15-.36.23-.03.02-.05.04-.08.05-.24.19-.48.38-.72.56,0-.35,0-.7,0-1.06,0-.28-.1-.61.24-.77.29-.14.54,0,.77.18Z"/><path class="emoji-7-2" d="m77.93,31.75c-.11.56-.21,1.12-.58,1.58-.15,0-.29,0-.44,0,0-.3,0-.6.01-.9.01-.22.04-.44.07-.67.31,0,.62,0,.94,0Z"/><path class="emoji-7-7" d="m78.94,33.78c.32.04.46-.15.61-.4.13-.22.32-.41.48-.62,0,.75.01,1.5,0,2.26,0,.09-.04.18-.06.27-.04-.09-.07-.18-.11-.28-.02-.03-.03-.06-.05-.09-.29-.38-.59-.76-.88-1.14Z"/><path class="emoji-7-4" d="m68.93,31.96c0,1.45,0,2.9.01,4.35,0,.07,0,.15,0,.22,0,.34,0,.68,0,1.02,0,.26,0,.53,0,.79,0,1.39,0,2.77,0,4.16,0,.06.04.13.06.19,0,.11,0,.23,0,.34h-.11c-.01-.08-.03-.18-.03-.27,0-3.47,0-6.95,0-10.42,0-.13.05-.25.07-.38Z"/><path class="emoji-7-1" d="m77.93,31.75c-.31,0-.62,0-.94,0-.39,0-.78,0-1.17,0-.29,0-.57,0-.86,0-.41,0-.83,0-1.24,0-.29,0-.57,0-.86,0-.39,0-.78,0-1.17,0-.7,0-1.41,0-2.11-.01-.12,0-.23-.03-.34-.05.46-.01.92-.02,1.37-.04.29,0,.58,0,.88,0,.51,0,1.01,0,1.52,0,.2,0,.39,0,.59,0,.51,0,1.01,0,1.52,0,.2,0,.39,0,.59,0,.48,0,.96,0,1.44,0,.27,0,.54,0,.8,0,.48,0,.96,0,1.44,0,.07,0,.15,0,.22,0,.04.03.09.06.13.08-.19,0-.38,0-.57,0-.41,0-.83,0-1.24,0Z"/><path class="emoji-7-12" d="m74.38,36.82s-.01.09-.02.14c-.16-.13-.23-.28.05-.28.99-.02,1.97,0,2.96,0,.04,0,.08.05.11.07-.98,0-1.96,0-2.94,0-.06,0-.11.05-.17.08Z"/><path class="emoji-7-4" d="m79.97,35.28c.02-.09.06-.18.06-.27,0-.75,0-1.5,0-2.26.02-.22.04-.44.06-.65,0,.13.02.26.02.39,0,.93.01,1.87.02,2.8,0,.05,0,.1,0,.15-.04,0-.07,0-.11.01-.02-.06-.03-.12-.05-.18Z"/><path class="emoji-7-12" d="m80.13,35.3c0-.93-.01-1.87-.02-2.8,0-.13-.01-.26-.02-.39.01-.02.01-.04,0-.06.03.07.08.15.08.22,0,.96,0,1.91,0,2.87,0,.06-.03.11-.05.17Z"/><path class="emoji-7-4" d="m74.38,36.82c.06-.03.11-.08.17-.08.98,0,1.96,0,2.94,0,0,.02,0,.05,0,.07-1.03,0-2.07,0-3.1,0Z"/><path class="emoji-7-12" d="m71.33,44.88c1.04,0,2.08-.01,3.12-.02-.06.03-.12.08-.18.08-.93,0-1.85,0-2.78,0-.05,0-.11-.04-.16-.06Z"/><path class="emoji-7-7" d="m75.1,33.99c-.38-.04-.16-.27-.14-.44.07.12.15.24.22.36-.03.02-.05.05-.08.07Z"/><path class="emoji-7-11" d="m74.88,30.96c.31,0,.63,0,.94,0-.31,0-.63,0-.94,0Z"/><path class="emoji-7-12" d="m71.48,31.66c-.29,0-.58,0-.88,0,.29,0,.58,0,.88,0Z"/><path class="emoji-7-12" d="m77.93,31.66c-.27,0-.54,0-.8,0,.27,0,.54,0,.8,0Z"/><path class="emoji-7-11" d="m70.84,38.34c.09-.12.18-.24.27-.36-.09.12-.18.24-.27.36Z"/><path class="emoji-7-12" d="m75.68,31.66c-.2,0-.39,0-.59,0,.2,0,.39,0,.59,0Z"/><path class="emoji-7-12" d="m73.58,31.66c-.2,0-.39,0-.59,0,.2,0,.39,0,.59,0Z"/><path class="emoji-7-12" d="m80.1,38.99s-.05,0-.08,0c.01-.08.03-.17.04-.25.03,0,.07.01.1.02-.02.08-.04.16-.06.25Z"/><path class="emoji-7-11" d="m71.12,37.98c.05-.07.09-.15.14-.22-.05.07-.09.15-.14.22Z"/><path class="emoji-7-12" d="m80.02,35.46s.07,0,.11-.01c0,.04,0,.08,0,.11-.04-.03-.07-.07-.11-.1Z"/><path class="emoji-7-5" d="m75.89,30.94c.1-.02.2-.04.29-.06-.1.02-.2.04-.29.06Z"/><path class="emoji-7-11" d="m72.72,35.95s-.09.09-.14.13c0,0-.03,0-.03,0,.05-.05.1-.1.16-.15h.01Z"/><path class="emoji-7-12" d="m71.31,44.64c0,.08,0,.15,0,.23,0-.08,0-.15,0-.23Z"/><path class="emoji-7-12" d="m79.6,31.66c-.07,0-.15,0-.22,0,.07,0,.15,0,.22,0Z"/><path class="emoji-7-5" d="m74.59,30.88c.07.02.15.04.22.07-.07-.02-.15-.04-.22-.07Z"/><path class="emoji-7-4" d="m80.95,37.86s-.04.02-.06.03c0,0-.02,0-.03-.01.03,0,.06-.01.09-.02Z"/><path class="emoji-7-12" d="m80.12,39.36c0-.05,0-.1,0-.15,0,.05,0,.1,0,.15Z"/><path class="emoji-7-11" d="m71.74,37.05h.02s.01.02.01.02c-.02.03-.05.07-.07.1.01-.04.03-.08.04-.12Z"/><path class="emoji-7-11" d="m74.66,34.28s.05-.04.08-.05c-.03.02-.05.04-.08.05Z"/><path class="emoji-7-11" d="m79.82,34.92s.03.06.05.09c-.02-.03-.03-.06-.05-.09Z"/><path class="emoji-7-11" d="m73.29,35.37s.05-.04.07-.06c-.02.02-.05.04-.07.06Z"/><path class="emoji-7-11" d="m72.86,35.8s.04-.04.06-.06c-.02.02-.04.04-.06.06Z"/><path class="emoji-7-11" d="m72.79,35.82s.04,0,.07,0c-.02.02-.04.05-.06.07h0s0-.05,0-.06Z"/><path class="emoji-7-11" d="m72.79,35.88s-.05.05-.07.07c0,0-.01,0-.01,0,.02-.02.05-.05.07-.07h0Z"/><path class="emoji-7-11" d="m71.78,37.03s.04-.05.05-.08c-.02.03-.04.05-.05.08Z"/><path class="emoji-7-11" d="m73.22,35.44s.04-.04.06-.07c-.02.02-.04.04-.06.07Z"/><path class="emoji-7-7" d="m69.59,35.95c-.37-.21-.69-.81-.56-1.16.05-.15.24-.25.36-.37.04,0,.09.01.13.02.29.33.58.67.87,1,0,0,0,0,0,0-.52-.22-.78-.05-.8.51Z"/><path class="emoji-7-7" d="m68.95,36.53c0-.07,0-.15,0-.22.05.02.11.04.16.07.39.24.52.17.55-.28.31.39.63.78.92,1.19.06.08.02.23.02.35-.1-.02-.23-.01-.31-.07-.36-.29-.69-.59-1.04-.88-.09-.07-.21-.1-.31-.15Z"/><path class="emoji-7-7" d="m68.95,38.34c0-.26,0-.53,0-.79.28.31.7.51.87.93-.02.04-.04.08-.06.12l-.8-.25Z"/><path class="emoji-7-11" d="m69.52,34.44s-.09-.01-.13-.02c.02-.28.05-.56.08-.87.1.06.19.11.28.16.09-.07.18-.14.27-.21-.32-.36-.3-.5.09-.86q.26-.24.15-.44h.79v.56c-.04.06-.07.12-.12.21-.2-.26-.34-.13-.47.08.22.22.29.58-.17.94-.4.07-.05.27-.05.46h-.72Z"/><path class="emoji-7-7" d="m72.78,35.88s-.05.05-.07.07c-.05.05-.1.1-.16.15-.19-.3-.39-.58-.56-.89-.11-.2-.15-.42-.23-.64.29.1.4-.17.58-.29.15.51.3,1.03.44,1.54,0,.02,0,.04,0,.05Z"/><path class="emoji-7-2" d="m72.86,31.75c.29,0,.57,0,.86,0,.03.42.08.84.07,1.25,0,.16-.12.41-.24.45-.23.08-.3-.15-.34-.35-.1-.45-.22-.9-.34-1.35Z"/><path class="emoji-7-2" d="m69.52,34.44h.72c0-.19-.35-.38.05-.46.17.35.36.69.52,1.04.05.12.01.29.02.43-.15,0-.29-.01-.44-.02-.29-.33-.58-.67-.87-1Z"/><path class="emoji-7-8" d="m95.98,20.36s-3.29.12-5.73,1.13c-2.44,1.01-4.28,3.12-4.33,3.18-.04.06-.3-2.27-.3-2.27,0,0,3.19-2.45,3.4-2.48.21-.03,5.47-.88,5.55-.88s1.41,1.32,1.41,1.32Z"/><path class="emoji-7-8" d="m95.16,22.68s.06,0,.16-.02c.35-.07,1.16-.35,1.06-1.61,0,0,.54-.05.54,0s.06,1.34.06,1.34"/><path class="emoji-7-8" d="m70.67,19.03s5.58,1,7.67,5.1c0,0,1.72,1.73,2.15-.61s1.11,2.27,1.05,2.31-3.61-1.26-3.61-1.26c0,0-2.33-2.96-2.47-3s-5.18-2.19-5.18-2.19l.39-.34Z"/><ellipse class="emoji-7-6" cx="90.17" cy="28.8" rx="2.86" ry="3.58"/><path class="emoji-7-3" d="m68.12,40.37c0-.15,0-.29,0-.44,0-.02,0-.05,0-.07,0-.33,0-.67,0-1,0-.06,0-.12,0-.17,0-2.1,0-4.2,0-6.31,0-.21-.03-.43.02-.62.17-.63.65-.82,1.24-.83,1.63-.01,3.26-.02,4.89-.03.11,0,.22-.02.32-.02,0,0,0,0,0,0,.07.02.15.04.22.07.02,0,.05.01.07.02.31,0,.63,0,.94,0,.02,0,.05-.01.07-.02.1-.02.2-.04.29-.06,0,0,0,0,0,0,1.1,0,2.19-.02,3.28.04.8.04,1.42.41,1.4,1.37-.04,1.75,0,3.49,0,5.24.03.05.06.11.1.16,0,0,.02,0,.02,0,0,.06-.02.11-.03.17-.03,0-.06.01-.09.02,0,0,.02,0,.03.01,0,.77,0,1.55,0,2.32-.01.05-.04.09-.04.14,0,1.55,0,3.11.01,4.66,0,0-.03.02-.03.02-.03.01-.05.03-.08.04-.19.04-.38.09-.58.13-.02-.04-.04-.09-.06-.13v-5.72c0-.05,0-.1,0-.15,0-.07-.01-.14-.02-.21.02-.08.04-.16.06-.25-.03,0-.07-.01-.1-.02-.01.08-.03.17-.04.25-.02.08-.04.15-.06.23-.1.3-.21.59-.29.89-.32,1.21-.84,2.34-1.51,3.38-.58.9-1.27,1.74-1.92,2.61-1.26.31-2.53.63-3.79.94-.9.22-1.8.41-2.7.61-.11.03-.23.02-.35.03-.15-.29-.29-.58-.44-.87-.03,0-.06.01-.09.02v.99c-.25.03-.49.05-.74.08,0-.07,0-.14,0-.21,0-1.5,0-3,0-4.5,0-.02,0-.05,0-.07,0-.65,0-1.31,0-1.96,0-.02,0-.05,0-.07,0-.22,0-.44,0-.65,0-.02,0-.05,0-.07Zm4.67-4.49s.04-.05.06-.07h0s.04-.05.06-.07c.1-.1.2-.2.3-.3.02-.02.04-.04.06-.07h0s.05-.04.07-.06c.07-.08.15-.16.22-.24.12-.08.24-.16.36-.23.24-.19.48-.38.72-.56.03-.02.05-.04.08-.05.12-.08.24-.15.36-.23.03-.02.05-.05.08-.07.09-.03.19-.06.28-.08.48-.17.97-.34,1.45-.51.15,0,.29,0,.44,0,.43.08.87.16,1.3.25.1.07.2.14.3.2.29.38.59.76.88,1.14.02.03.03.06.05.09.04.09.07.18.11.28.02.06.03.12.05.18.04.03.07.07.11.1v-.11s0-.1,0-.15c.02-.06.05-.11.05-.17,0-.96,0-1.91,0-2.87,0-.07-.05-.15-.08-.22-.12-.1-.24-.2-.37-.3-.04-.03-.09-.06-.13-.08-.07,0-.15,0-.22,0-.48,0-.96,0-1.44,0-.27,0-.54,0-.8,0h-1.44c-.2,0-.39,0-.59,0-.51,0-1.01,0-1.52,0-.2,0-.39,0-.59,0-.51,0-1.01,0-1.52,0-.29,0-.58,0-.88,0l-1.37.04c-.1.09-.2.18-.3.27-.03.13-.07.25-.07.38,0,3.47,0,6.95,0,10.42,0,.09.02.18.03.28h.11v-.35c.2-.64.35-1.31.62-1.92.36-.83.81-1.62,1.22-2.42.09-.12.18-.24.27-.36h0c.05-.08.09-.15.14-.23.15-.19.29-.39.44-.58.02-.03.05-.07.07-.1-.01-.02,0-.03,0-.04.02-.03.04-.05.05-.08,0-.02,0-.04,0-.06.25-.27.49-.54.74-.81.05-.04.09-.09.14-.13.02-.02.05-.05.07-.07Zm-1.48,8.98h.01c.05.03.11.07.16.07.93,0,1.85,0,2.78,0,.06,0,.12-.05.18-.08-.24-.29-.48-.58-.72-.88.51-.41,1.02-.81,1.52-1.24.74-.64.93-1.85.13-2.46-.91.78-1.83,1.57-2.75,2.37-.27-.3-.52-.58-.85-.94-.16,1.06-.31,2-.45,2.95,0,.08,0,.15,0,.23Zm6.17-8.12s-.08-.07-.11-.07c-.99,0-1.97-.02-2.96,0-.28,0-.21.16-.05.28.04.04.07.09.12.13.45.35.47.68.04,1.04-.32.27-.62.56-.96.79-.64.44-1.01,1.81-.18,2.46.85-.72,1.7-1.44,2.54-2.17.21-.19.32-.17.48.05.16.22.35.41.57.66.06-.32.11-.58.15-.83.12-.75.24-1.51.36-2.27.01-.02.01-.05,0-.07Z"/><polyline class="emoji-7-6" points="74.3 30.9 76.61 30.9 76.68 30.67"/><rect class="emoji-7-8" x="67.48" y="29.84" width="20" height="21.78"/><path class="emoji-7-10" d="m80.86,45.01c.67-.14,1.34-.29,2.01-.41.75-.13,1.48-.09,1.95.61.44.66.52,1.39.1,2.12-.25.42-.65.66-1.09.78-.97.25-1.94.46-2.91.68-.03,0-.06.04-.09.06-.24.07-.48.14-.72.21-.32.07-.64.14-.96.21-.05.03-.09.06-.14.09-.05,0-.1,0-.14,0-.29.05-.58.11-.87.16-.5.12-1.01.25-1.61.39.23.12.36.19.49.26.04.04.08.07.13.11.19.23.38.45.57.68.34,1,.07,1.83-.69,2.53-.12.11-.26.2-.37.28.27.25.57.46.77.74.38.54.28,1.14.08,1.72-.36.4-.64.89-1.19,1.09-.05.02-.1.17-.08.2.16.19.4.33.51.54.12.23.2.54.16.79-.05.27-.24.54-.43.77-.21.26-.45.51-.71.71-.52.41-1.17.48-1.79.62-1.16.26-2.31.53-3.48.73-.54.1-1.1.05-1.65.07-2.06.1-3.8-.71-5.36-1.96-1.24-1-2.14-2.26-2.66-3.76-.26-.73-.54-1.49-.6-2.25-.11-1.22-.12-2.45.42-3.62.44-.95,1.01-1.79,1.74-2.53.28-.28.56-.55.83-.83.08-.09.11-.22.17-.33,1.09-.76,1.92-1.71,2.17-3.06.2-1.07.08-2.13-.24-3.17-.1-.34-.19-.71-.15-1.06.11-1.13,1.05-1.29,1.75-1.17.51.09.96.31,1.32.7.02.05.04.11.07.16,0,.33,0,.67,0,1,0,0-.02.02-.02.02,0,.02.02.03.03.05,0,.15,0,.29,0,.44,0,0-.02.01-.02.02,0,.02.01.03.02.05,0,.22,0,.44,0,.65,0,0-.02.02-.02.02,0,.02.02.03.03.05,0,.65,0,1.31,0,1.96,0,0-.02.01-.02.02,0,.02.01.03.02.05,0,1.5,0,3,0,4.5,0,.07,0,.14,0,.21.25-.03.49-.05.74-.08.18-.05.36-.09.53-.14.12,0,.24,0,.35-.03.9-.2,1.8-.4,2.7-.61,1.27-.3,2.53-.62,3.79-.94,1.26-.29,2.53-.58,3.79-.87.02,0,.04,0,.07,0,.02,0,.05,0,.07-.01.19-.04.38-.09.58-.13.03-.01.05-.03.08-.04l.03-.02Z"/><path class="emoji-7-6" d="m80.89,40.21c0-.77,0-1.55,0-2.32.02,0,.04-.02.06-.03,0-.06.02-.11.03-.17.42.12.83.24,1.25.35.21.05.42.06.63.08,0,0,.03.02.03.02h.03c.08.01.16.03.23.05.02,0,.04.01.06.02.15.04.3.08.45.13,0,0,.02.02.02.02h.03c.2.06.4.13.6.19,0,0,.02.03.02.03h.03c1.38.54,2.67,1.24,3.8,2.22.02.02.04.04.06.06.44.73.23,1.53-.47,1.82-.49.2-.85-.03-1.22-.28-.57-.38-1.13-.77-1.72-1.12-.29-.18-.63-.28-.95-.41,0-.02-.03-.03-.05-.02-.12-.04-.25-.09-.37-.13-.02-.01-.05-.03-.07-.04-.05-.01-.1-.02-.15-.03-.02,0-.04-.02-.07-.03-.05-.01-.11-.03-.16-.04-.01-.03-.03-.03-.05-.02-.17-.04-.35-.08-.52-.13-.02,0-.04-.01-.06-.02-.22-.04-.45-.08-.67-.12-.04,0-.08-.02-.12-.02-.23-.02-.45-.04-.68-.06Z"/><ellipse class="emoji-7-6" cx="75.43" cy="27.62" rx="2.86" ry="3.58"/><path class="emoji-7-6" d="m80.98,37.69s-5.74-1.05-7.19-.95-2.48,1.91-.86,2.28,7.68.55,7.97,1.19l2.11.37.54-2.28s-2.08-.64-2.56-.61Z"/><path class="emoji-7-8" d="m83.37,40.69s-3.41-.99-4.43-1l.79,1.11,3.8.49-.16-.6Z"/></g></svg>