<?xml version="1.0" encoding="UTF-8"?>
<svg id="Vrstva_2" xmlns="http://www.w3.org/2000/svg" viewBox="0 0 25.29 21.26">
    <defs>
        <style>
            .cls-1 {
                fill: none;
                stroke: #1d1d1b;
            }
        </style>
    </defs>
    <g id="Vrstva_5">
        <path class="cls-1" style="--path-len: 101; stroke-width: 0.5px;"
            d="m7.37,10.99c-.25,0-.52,0-.74-.14-.21-.13-.33-.37-.47-.58-.62-.94-1.79-1.48-2.91-1.35s-2.13.91-2.56,1.95c-.19.47-.27,1.01-.13,1.5s.54.92,1.04,1.03c.54.12,1.29-.05,1.49.47-.39.36-.8.74-1.01,1.23s-.17,1.13.24,1.48c.19.16.44.24.68.32,5.45,1.72,10.97,3.46,16.68,3.83.77.05,1.54.07,2.29-.1.89-.2,1.73-.7,2.24-1.45s.67-1.76.31-2.6c.58-1.05.05-2.36-.59-3.37-.96-1.49-2.41-2.92-4.19-2.9-.26,0-.56.02-.74-.17-.16-.18-.13-.45-.06-.67.27-1,.97-1.82,1.48-2.72.63-1.11.99-2.37,1.04-3.64.01-.29,0-.59-.11-.85-.12-.27-.34-.48-.59-.63-1.05-.61-2.47-.12-3.24.83s-1.01,2.2-1.11,3.41c-.08.9-.09,1.8-.04,2.7.02.41.05.85-.13,1.22s-.66.63-1.02.42c-.04-.71.17-1.41.38-2.09.17-.57.35-1.15.52-1.72.35-1.13.7-2.31.52-3.48s-1.06-2.32-2.24-2.41c-.89-.07-1.75.5-2.24,1.25s-.67,1.66-.77,2.55c-.24,2.34.31,4.33.8,6.58-.54.3-1.66.1-2.29.1h-2.55Z" />
    </g>
</svg>