<?xml version="1.0" encoding="UTF-8"?>
<svg id="Vrstva_2" xmlns="http://www.w3.org/2000/svg" viewBox="0 0 260.89 423.42">
    <defs>
        <style>
            .cls-1 {
                fill: none;
                stroke: #1d1d1b;
            }
        </style>
    </defs>
    <g id="Vrstva_1-2">
        <path class="cls-1" style="--path-len: 1870; stroke-width: 3;"
            d="m113.97,212.64c1.79,3.48,3.99,7.3,7.77,8.31,3.05-8.44-6.99-17.73-3.51-26,2.11-5.02,8.21-6.96,11.75-11.1,5.15-6.02,4.17-15.75,9.66-21.46,7.34-7.65,21.11-2.47,26.89,6.42s6.74,19.99,10.52,29.9c-8.92,3.99-20.77-3.14-21.42-12.89-.16-2.36.2-4.88-.95-6.95s-4.75-2.79-5.65-.61c-.32.78-.18,1.67-.04,2.5,1.56,9.01,3.13,18.01,4.69,27.02,9.26,3.86,16.35,12.53,18.29,22.37s-1.32,20.56-8.42,27.65c-.89.89-1.9,1.83-2.11,3.07-.29,1.68.97,3.22,2.26,4.34,9.34,8.11,23.17,7.51,34.89,11.46,15.17,5.12,27.09,18.89,29.96,34.64,2.44,13.38-1.01,28.24,5.83,39.99,4.99,8.58,15.31,13.72,25.16,12.53-12.05,12.36-33.26,14.36-47.41,4.47.53,5.82-5.09,11.39-10.91,10.81-1.4,11.65-2.8,23.3-4.2,34.96-.21,1.77-.45,3.62-1.45,5.1-1.84,2.71-5.52,3.28-8.77,3.62-3.85.39-8.77.19-10.25-3.39-1.11-2.7.52-5.66,1.95-8.2,4.39-7.8,7.34-16.4,8.64-25.25.53-3.59-1.1-8.91-4.56-7.81-5.55,11.71-8.18,24.8-7.57,37.74-5.6,3.56-12.51,5-19.06,3.97,3.54-9,7.07-18.01,10.61-27.01,2.17-5.51,2.71-14.15-3.15-15.03-1.84-.28-3.8.48-5.54-.18-1.64-.62-2.57-2.3-3.63-3.69-4.58-6-14.07-7.49-20.26-3.17-1.21-3.38-3.09-6.73-6.18-8.57s-7.58-1.66-9.8,1.16c-4.12,5.25,1.48,15.37-4.34,18.63-2.23,1.25-5.01.56-7.52,1.01-6.76,1.21-9.18,9.74-8.79,16.6s1.97,14.39-1.87,20.08c-6.21.5-12.42,1.01-18.63,1.51.84-7.73,5.81-14.3,8.58-21.56,2.77-7.26,2.39-17.17-4.48-20.81-2.2,13.35-4.4,26.69-6.6,40.04-5.58,2.62-12.09,3.23-18.06,1.69,1.27-7.43,5.31-14.05,8.17-21.03s4.48-15.21.94-21.87c-7.16,1.78-14.32,3.55-21.48,5.33-.78-20.82-1.55-41.64-2.33-62.46-.43-11.46-.81-23.23,2.95-34.07,4.26-12.27,13.61-22.66,15.73-35.48-5.42-1.3-11.27-.74-16.35,1.55-1.83.83-3.64,1.94-4.68,3.67-1.1,1.84-1.19,4.09-1.76,6.15-1.97,7.03-10.77,11.22-17.47,8.31s-9.67-12.18-5.89-18.43c1.62-2.67,4.13-4.65,6.28-6.92,12.06-12.72,12.98-34.77,28.18-43.48,8.81-5.05,22.14-5.69,25-15.44,5.1,3.5,6.65,11.25,3.29,16.44,8.75,4.45,16.05,11.69,20.6,20.38-13.94-29.05-27.13-58.46-40-88.01S31.94,75.64,19.21,45.85c-3.15-7.37-6.31-14.74-9.48-22.11-1.62-3.75-3.24-7.51-4.86-11.26C3.76,9.94.36,5.03.5,2.28c.25-4.81,5.43,1.42,6.92,3.53,4.35,6.13,7.28,13.82,10.71,20.5,15.09,29.34,30.18,58.68,45.26,88.02s30.18,58.68,45.26,88.02c1.77,3.43,3.53,6.87,5.3,10.3Z" />
    </g>
</svg>