<?xml version="1.0" encoding="UTF-8"?>
<svg id="Vrstva_2" xmlns="http://www.w3.org/2000/svg" viewBox="0 0 158.71 56.36">
    <defs>
        <style>
            .cls-1 {
                fill: none;
                stroke: #1d1d1b;
            }
        </style>
    </defs>
    <g id="Vrstva_5">
        <path class="cls-1" style="--path-len: 377; stroke-width: 3;"
            d="m45.08,14.68c2.73-1.46,5.84-2.04,8.89-2.58C87.26,6.17,120.91,2.3,154.68.52c1-.05,2.11-.07,2.86.6.9.8.84,2.3.2,3.31s-1.73,1.65-2.79,2.23c-8.86,4.83-18.54,7.91-28.16,10.96-24.74,7.85-49.47,15.7-74.21,23.56-2.91.92-6.57,1.67-8.61-.6-.97-1.07-1.31-2.6-2.28-3.66-1.8-1.95-5.59-1.24-6.55,1.23-1.23,3.14,1.8,6.75.65,9.93-1.14,3.13-5.25,3.57-8.5,4.28-4.11.89-7.93,3.02-12.11,3.45s-9.19-1.71-9.76-5.88c-.12-.86-.05-1.79-.51-2.53-.55-.88-1.67-1.21-2.43-1.91-1.03-.96-1.27-2.47-1.45-3.86-.71-5.4-1.24-11.48,2.21-15.7,2.34-2.87,6.09-4.22,9.75-4.77s7.4-.44,11.06-1.02c.97-.15,1.97-.36,2.92-.12,3.87.98,3.64,7.87,7.55,8.7,2.25.47,4.87-5.54,5.18-6.98.7-3.2,2.42-5.47,5.39-7.06Z" />
    </g>
</svg>