<?xml version="1.0" encoding="UTF-8"?>
<svg id="Vrstva_2" xmlns="http://www.w3.org/2000/svg" viewBox="0 0 45.5 27.03">
    <defs>
        <style>
            .cls-1 {
                fill: none;
                stroke: #000;
            }
        </style>
    </defs>
    <g id="Vrstva_5">
        <path class="cls-1" style="--path-len: 97; stroke-width: 2;"
            d="m42.03,2.07c-3.51,2.73-7.02,5.46-10.72,7.93-2,1.34-4.06,2.6-5.98,4.06-1.33,1.01-2.59,2.12-3.9,3.17-4.79,3.86-10.14,7.02-15.83,9.34.15-.06-1.02-1.27-1.13-1.36-.5-.38-1.06-.66-1.61-.95-.51-.27-2.93-1.4-2.25-2.05.16-.15.53-.17.73-.25.41-.16.79-.39,1.18-.6.82-.44,1.65-.89,2.47-1.33,1.69-.9,3.38-1.79,5.07-2.67,6.71-3.49,13.5-6.84,20.35-10.04,3.85-1.8,7.72-3.55,11.62-5.26Z" />
    </g>
</svg>