<?xml version="1.0" encoding="UTF-8"?>
<svg id="Vrstva_2" xmlns="http://www.w3.org/2000/svg" viewBox="0 0 53.04 84.86">
    <defs>
        <style>
            .cls-1 {
                fill: none;
                stroke: #1d1d1b;
            }
        </style>
    </defs>
    <g id="Vrstva_5">
        <path class="cls-1" style="--path-len: 246; stroke-width: 0.75px;"
            d="m.51,11.41c-.13-1.04-.24-2.11.04-3.11.39-1.39,1.48-2.48,2.61-3.38C5.83,2.81,9.01,1.34,12.35.68c2.01-.39,4.14-.49,6.08.19,2.26.8,4.04,2.56,6.19,3.62,2.22,1.1,4.73,1.39,7.18,1.76,5.39.8,10.72,2.01,15.93,3.59.51.16,1.04.32,1.45.66.57.47.85,1.21,1.07,1.92,2.85,9.41-.51,19.45-.72,29.28-.06,2.85.15,5.69.36,8.53.42,5.71.84,11.44,1.74,17.09.78,4.88,1.89,10.03.05,14.62-14.78.82-29.72,4.36-44.2,1.31-.02-2.91-.04-5.82-.05-8.73-.06-9.39-.11-18.78-.17-28.17,0-1.15-.02-2.32-.29-3.44-.34-1.38-1.08-2.63-1.5-3.98-.86-2.8-.31-5.84-.86-8.71-.64-3.4-2.48-6.37-2.83-9.87-.3-3.01-.88-5.96-1.26-8.96Z" />
    </g>
</svg>