<?xml version="1.0" encoding="UTF-8"?><svg id="Vrstva_1" xmlns="http://www.w3.org/2000/svg" viewBox="0 0 399.44 285.25">
    <defs>
        <style>
            .cls-1 {
                fill: none;
                stroke: #1d1d1b;
            }
        </style>
    </defs>
    <path class="cls-1" style="--path-len: 3135; stroke-width: 40;"
        d="m80.9,27.75c46.11-.84,92.22-1.68,138.32-2.52,28.73-.52,58.09-.96,85.43,7.92-64.55,14.38-132.09.54-197.86,7.58-8.78.94-17.73,2.32-25.52,6.48,12.38,6.25,26.71,7.09,40.58,7.29,62.54.89,125.65-8.79,187.32,1.65-9.94,6.24-21.31,9.83-32.74,12.48-60.97,14.16-124.55,3.19-187.13,2.03-2.43-.04-5.67.64-5.78,3.06-.1,2.13,2.42,3.28,4.49,3.82,65.16,16.97,133.79,8.93,201.12,9.21-1.99,8.11-11.62,11.3-19.81,12.91-45.39,8.93-91.88,11.14-138.14,10.56-9.45-.12-19.03-.34-28.23,1.82-3.04.71-6.71,2.73-6.14,5.8.51,2.77,4,3.63,6.81,3.85,61.65,4.83,125.16-11.94,184.76,4.56,1.3.36,2.81.97,3.05,2.29.25,1.38-1.07,2.49-2.26,3.24-15.24,9.57-33.49,12.9-51.33,15.26-34.32,4.54-68.96,6.16-103.58,6.65-19.92.28-40.24.25-59.14,6.53,8.62,3.22,17.92,4.06,27.11,4.63,63.46,3.89,126.97-4.15,190.51-6.59,2.29-.09,5.46.72,5.2,2.99-.18,1.56-1.97,2.3-3.48,2.71-54.09,14.87-110.96,15.28-167.06,15.59-1.67,2.03-.5,5.33,1.69,6.79s4.96,1.6,7.59,1.68c34.12,1.04,68.28.88,102.39-.48,7.82-.31,15.97-.63,23.13,2.52-2.59,3.83-7.67,4.87-12.24,5.57-35.9,5.48-72.12,8.94-108.41,10.34-4.91.19-9.95.37-14.51,2.2s-8.64,5.69-9.28,10.57c7.22,3.11,15.23,3.84,23.08,4.14,44.62,1.69,89.17-9.25,133.69-5.8,2.76.21,6.18,1.06,6.69,3.77-59.57,1.16-119.09,4.2-178.47,9.13-2.32.19-5.1.71-5.93,2.88-.45,1.17-.16,2.51.35,3.66,2.95,6.66,11.47,8.38,18.74,8.96,49.3,3.9,98.72-4.09,148.17-4.63,1.56,3.34-2.71,6.36-6.25,7.43-12.59,3.79-25.83,4.74-38.94,5.59-42.88,2.75-85.81,4.58-128.74,6.41" />
</svg>