<?xml version="1.0" encoding="UTF-8"?>
<svg id="Vrstva_2" xmlns="http://www.w3.org/2000/svg" viewBox="0 0 35.53 62.54">
    <defs>
        <style>
            .cls-1 {
                fill: none;
                stroke: #1d1d1b;
            }
        </style>
    </defs>
    <g id="Vrstva_5">
        <path class="cls-1" style="--path-len: 193; stroke-width: 2;"
            d="m2.12,61.94c.72.31,1.59-.19,1.96-.89s.38-1.52.39-2.31c.07-6.29.76-12.56,2.07-18.71.29-1.37.64-2.79,1.58-3.83,1.22-1.35,3.38-1.75,5-.93,1.23.63,2.45,1.91,3.74,1.41.99-.96-.43-2.62-.15-3.97.11-.55.51-1,.89-1.42,1.16-1.27,2.32-2.55,3.48-3.82,1.04-1.14,2.11-2.31,3.48-3.02,3.09-1.6,6.86-.52,10.3-1.06-1.64-4.69-6.71-7.87-11.66-7.48-.68.05-1.37.17-1.95.53-.65.39-1.09,1.03-1.52,1.65-1.22,1.77-2.44,3.55-3.67,5.32-1.53,2.22-3.09,4.5-3.78,7.1-.81-.23-1.67-.31-2.51-.23.76-6,1.23-12.03,1.42-18.07.05-1.78.08-3.56-.16-5.32-.28-2.03-.93-3.99-1.57-5.93-2.6,2.81-5.27,5.72-6.54,9.33-.96,2.72-1.06,5.66-1.02,8.55.06,4.57.42,9.13,1.09,13.65.12.82.25,1.65.08,2.46-.19.9-.73,1.68-1.11,2.51-.69,1.51-.86,3.19-.99,4.84-.31,3.88-.46,7.77-.44,11.66,0,1.76-.42,7.11,1.58,7.97Z" />
    </g>
</svg>