<svg id="Vrstva_2" xmlns="http://www.w3.org/2000/svg"
    viewBox="0 0 1959.31 345.51">
    <defs>
        <style>
            .cls-1 {
                fill: none;
                stroke: #000;
            }
        </style>
    </defs>
    <g id="Vrstva_2-2">
        <path class="cls-1" style="--path-len: 4521; stroke-width: 3;"
            d="m453.99,21.7c69.35,10.67,138.16,25.36,208.01,32.09,101.11,9.74,203.23,2.65,303.8-11.66,52.67-7.5,105.2-16.99,158.35-19.29,82.98-3.59,165.56,10.4,248.05,20.02,193.74,22.59,390.26,21.13,583.64-4.34,4.54,96.77,3.88,193.78-1.97,290.47-149.03-41.49-307.53,18.85-461.7,6.13-51.69-4.26-102.41-16.73-154.04-21.68-133.68-12.82-266.78,25.05-400.95,30.77-178.48,7.62-356.24-41.74-534.45-29.32-134.58,9.38-273.88,53.24-400.75,7.39,6.63,6.51,18.67,3.14,24.22-4.32s6.38-17.3,6.94-26.58c2.95-49.15,3.83-98.43,2.64-147.65-.58-23.98-1.65-47.95-3.22-71.89-.99-15.13-8.41-41.6-.45-55.85C40.87.33,64.66,3.88,79.91,3.07c24.23-1.29,48.49-2.09,72.75-2.41,47.28-.62,94.59.6,141.78,3.65,53.4,3.45,106.65,9.25,159.53,17.39Z" />
    </g>
</svg>