<?xml version="1.0" encoding="UTF-8"?><svg id="Vrstva_1" xmlns="http://www.w3.org/2000/svg" viewBox="0 0 389.35 332.96">
    <defs>
        <style>
            .cls-1 {
                fill: #1d1d1b;
            }
        </style>
    </defs>
    <path class="cls-1"
        d="m48.94,90.58c38.8,1.27,77.62,1.77,116.44,1.48,38.62-.29,77.24-1.35,115.82-3.18,21.83-1.04,43.65-2.32,65.46-3.85-13.66-10.4-27.32-20.8-40.98-31.2l.09.47-1.52-11.3c.1.76.1,1.48.01,2.23.51-3.77,1.01-7.53,1.52-11.3-.1.56-.25,1.09-.44,1.63l4.28-10.15c-.33.77-.74,1.47-1.24,2.15l6.65-8.6c-.6.74-1.25,1.39-1.99,2l8.6-6.65c-1.89,1.44-4.18,2.33-6.33,3.31-2.58,1.19-5.19,2.33-7.81,3.44l10.15-4.28c-20.62,8.69-42.22,14.82-64.22,18.87-6.14,1.13-12.31,2.1-18.5,2.94l11.3-1.52c-28.19,3.78-56.66,4.73-85.07,4.91-28.59.18-57.19-.4-85.78.36-3.53.09-7.05.21-10.58.35-7.2.29-13.91.92-21.15,2.04-.68.11-1.36.21-2.02.4-.37.11-.73.25-1.09.39l-5.08,2.14c-1.87.71-3.7,1.49-5.5,2.34-8.01,4.41-12.91,10.17-17.97,17.54-2.76,4.02-4.5,8.83-5.87,13.48-.69,2.34-.84,5.14-1.14,7.37s-.99,5.3-.89,7.85c.42,10.27,2.02,15.51,6.5,24.57,3.43,6.93,10.65,13.84,17.28,17.73.26.15.52.31.79.45,2.56,1.33,7.74,3.43,10.48,4.43.56.2,1.12.38,1.7.5,5.13,1.05,10.41,1.45,15.61,2.1,7.77.96,15.55,1.92,23.33,2.83,30.82,3.61,61.82,6.49,92.88,5.96,19.14-.33,38.05-2.31,56.99-5.09,14.61-2.14,28.83-5.94,43.31-8.78,3.3-.65,6.62-1.22,9.95-1.68l-11.3,1.52c7.57-1.01,15.22-1.37,22.82-.39l-11.3-1.52c5.04.69,9.95,1.97,14.66,3.92l-10.15-4.28c3.43,1.46,6.77,3.18,9.76,5.43l-8.6-6.65c1.85,1.43,3.51,3.04,4.95,4.88l-6.65-8.6c1.27,1.68,2.3,3.48,3.12,5.42l-4.28-10.15c.75,1.88,1.28,3.81,1.59,5.8l-1.52-11.3c.15,1.25.2,2.46.07,3.71.51-3.77,1.01-7.53,1.52-11.3-.12.83-.31,1.61-.62,2.39l4.28-10.15c-.24.52-.51.99-.85,1.46l6.65-8.6c-.33.4-.68.76-1.07,1.09l8.6-6.65c-.59.45-1.21.8-1.88,1.1l10.15-4.28c-2.58,1.03-5.46,1.45-8.17,2.03-3.21.7-6.43,1.35-9.65,1.98-6.53,1.28-13.08,2.44-19.63,3.58-13.23,2.31-26.47,4.62-39.74,6.72-7.52,1.19-15.05,2.32-22.6,3.33l11.3-1.52c-16.6,2.22-33.29,3.91-50.04,4.54-16.59.63-33.17.05-49.71-1.32s-33.58-3.5-50.34-5.53c-4.1-.5-8.2-1.04-12.31-1.46-1.57-.16-3.09-.2-4.66-.02-2.23.25-9.18.67-13.11,1.98l-.44.18-10.15,4.28c-.61.3-1.15.62-1.72,1.01-2.32,1.57-6.81,5.01-8.87,6.86-.27.25-.54.49-.78.77-2.76,3.09-5.35,6.38-7.59,9.86-.39.6-.69,1.23-.99,1.87-1.49,3.22-3.22,7.24-4.45,10.56-.18.49-.35.98-.49,1.49-1.14,4.24-1.4,8.84-1.88,13.08-.09.76-.14,1.52-.1,2.28.51,10.46,2.12,16.11,6.75,25.38,2.25,4.5,5.95,8.42,9.07,12.19,1.19,1.44,2.46,2.81,3.8,4.1,4.87,4.67,10.34,8.88,16.07,12.45,5.61,3.5,12.11,5.9,18.16,8.28,2.85,1.12,5.79,1.99,8.76,2.68s5.91,1.17,8.9,1.58c7.36,1,14.66,2.05,22.06,2.61,8.2.62,16.43.81,24.66.69,16.9-.25,33.74-1.78,50.54-3.43,16.83-1.65,33.66-3.33,50.49-5,33.69-3.33,67.37-6.67,101.06-10,2.64-.26,5.25-.58,7.9-.23l-11.3-1.52c1.09.17,2.14.44,3.16.85-3.38-1.43-6.77-2.86-10.15-4.28.82.36,1.57.8,2.27,1.34-2.87-2.22-5.73-4.43-8.6-6.65.54.45,1.02.93,1.47,1.47-2.22-2.87-4.43-5.73-6.65-8.6.55.72,1,1.48,1.38,2.3-1.43-3.38-2.86-6.77-4.28-10.15.54,1.27.88,2.58,1.07,3.95-.51-3.77-1.01-7.53-1.52-11.3.18,1.61.14,3.2-.08,4.81.51-3.77,1.01-7.53,1.52-11.3-.27,1.72-.73,3.38-1.4,5l4.28-10.15c-.58,1.32-1.27,2.55-2.15,3.69l6.65-8.6c-.75.92-1.56,1.73-2.48,2.49l8.6-6.65c-1.35,1.04-2.8,1.85-4.36,2.54l10.15-4.28c-4.63,1.93-9.59,3.18-14.45,4.35-5.14,1.24-10.33,2.24-15.53,3.14-10.67,1.84-21.38,3.48-32.08,5.11-6.14.93-12.29,1.83-18.45,2.66l11.3-1.52c-15.83,2.12-31.73,3.81-47.69,4.46s-30.77.11-46.15-.57-30.56-1.48-45.86-1.33c-7.67.08-15.33.4-22.97,1.1-11.23,1.03-22.51,2.49-33.56,4.78-9.75,2.02-19.39,4.72-28.21,9.52-3.84,2.09-8.49,6.13-11.09,8.28-2.37,1.96-3.96,4.4-5.87,6.87s-3.8,4.52-5.05,7.3c-1.89,4.19-4.49,9.05-5.26,13.88s-2.07,10.58-1.49,15.77c.55,4.87.81,10.66,2.68,15.48,1.57,4.05,3.44,9.69,6.29,13.64,2.05,2.84,4.65,6.26,6.91,8.93.22.26.44.52.68.77,2.62,2.73,9.12,7.27,9.9,7.81.72.49,1.41.93,2.19,1.31,3.14,1.54,7.32,3.25,10.6,4.48.46.17.91.34,1.37.48,5,1.47,10.37,1.81,15.53,2.24,3.81.32,7.65.39,11.46.57,16.07.76,32.13,1.53,48.2,2.29,15.85.75,31.73,1.6,47.6.79,35.18-1.78,69.14-11.8,103.8-17.16,3.93-.61,7.87-1.17,11.82-1.7l-11.3,1.52c11.51-1.54,23.06-2.74,34.64-3.6,5.73-.42,11.46-.76,17.2-1.02,4.57-.2,9.32-.71,13.88-.09l-11.3-1.52c1.42.22,2.8.57,4.12,1.12-3.38-1.43-6.77-2.86-10.15-4.28.89.4,1.72.89,2.51,1.47-2.87-2.22-5.73-4.43-8.6-6.65.83.65,1.54,1.38,2.2,2.21-2.22-2.87-4.43-5.73-6.65-8.6.71.97,1.29,1.99,1.78,3.09l-4.28-10.15c.67,1.62,1.09,3.29,1.33,5.02l-1.52-11.3c.27,2.27.23,4.53-.04,6.8.51-3.77,1.01-7.53,1.52-11.3-.39,2.85-1.13,5.62-2.24,8.28,1.43-3.38,2.86-6.77,4.28-10.15-.84,1.93-1.85,3.73-3.13,5.4l6.65-8.6c-1.22,1.53-2.56,2.9-4.09,4.13l8.6-6.65c-1.77,1.36-3.67,2.46-5.72,3.35l10.15-4.28c-5.55,2.31-11.63,3-17.53,3.92-7.63,1.19-15.28,2.3-22.93,3.33,3.77-.51,7.53-1.01,11.3-1.52-29.73,3.98-59.62,6.72-89.58,8.16-29.88,1.44-59.83,1.59-89.72.46-16.76-.63-33.5-1.68-50.21-3.11-5.85-.22-11.31,1-16.37,3.66-5.27,1.71-9.83,4.64-13.68,8.79-4.14,3.85-7.07,8.41-8.79,13.68-2.66,5.06-3.88,10.52-3.66,16.37l1.52,11.3c2.02,7.2,5.66,13.45,10.93,18.75,2.87,2.22,5.73,4.43,8.6,6.65,6.63,3.84,13.78,5.78,21.45,5.8,33.6,2.88,67.33,4.16,101.06,3.8,33.64-.36,67.27-2.36,100.72-5.95,20.41-2.19,40.79-4.91,61.08-8.07,3.56-.55,7.14-1.06,10.67-1.77,6.43-1.3,12.33-4.03,18.3-6.74,1.34-.61,2.63-1.29,3.85-2.11,4.28-2.86,8.54-5.94,12.18-9.59s6.55-7.76,9.39-11.89c.86-1.25,1.56-2.59,2.19-3.97,2.73-6.01,5.76-12.21,6.7-18.83.64-4.52,1.84-10.38,1.75-15.41s-.91-10.58-2.01-15.73c-1.02-4.77-3.57-9.86-5.51-13.87-2.19-4.53-5.63-8.56-9.01-12.18-6.34-6.79-15.79-12.01-24.71-14.39-10.26-2.74-20.43-2.2-30.83-1.68-8.41.43-16.81,1.03-25.2,1.82-20.21,1.9-40.39,4.64-60.37,8.22-16.39,2.94-32.58,6.86-48.97,9.77-4.07.72-8.14,1.37-12.24,1.92l11.3-1.52c-16.31,2.16-32.73,2.14-49.14,1.49-16.52-.65-33.03-1.53-49.54-2.32-4.65-.22-9.3-.44-13.94-.66-4.38-.21-8.83-.21-13.19-.73l11.3,1.52c-1.44-.2-2.83-.52-4.18-1.05,3.38,1.43,6.77,2.86,10.15,4.28-.94-.41-1.81-.9-2.64-1.51,2.87,2.22,5.73,4.43,8.6,6.65-.85-.66-1.57-1.42-2.24-2.26,2.22,2.87,4.43,5.73,6.65,8.6-.81-1.09-1.46-2.24-2-3.48l4.28,10.15c-.55-1.36-.93-2.74-1.16-4.19l1.52,11.3c-.19-1.5-.2-2.98-.03-4.48l-1.52,11.3c.19-1.28.5-2.52.98-3.73l-4.28,10.15c.46-1.07,1.03-2.06,1.72-3-2.22,2.87-4.43,5.73-6.65,8.6.75-.96,1.6-1.8,2.55-2.57-2.87,2.22-5.73,4.43-8.6,6.65,1.38-1.07,2.88-1.9,4.49-2.58-3.38,1.43-6.77,2.86-10.15,4.28,4.29-1.75,8.99-2.73,13.5-3.73,5.18-1.16,10.41-2.07,15.67-2.78-3.77.51-7.53,1.01-11.3,1.52,35.59-4.75,71.43-.13,107.13.06,18.45.1,36.86-1.31,55.17-3.53,22.03-2.67,43.97-6.03,65.88-9.59,8.89-1.44,17.77-3.04,26.45-5.46,7.24-2.02,14.67-4.58,21.2-8.21,4.52-2.51,8.8-5.81,12.39-9.51,2.97-3.06,5.47-6.66,7.91-10.09.58-.81,1.09-1.65,1.53-2.55,2.13-4.41,4.69-9.52,5.8-14.55.99-4.49,1.46-9.1,1.89-13.68.09-.96.11-1.93.05-2.9-.3-4.58-.84-9.19-1.85-13.67-.17-.74-.4-1.45-.66-2.15-1.49-3.97-2.89-8.27-5.19-11.94-.2-.32-.42-.61-.64-.91-2.18-2.96-4.61-6.45-7.11-9.14-6.04-6.5-16.29-12.46-25.03-14.02-3.91-.7-9.98-1.84-14.73-1.71-1.85.05-3.7.3-5.54.48-37.32,3.69-74.63,7.39-111.95,11.08-18.71,1.85-37.4,3.86-56.13,5.45-18.6,1.58-37.31,2.52-55.96,1.25-4.2-.29-8.39-.67-12.57-1.22l11.3,1.52c-6.46-.87-12.85-2.25-18.89-4.76l10.15,4.28c-3.78-1.61-7.33-3.65-10.59-6.15l8.6,6.65c-3-2.35-5.69-5.04-8.07-8.02l6.65,8.6c-.8-1.03-1.48-2.09-2.01-3.29l4.28,10.15c-.29-.77-.5-1.52-.64-2.33l1.52,11.3c-.16-1.23-.14-2.42.02-3.65l-1.52,11.3c.2-1.19.52-2.33.98-3.45l-4.28,10.15c.4-.9.87-1.73,1.45-2.53l-6.65,8.6c.46-.59.96-1.11,1.54-1.58l-8.6,6.65c.55-.39,1.11-.72,1.72-1.01l-10.15,4.28c.74-.3,1.47-.5,2.25-.64l-11.3,1.52c3.04-.4,6.16.19,9.18.55,3.6.43,7.19.86,10.78,1.3,7.19.87,14.38,1.75,21.57,2.57,14.35,1.64,28.74,3.05,43.18,3.74,14.35.69,28.71.53,43.05-.37,17.95-1.14,35.77-3.46,53.58-5.92,14.31-1.97,28.56-4.33,42.79-6.78s28.11-4.73,42.05-7.63c3.38-.7,6.79-1.37,10.13-2.24.51-.13,1.01-.29,1.5-.47,3.12-1.13,7.46-3.01,10.48-4.42.22-.1.44-.19.65-.3,1.94-1.01,4.18-3.07,5.53-4.11,5.23-4.04,4.67-3.51,8.7-8.72,1.48-1.92,3.12-3.61,4.17-5.76l2.14-5.08c.82-1.82,1.59-3.65,2.31-5.51.1-.31.2-.63.28-.95.49-2.09.72-5.08.93-6.66.25-1.88.71-4.31.82-6.43.05-.89-.01-1.77-.11-2.66-.47-4.48-.9-10.32-2.33-15.08s-3.55-9.43-5.76-13.92c-.56-1.13-1.21-2.22-1.94-3.24-2.78-3.89-5.61-7.89-8.94-11.36-.8-.83-1.65-1.6-2.54-2.33-3.66-2.95-7.32-6.02-11.29-8.58s-8.42-4.29-12.77-6.12c-4.58-1.93-9.03-3.85-13.87-4.99-6.54-1.54-13.31-2.31-19.98-2.9-3.09-.28-6.2-.34-9.31-.23-9.83.33-19.67,1.86-29.32,3.63-13.03,2.39-25.81,5.93-38.87,8.16-3.52.6-7.05,1.14-10.58,1.62l11.3-1.52c-20.92,2.81-42.06,3.54-63.15,2.94s-42.08-2.48-63.02-4.81c-11.84-1.32-23.67-2.72-35.48-4.26l11.3,1.52c-.94-.14-1.84-.33-2.73-.67l10.15,4.28c-.45-.2-.86-.43-1.27-.7l8.6,6.65c-.41-.32-.77-.66-1.11-1.07l6.65,8.6c-.35-.49-.63-.98-.87-1.52l4.28,10.15c-.25-.67-.42-1.33-.53-2.04l1.52,11.3c-.11-1.04-.08-2.03.06-3.06l-1.52,11.3c.17-1.02.44-1.98.81-2.94l-4.28,10.15c.37-.86.81-1.65,1.38-2.4l-6.65,8.6c.38-.45.8-.84,1.26-1.22l-8.6,6.65c.53-.38,1.07-.7,1.66-.98l-10.15,4.28c1.02-.41,2.03-.65,3.12-.8l-11.3,1.52c4.87-.54,9.85-.53,14.74-.7s9.96-.29,14.94-.38c10.07-.18,20.14-.21,30.21-.2,20.16.02,40.32.23,60.48-.12,20.08-.34,40.18-1.24,60.15-3.44,23.61-2.59,47.19-6.15,70.09-12.56,9.9-2.77,19.65-6.03,29.2-9.83,8.15-3.24,16.26-6.64,24.22-10.33,1.13-.52,2.26-1.03,3.37-1.59,2.36-1.18,4.47-3.13,6.48-4.69s4.34-3.04,6.04-5c1.24-1.43,2.9-3.74,3.58-4.62,1.01-1.31,2.58-3.16,3.68-4.8.27-.4.5-.83.71-1.26,1.4-2.88,3.39-7.5,4.45-10.54.07-.2.14-.39.21-.6s.11-.41.16-.61l.08-.42c.51-3.77,1.01-7.53,1.52-11.3.04-.44.09-.87.08-1.32-.01-.31-.06-.61-.09-.92-.35-3.62-.93-8.21-1.61-11.77l-4.28-10.15c-2.67-4.95-6.32-8.93-10.95-11.92-2.65-2.63-5.78-4.46-9.38-5.46-5.06-2.66-10.52-3.88-16.37-3.66-38.75,2.72-77.56,4.66-116.39,5.83-38.6,1.15-77.22,1.53-115.84,1.14-21.84-.22-43.67-.7-65.5-1.41-5.85-.22-11.31,1-16.37,3.66-5.27,1.71-9.83,4.64-13.68,8.79-4.14,3.85-7.07,8.41-8.79,13.68-2.66,5.06-3.88,10.52-3.66,16.37l1.52,11.3c2.02,7.2,5.66,13.45,10.93,18.75l8.6,6.65c6.63,3.84,13.78,5.78,21.45,5.8h0Z" />
</svg>