<svg id="water-back" xmlns="http://www.w3.org/2000/svg" viewBox="0 0 1922.04 1096.38">
    <defs>
        <style>
            .ground-water-1 {
                fill: #fff;
            }

            .ground-water-2 {
                fill: #fdce73;
            }

            .ground-water-3 {
                fill: #0272bb;
            }

            .ground-water-4 {
                fill: #30a1d6;
            }

            .ground-water-5 {
                fill: #85bbe6;
            }
        </style>
    </defs>
    <g id="OBJECTS">
        <rect class="ground-water-5" width="1920" height="1077.52" />
        <path class="ground-water-4"
            d="m1922.04,818.2c-113.44,8.75-247.52,15.87-363.93,13.29-263.57-5.85-271.8-30.44-457.12-26.05-185.32,4.39-288.27,28.98-403.58,30.44-115.31,1.46-131.78-8.78-321.22-40.95-151.43-25.72-231.82-10.32-375.79-12.82v216.65h1921.64v-180.55Z" />
        <g id="Vrstva_5">
            <g>
                <path class="ground-water-2"
                    d="m1538.32,76.29c5.42,3.69,6.49,8.43,5.12,14.87-1.95,9.18-2.36,18.68-4.15,27.9-.69,3.57-2.79,7.27-5.28,9.95-1.59,1.71-5.4,2.77-7.6,2.1-1.95-.59-4.21-3.89-4.35-6.13-.98-14.97-.05-29.76,6.79-43.54.92-1.86,2.38-3.44,3.59-5.16h5.88Z" />
                <path class="ground-water-2"
                    d="m1653.61,196.29c-9.18,3.13-18.32,6.39-27.56,9.33-3.63,1.15-7.48,1.68-11.26,2.33-5.83,1.01-11.19-.54-15.97-3.77-4.08-2.75-3.89-7.91.76-9.56,8.63-3.06,17.47-5.74,26.43-7.57,6.39-1.3,13.13-.79,19.68-1.41,4.03-.38,6.66.89,7.92,4.77v5.88h0Z" />
                <path class="ground-water-2"
                    d="m1384.2,196.29c6.11-5.33,13.36-7.13,21.3-7.09,9.27.05,18.71-.69,27.23,3.81,2.34,1.24,4.97,4.12,5.19,6.46.17,1.84-2.78,5.02-5,5.87-16.64,6.37-33,5.94-48.72-3.16v-5.88h0Z" />
                <path class="ground-water-2"
                    d="m1519.49,335.11c-6.73-8.89-7.42-19.11-6.31-29.62.64-6.11,1.46-12.25,2.91-18.2.65-2.67,3.06-4.9,4.67-7.33,2.32,1.93,5.62,3.42,6.75,5.9,1.96,4.29,3.57,9.2,3.55,13.84-.05,8.66-.91,17.39-2.39,25.92-.59,3.39-3.69,6.34-5.66,9.49h-3.53.01Z" />
                <path class="ground-water-2"
                    d="m1520.92,209.34c-1.48-4.08-2.48-7.34-3.83-10.43-2.38-5.43-.88-9.19,4.2-12.08,10.21-5.83,25.07.37,27.61,11.77,3.2,14.38-6.64,30.23-22.25,33.99-4.64,1.12-9.63,1.51-14.41,1.22-6.87-.41-13.31-2.3-16.41-9.61-3-7.08-7.18-13.85-8.94-21.21-2.18-9.08,1.58-17.59,7.03-24.9,7.86-10.54,17.44-19.09,29.76-24.36,22.43-9.59,53.23,2.13,58.29,24.79,4,17.89,6.01,36.49-4.59,53.58-6.44,10.39-15.9,17.27-26.31,23.01-16.85,9.29-34.85,14.91-54.2,13.99-16.31-.78-29.74-7.92-40.34-20.72-10.22-12.34-14.21-26.64-13.29-42.03,1.03-17.16,5.65-33.4,17.92-46.51,8.99-9.6,18.18-18.99,30.86-23.59,3-1.09,6.91-1.04,10.02-.16,4.83,1.37,6.12,9.53,3.62,16.19-2.65,7.08-8.89,10.32-14.29,14.57-14.91,11.73-26.44,36.24-19.06,56.89,4.47,12.5,17.56,21.77,29.86,23.29,27.68,3.42,57.6-22.47,61.31-49.08,2.15-15.38-2.98-22.93-15.9-26.83-13.67-4.12-35.51,5.66-38.9,17.16-2.51,8.49,2.23,18.08,12.24,21.07h0Z" />
                <path class="ground-water-2"
                    d="m1592.18,311.54c-1.98,1.98-3.69,4.93-6.11,5.74-2.39.8-6.73.47-8.08-1.15-6.87-8.23-13.39-16.82-19.32-25.76-2.59-3.89-3.24-9.01-5.23-13.36-2.2-4.81-.72-8.53,3.24-11,4-2.49,7.99-1.02,11.46,1.87,8.82,7.34,12.56,17.87,17.27,27.75,2.3,4.82,4.2,9.84,6.77,15.91h0Z" />
                <path class="ground-water-2"
                    d="m1593.81,232.67c10.44-.14,17.03,5.67,24.13,10.06,5.54,3.43,10.65,7.55,15.96,11.37,3.94,2.83,4.98,9.38,1.47,12.55-1.41,1.28-4.76,2.11-6.26,1.32-12.9-6.76-25.66-13.8-38.27-21.07-3.19-1.84-6.74-4.32-5-9.19,1.58-4.41,4.81-5.86,7.98-5.03h0Z" />
                <path class="ground-water-2"
                    d="m1451,81.1c2.4,2,4.46,3.18,5.8,4.92,9.54,12.34,16.16,26.09,18.87,41.51.28,1.57-1.09,4.34-2.47,5.06-1.61.84-4.83.87-6.05-.21-8.93-7.86-17.6-16.3-19.51-28.68-.94-6.09.11-12.52.55-18.78.08-1.12,1.53-2.14,2.82-3.82h-.01Z" />
                <path class="ground-water-2"
                    d="m1459.49,323.22c-5.31-2.51-5.34-6.88-4.48-10.87,2.91-13.59,8.12-26.23,18.31-36.07,1.94-1.87,5.66-1.91,8.55-2.79.88,3.06,2.82,6.25,2.46,9.16-1.68,13.6-7.82,25.23-17.42,34.95-2.25,2.28-5.15,3.93-7.42,5.63h0Z" />
                <path class="ground-water-2"
                    d="m1398.19,129.12c14.46,2.62,27.66,8.45,39.66,16.87,3.34,2.34,6.3,5.6,8.53,9.03,2.52,3.87-.17,8.31-4.9,8.24-3.54-.05-7.28-.78-10.56-2.1-11.64-4.7-21.47-12.16-29.71-21.55-2.21-2.52-3.26-6.07-4.84-9.14.61-.45,1.21-.9,1.82-1.35h0Z" />
                <path class="ground-water-2"
                    d="m1582.99,157.16c-2-1.47-5.58-2.76-6.29-4.98-.69-2.16.74-6.25,2.63-7.78,8.8-7.12,17.89-13.92,27.27-20.24,4.05-2.73,7.82.07,10.52,3.4,2.37,2.92,1.69,5.88-1.17,8.09-8.35,6.46-16.71,12.9-25.26,19.09-1.74,1.26-4.29,1.4-7.7,2.42Z" />
                <path class="ground-water-2"
                    d="m1438.26,244.5c5.87.09,7.34,2.43,5.34,7.18-3.34,7.92-22,20.28-30.4,19.78-2.11-.13-4.59-1.23-6.01-2.72-.71-.75.04-3.85,1.08-5.12,7.28-8.87,16.24-15.46,27.32-18.87,1.09-.34,2.32-.22,2.67-.25h0Z" />
            </g>
            <path class="ground-water-1"
                d="m920.83,244.3v-5.21c4.02-8.56,8.62-10.2,18.1-6.46,3.17-17.58,23.27-22.6,34.04-7.16,2.38-6.06,4.78-7.76,10.97-7.59,0-5.82-.48-11.69.09-17.45,1.75-17.52,12.87-31.27,28.35-35.73,15.87-4.57,30.84,3.1,35.59,18.22,1.64,5.21,1.43,10.4-.38,16.08,6.47-2.33,12.58-4.47,17.47,2.36.33-1.3.57-2.23.79-3.16,4.72-19.37,16.53-31.98,35.77-37.47,2.38-.68,4.83-1.12,7.25-1.68h10.41c.28.15.55.38.86.43,12.08,2.07,21.92,7.17,26.24,19.8,5.39-3.3,10.75-3.69,15.53.37,5.04,4.28,5.05,9.87,2.52,15.92,1.16-.16,2-.24,2.82-.39,19.19-3.71,37.68,8.47,41.78,27.5.15.71.47,1.39.71,2.08v9.76c-.17.27-.44.52-.49.81-2.76,16.13-12.92,25.48-27.96,30.06-12.62,3.85-25.61,4.15-38.61,2.68-6.38-.72-11.82-3.47-15.06-9.46-.1-.18-.52-.18-.78-.27-.12.3-.24.49-.27.69-1.98,14.5-8.23,25.66-23.35,29.89-.08.02-.13.17-.19.25h-7.16c-1.1-.43-2.2-.84-3.29-1.28-5.9-2.38-9.87-6.52-11.56-12.71-.29-1.08-.39-2.21-.67-3.81-5.7,6.63-12.37,9.55-20.38,7.79-8.03-1.76-12.6-7.46-14.96-15.28-2.12,3.29-3.85,6.44-6.02,9.24-7.67,9.86-17.43,15.46-30.34,14.1-11.61-1.22-20.53-11.27-20.05-22.52.06-1.43.3-2.85.52-4.82-5.68,3.69-11.1,6.75-17.57,6.42-6.81-.35-11.42-3.96-13.87-10.59-1.97,3.38-4.4,5.72-8.23,5.12-4.45-.69-5.99-4.13-6.57-8.23-2.42,1.92-4.57,3.92-7,5.49-3.51,2.27-7.34,2.67-11.06.44-2.3-1.38-4.14-3.68-2.69-6.2,1.93-3.36.17-5.54-1.29-8.04h0Z" />
            <path class="ground-water-1"
                d="m1655.56,338.6c-10.11,11.74-22.63,18.15-38.22,17.79-15.52-.35-27.74-7.2-37.09-19.23-2.3,2.21-4.48,4.51-6.87,6.56-7.29,6.26-15.69,10.12-25.23,11.53-12.55,1.84-24.15-.64-34.83-7.45-4.56-2.9-8.49-6.52-11.76-10.81-.71-.93-1.29-1.2-2.43-.81-21.92,7.42-46.01-6.29-50.7-29.63-4.43-22.08,10.07-42.07,30.64-46.28.82-.17,1.66-.56,2.45-.48,2.16.19,2.67-.95,3.25-2.81,5.69-17.98,17.84-29.07,36.23-33.19,5.85-1.31,11.8-1.11,17.68.05,1.01.2,1.28-.18,1.69-.87,9.16-15.41,22.3-25.55,39.75-29.97,6.93-1.76,13.95-2.19,21.04-1.44,19.52,2.05,34.75,11.35,45.99,27.33.58.82,1.01,1.04,2.04.75,5.25-1.52,10.62-2.32,16.09-2.12,24.69.91,44.54,18.33,49.47,41.02,4.92,22.59-5.34,45.44-25.55,56.77-1.32.74-1.73,1.34-1.64,2.97.31,6-1.79,11.25-5.86,15.66-6.35,6.89-16.74,9.33-26.15,4.68v-.02Z" />
            <path class="ground-water-1"
                d="m142.37,212.98c10.11,11.74,22.63,18.15,38.22,17.79,15.52-.35,27.74-7.2,37.09-19.23,2.3,2.21,4.48,4.51,6.87,6.56,7.29,6.26,15.69,10.12,25.23,11.53,12.55,1.84,24.15-.64,34.83-7.45,4.56-2.9,8.49-6.52,11.76-10.81.71-.93,1.29-1.2,2.43-.81,21.92,7.42,46.01-6.29,50.7-29.63,4.43-22.08-10.07-42.07-30.64-46.28-.82-.17-1.66-.56-2.45-.48-2.16.19-2.67-.95-3.25-2.81-5.69-17.98-17.84-29.07-36.23-33.19-5.85-1.31-11.8-1.11-17.68.05-1.01.2-1.28-.18-1.69-.87-9.16-15.41-22.3-25.55-39.75-29.97-6.93-1.76-13.95-2.19-21.04-1.44-19.52,2.05-34.75,11.35-45.99,27.33-.58.82-1.01,1.04-2.04.75-5.25-1.52-10.62-2.32-16.09-2.12-24.69.91-44.54,18.33-49.47,41.02-4.92,22.59,5.34,45.44,25.55,56.77,1.32.74,1.73,1.34,1.64,2.97-.31,6,1.79,11.25,5.86,15.66,6.35,6.89,16.74,9.33,26.15,4.68v-.02Z" />
        </g>
    </g>
</svg>