<svg id="knight_graf_3" xmlns="http://www.w3.org/2000/svg" viewBox="0 0 362.96 189.33"><defs><style>.graf-duck-1{fill:#fff;}.graf-duck-2{fill:#f1862e;}.graf-duck-3{fill:#f49a40;}.graf-duck-4{fill:#0d1719;}.graf-duck-5{fill:#fbfbef;}.graf-duck-6{fill:#9ba6a2;}.graf-duck-7{fill:#b699c7;}.graf-duck-8{fill:#f7fcfd;}.graf-duck-9{fill:#e2eeee;}.graf-duck-10{fill:#f2cb03;}.graf-duck-11{fill:#ab6736;}.graf-duck-12{fill:#d2d7da;}.graf-duck-13{fill:#cededb;}.graf-duck-14{fill:#848e8f;}.graf-duck-15{fill:#b4cac8;}.graf-duck-16{fill:#fed51e;}.graf-duck-17{fill:#505e5e;}.graf-duck-18{fill:#a181b4;}.graf-duck-19{fill:#36311d;}.graf-duck-20{fill:#ffdc49;}</style></defs><g id="Vrstva_5"><polygon class="graf-duck-7" points="0 100.45 45.87 95.89 49.06 98.23 0 100.45"/><path class="graf-duck-18" d="m45.87,95.89c.31-.1,25.4-2.53,25.4-2.53l6.48,3.56-28.7,1.3-3.18-2.34Z"/><polygon class="graf-duck-7" points="89.93 91.51 71.27 93.36 77.75 96.92 95.86 96.1 89.93 91.51"/><polygon class="graf-duck-18" points="89.93 91.51 114.23 89.09 125.38 94.76 95.86 96.1 89.93 91.51"/><path class="graf-duck-7" d="m144.13,86.12l-29.9,2.97s10.6,5.7,11.15,5.67,31.88-1.45,31.88-1.45l-13.13-7.2Z"/><polygon class="graf-duck-18" points="144.13 86.12 186.78 81.88 198.86 91.43 157.26 93.32 144.13 86.12"/><polygon class="graf-duck-7" points="186.64 82.02 233.59 77.36 248.62 89.32 198.72 91.58 186.64 82.02"/><path class="graf-duck-18" d="m233.59,77.36c.55-.05,17.55-1.75,17.55-1.75,0,0-.82,4.26,4.14,13.4l-6.66.3-15.04-11.96Z"/><path class="graf-duck-6" d="m266.9,93.63l-4.74-31.12s-15.53,1.83-13.37,19.79,19.24,15.61,19.24,15.61l-1.12-4.28Z"/><polygon class="graf-duck-11" points="264.11 75.33 291.68 74.47 292.93 82.83 265.86 86.85 264.11 75.33"/><g><path class="graf-duck-10" d="m271.82,52.06c.16.08,2.31,1.79,2.42,2.09s-2.9,11.89-2.95,11.89-1.85-2.25-1.85-2.34,1.68-10.65,1.77-10.77.61-.87.61-.87Z"/><path class="graf-duck-10" d="m271.99,115.22s.51-3.29,3.91-5.31,29.31-29.38-3.91-57.77c0,0,4.17,55.76-56.75,46.1,0,0-.51,2.96-2.63,4.23,0,0,7.5,10.7,14.74,12.75,0,0,3.81,1.28-3.88,7.25-7.68,5.96-28.03,21-16.17,45,11.85,24,52.69,21.81,59.12,21.81h14.86s40.75-.8,55.9-10.24,32.42-50.93,23.2-74.35c0,0-2.34-7.9-4.68-6.44s-62.78,46.39-83.71,16.98Z"/><path class="graf-duck-16" d="m271.99,52.14s-45-22.72-64.32,21.07c0,0,6.26-.33,7.57,25.03,0,0,56.75,15.81,56.75-46.1Z"/><path class="graf-duck-3" d="m214.32,88.29s-1.46-15.37-6.66-15.07c0,0-5.2,12.07-20.71,5.34,0,0-3.88-1.02-1.32,4.83s14.63,13.54,28.68,4.9Z"/><path class="graf-duck-2" d="m212.6,102.47s-27.5,1.76-27.77-22.89c0,0,4.43,20.32,29.49,8.71,0,0,3.28,12.97-1.72,14.18Z"/><ellipse class="graf-duck-19" cx="225.82" cy="75.83" rx="6.81" ry="5.21" transform="translate(22.6 200.11) rotate(-50.01)"/><ellipse class="graf-duck-5" cx="226.12" cy="73.38" rx="1.21" ry="1.39" transform="translate(24.58 199.46) rotate(-50.01)"/><path class="graf-duck-20" d="m253.14,132.23c-41.12,13.21,3.37,58.77,39.95,37.97,22.83-12.98,27.17-24.01,27.21-30.46.02-3.89-1.52-6.12-1.52-6.12-.35.07-28.64,12.12-46.23,1.56-.44-.26-12.57-5.15-19.41-2.95Z"/><path class="graf-duck-16" d="m320.25,140.77s-70.87,23.38-83.5,6.86c0,0-1.77,21.75,27.93,27.09,29.69,5.34,50.24-21.77,50.24-21.77,0,0,6.05-6.59,5.34-12.17Z"/></g><path class="graf-duck-13" d="m283.72,48.49s-3.82,7.24-7.56,6.93-9.87-17.09-8.1-19.96,9.52-14.84,18.32-16.19v-3.52h3.9v4.39s6.19,5.16,6.52,12.13.9,14.77-1.52,16.23-11.56,0-11.56,0"/><polygon class="graf-duck-17" points="295.26 48.59 297.38 50.7 288.96 59.12 279.33 55.79 279.33 53.42 283.7 48.59 295.26 48.59"/><path class="graf-duck-14" d="m313.36,112.76s-6.45,30.07-20.52,34.73,0,0,0,0c0,0-27.97-5.24-31.65-25.75-3.68-20.52,52.16-8.98,52.16-8.98"/><polygon class="graf-duck-17" points="306.44 93.3 310.65 93.3 310.65 78.97 305.55 79.42 305.67 93.3 306.44 93.3"/><path class="graf-duck-17" d="m293.42,79.07s-8.26-3.02-8.46-2.84.04,1.08.08,1.13,2.7,3.1,2.78,3.1,3.9-.02,4.03-.06,1.67-1.04,1.67-1.04l-.1-.29"/><path class="graf-duck-15" d="m285.21,67.94s-4.66,3.19-13.76,2.8c0,0-.99,6.38-.45,9.81l.53,3.42,16.28-3.82s-3.11-3.41-2.87-3.93.26-8.29.26-8.29Z"/><path class="graf-duck-8" d="m303.47,51.71s-3.52-2.26-6.32-.95-9.33,7.22-9.33,7.22l1.63,2.94,14.02-9.21Z"/><path class="graf-duck-6" d="m285.21,67.94s-5.82,3.8-13.76,2.8c0,0-4.13-10.84,5.42-14.26,9.55-3.42,12.08,3.23,12.08,3.23,0,0-1.6,7.93-3.75,8.22Z"/><path class="graf-duck-9" d="m305.14,80.13h7.17s4.77-22.55-8.84-28.42c0,0-20.97,2.52-18.52,24.52,0,0,3.85,3.48,20.19,3.9"/><path class="graf-duck-18" d="m294,134.73s11.32-13.35,12.39-24c1.06-10.65-1.06-33.87-1.06-33.87,0,0-22.94,4.16-22.94,4.55s12.48,47.42,11.61,53.32Z"/><path class="graf-duck-7" d="m282.39,81.41c12.77,48.19,11.61,53.32,11.61,53.32-30.77-15.19-33.19-47.71-33.29-48.19l21.68-5.13Z"/><path class="graf-duck-6" d="m283.7,48.59s-.15-9.68.58-9.73,7.6-3.15,3.87-19.31c0,0-.82-.68-1.79-.19v-3.52h3.9v4.39s6.31,4.74,6.82,12.34.49,11.41-.52,13.86-2.07,5.35-12.86,2.16Z"/><path class="graf-duck-4" d="m267.72,36.34h11.98s.24.99,0,.99h-11.98v-.99Z"/><path class="graf-duck-18" d="m290.26,15.84s6.35-7.66,8.82-6.35,6.53,5.52,7.21,14.85c.68,9.34,14.95,9.97,15.1,9.97s-8.76-12.53-7.31-16.5-.05-16.84-11.23-16.45-16.45-4.65-16.98,2.52c-.53,7.16.48,11.97.48,11.97h3.9Z"/><path class="graf-duck-7" d="m321.39,34.31s-9.48-4.94-11.32-12.92c-1.84-7.98-7.98-15.73-11.61-15.05s-9.73,9.5-9.73,9.5h1.53s6.26-7.47,8.82-6.35,6.34,5.9,7.21,14.85c.87,8.95,12.44,9.48,15.1,9.97Z"/><path class="graf-duck-12" d="m258.61,142.13c0,.32-4.19,15.23-4.19,34.13v1.29h-14.58s2.9,7.36,12.19,7.36h5.03v-6.14s13.48-30,9.55-33.03c-3.94-3.03-2.61-2.61-2.61-2.61,0,0,2.57.81,3.33-.03s7.31-3.91,7.31-3.91l-10.1-9.64s-5.61,2.39-5.23,8.07l-.71,4.52Z"/><g><path class="graf-duck-1" d="m299.97,92.42c-1.22,1.59-2.45,3.18-3.67,4.77-1.92,2.48-3.85,4.95-5.75,7.44-.97,1.27-2.16,2.25-3.58,2.99-.37.19-.72.42-1.09.62-.32.18-.43.15-.53-.19-.26-.83-.81-1.36-1.63-1.63-.43-.14-.44-.19-.23-.59.32-.59.66-1.17.96-1.77.5-1,1.29-1.73,2.12-2.42,1.57-1.31,3.17-2.58,4.78-3.84,2.27-1.78,4.55-3.53,6.83-5.3.36-.27.73-.52,1.1-.78.23,0,.47,0,.7,0v.7Z"/><path class="graf-duck-1" d="m275.68,113c.07-.04.13-.1.21-.13,1.63-.54,2.54-1.74,3.08-3.3.12-.33.28-.66.48-.96,1.18-1.76,3.72-1.69,4.74.12.67,1.19.27,2.75-.92,3.6-.85.61-1.83.87-2.85,1.01-.34.05-.68.09-1.03.14h-2.23c-.14-.02-.27-.04-.41-.06-.35-.05-.7-.1-1.06-.15,0-.09,0-.19,0-.28Z"/></g></g></svg>