<svg id="Vrstva_2" xmlns="http://www.w3.org/2000/svg" viewBox="0 0 395.42 256.42"><defs><style>.graf-fia-1{fill:#fff;}.graf-fia-2{fill:#0d1719;}.graf-fia-3{fill:#6f462e;}.graf-fia-4{fill:#b562a0;}.graf-fia-5{fill:#dc9564;}.graf-fia-6{fill:#672e3d;}.graf-fia-7{fill:#994e89;}.graf-fia-8{fill:#9ba6a2;}.graf-fia-9{fill:#b699c7;}.graf-fia-10{fill:#b662a1;}.graf-fia-11{fill:#f7fcfd;}.graf-fia-12{fill:#d69272;}.graf-fia-13{fill:#e2eeee;}.graf-fia-14{fill:#9b4f8d;}.graf-fia-15{fill:#5b3159;}.graf-fia-16{fill:#ab6736;}.graf-fia-17{fill:#d2d7da;}.graf-fia-18{fill:#cededb;}.graf-fia-19{fill:#6c3211;}.graf-fia-20{fill:#848e8f;}.graf-fia-21{fill:#b4cac8;}.graf-fia-22{fill:#505e5e;}.graf-fia-23{fill:#a181b4;}.graf-fia-24{fill:#7d8788;}.graf-fia-25{fill:#905431;}.graf-fia-26{fill:#da9862;}.graf-fia-27{fill:#d289ba;}.graf-fia-28{fill:#a45925;}.graf-fia-29{fill:#58230f;}.graf-fia-30{fill:#b661a2;}.graf-fia-31{fill:#462615;}.graf-fia-32{fill:#cc8655;}.graf-fia-33{fill:#924125;}</style></defs><g id="Vrstva_5"><polygon class="graf-fia-9" points="0 100.45 45.87 95.89 49.06 98.23 0 100.45"/><path class="graf-fia-23" d="m45.87,95.89c.31-.1,25.4-2.53,25.4-2.53l6.48,3.56-28.7,1.3-3.18-2.34Z"/><polygon class="graf-fia-9" points="89.93 91.51 71.27 93.36 77.75 96.92 95.86 96.1 89.93 91.51"/><polygon class="graf-fia-23" points="89.93 91.51 114.23 89.09 125.38 94.76 95.86 96.1 89.93 91.51"/><path class="graf-fia-9" d="m144.13,86.12l-29.9,2.97s10.6,5.7,11.15,5.67,31.88-1.45,31.88-1.45l-13.13-7.2Z"/><polygon class="graf-fia-23" points="144.13 86.12 186.78 81.88 198.86 91.43 157.26 93.32 144.13 86.12"/><polygon class="graf-fia-9" points="186.78 81.88 233.73 77.21 248.77 89.17 198.86 91.43 186.78 81.88"/><path class="graf-fia-23" d="m233.73,77.21l17.55-1.75s-.82,4.26,4.14,13.4l-6.66.3-15.04-11.96Z"/><path class="graf-fia-8" d="m267.04,93.48l-4.74-31.12s-15.53,1.83-13.37,19.79,19.24,15.61,19.24,15.61l-1.12-4.28Z"/><polygon class="graf-fia-16" points="264.26 75.18 291.83 74.33 293.08 82.69 266.01 86.7 264.26 75.18"/><path class="graf-fia-16" d="m333.52,205.16h10.84s4.65,5.45-.39,16.24c0,0-2.71-.53-2.42,24.73l-1.94,1.31v7.65h-14.42v-3.24l6.07-6.07v-6.99l5.1-12.19s-5.07-20-2.85-21.42Z"/><polygon class="graf-fia-31" points="331.27 245.76 339.62 247.43 339.62 255.08 325.2 255.08 325.2 251.84 331.27 245.76"/><path class="graf-fia-32" d="m336.37,226.58l-5.1,12.19v6.99l8.35,1.67,1.94-1.31s.21-16.74.72-19.55h-5.89Z"/><path class="graf-fia-16" d="m315.08,204.87h10.84s4.65,5.45-.39,16.24c0,0-2.71-.53-2.42,24.73l-1.94,1.31v7.65h-14.42v-3.24l6.07-6.07v-6.99l5.1-12.19s-5.07-20-2.85-21.42Z"/><path class="graf-fia-30" d="m222.64,210.03s-13.26-32.59-11.86-32.83,4.4,3.82,4.5,4.11,7.36,28.72,7.36,28.72Z"/><polygon class="graf-fia-31" points="312.83 245.48 321.18 247.15 321.18 254.8 306.76 254.8 306.76 251.55 312.83 245.48"/><path class="graf-fia-32" d="m317.94,226.3l-5.1,12.19v6.99l8.35,1.67,1.94-1.31s.21-16.74.72-19.55h-5.89Z"/><path class="graf-fia-16" d="m234.89,206.5h10.84s4.65,5.45-.39,16.24c0,0-2.71-.53-2.42,24.73l-1.94,1.31v7.65h-14.42v-3.24l6.07-6.07v-6.99l5.1-12.19s-5.07-20-2.85-21.42Z"/><path class="graf-fia-33" d="m249.36,86.42s2.06-1.48,3.48-.84,8.32,11.78,8.32,11.78c0,0-2.46-.04-4.87-2.24s.37,14.13,3.91,18,2.52,7.7,2.52,7.7l-10.42-1.15-2.94-33.26"/><polygon class="graf-fia-31" points="232.64 247.11 240.98 248.78 240.98 256.42 226.56 256.42 226.56 253.18 232.64 247.11"/><path class="graf-fia-32" d="m237.74,227.92l-5.1,12.19v6.99l8.35,1.67,1.94-1.31s.21-16.74.72-19.55h-5.89Z"/><path class="graf-fia-16" d="m214.64,206.22h10.84s4.65,5.45-.39,16.24c0,0-2.71-.53-2.42,24.73l-1.94,1.31v7.65h-14.42v-3.24l6.07-6.07v-6.99l5.1-12.19s-5.07-20-2.85-21.42Z"/><polygon class="graf-fia-31" points="212.39 246.83 220.74 248.5 220.74 256.14 206.32 256.14 206.32 252.9 212.39 246.83"/><path class="graf-fia-32" d="m217.5,227.64l-5.1,12.19v6.99l8.35,1.67,1.94-1.31s.21-16.74.72-19.55h-5.89Z"/><path class="graf-fia-15" d="m192.07,154.36h2.58s20,42.78,22.26,57.19v1.06s-16.87.24-21.61,4.99c0,0-6.26-37.02-3.23-63.24Z"/><path class="graf-fia-16" d="m217.36,212.61s-24.58-57.97-23.42-59.61,8.81,1.01,8.71,1.76,21.48,58.44,21.48,58.44l-6.78-.59Z"/><path class="graf-fia-16" d="m209.03,95.71s-8.06,18.39-12.19,22.78c0,0-7.72,11.35-5.6,29.03s57.41-26.97,57.41-26.97l4.23-7.79s-.35-25.85-3.97-26.34c-3.62-.49-36.69,4.93-39.88,9.29Z"/><path class="graf-fia-14" d="m220.6,144.68s-16.16,8.23-21.48,7.89c0,0-2.56,3.05,6.15,11.9,0,0,4.89,8.52,5.52,12.73l9.82-32.52Z"/><path class="graf-fia-30" d="m223.04,212.61h5.15s16.35-34.45,26.37-94.06c10.02-59.61,0,0,0,0l-.95-.62s-23.97,20.55-33.02,26.75l-9.82,32.52s12.45,30.64,12.26,35.42Z"/><path class="graf-fia-6" d="m252.88,112.76l.74,5.17s-37.01,37.88-62.38,36.81c0,0-1.47-7.1,0-7.23s30.96-4.22,61.64-34.76Z"/><path class="graf-fia-16" d="m175.81,78.34l15.43,12.02-9.75,6.19s-12.16-6.26-11.49-11.39l5.82-6.82Z"/><path class="graf-fia-25" d="m160.94,94.5c-.16.46-2.27,11.52,8.71,11.9s10.65-.63,10.65-.63c0,0,3.06-3.35,1.19-9.23,0,0-6.96-13.57-11.49-11.39-.2.1-7.07,3.58-9.06,9.34Z"/><path class="graf-fia-27" d="m210.78,90.36s-1.81,4.71-2.06,4.71,6.06,3.24,7.61,2.3,1.61-4.04,1.61-4.04h6.32v4.65s8.06.84,9.03-1.42c0,0-.52-4.84,0-4.84s4.45.13,8.13-1.94v4.17s6.26.32,7.48-1.89v-5.63l3.48-.84s1.99,3.55,3.45,3.23,4.04-3.57,3.91-3.88-3.91-4.47-3.91-4.47c0,0-21.05,7.06-45.06,9.9Z"/><path class="graf-fia-4" d="m191.24,90.36l-15.43-12.02,11.42-24.3s4.39-4.45,7.48-4.84c0,0,4.52,8.9,11.29,2.71,6.77-6.19,9.29-8.71,11.55-8.58s22.83,6.33,38.29,37.13c0,0-13.71,11.51-45.06,9.9,0,0,1.45-3.65,0-4.03s-10.63-.65-19.54,4.03Z"/><path class="graf-fia-14" d="m200.07,62.81c0-.26,22.06-8.32,5.94-10.9,0,0,8.39-8.65,11.55-8.58,3.16.06,15.1,23.92,7.87,35.55l-7.23,11.63-7.42-.14s1.48-3.86,0-4.03-8.37-1.32-19.54,4.03l-6.97-5.43s15.87-10.25,15.8-22.12Z"/><ellipse class="graf-fia-12" cx="194.04" cy="64.05" rx="5.79" ry="4.5" transform="translate(41.55 200.06) rotate(-60)"/><path class="graf-fia-29" d="m195.54,62.62c.57.45,1.02,3.68-1.94,3.87-2.95.19-1.65-2.42-1.65-2.42,0,0,2.23-2.52,3.58-1.45Z"/><path class="graf-fia-26" d="m194.71,49.2s3.19-10.58,16.65-12.85c13.45-2.27,10.06-5.37,10.06-5.37.68-.1,4.35,5.06-3.87,12.35,0,0-3.84,1.45-11.55,8.58,0,0-6.06,7.17-11.29-2.71Z"/><path class="graf-fia-28" d="m197.97,48.65c-.03.1,1.06,4.65,5.26,2.48s11.45-8.06,11.77-11.81c0,0-15.97,5.42-17.03,9.32Z"/><path class="graf-fia-14" d="m283.49,166.42l2.06-21.01s-2.45-2.15-2.58-1.89-1.23,2.13-1.35,3.23,1.87,19.68,1.87,19.68"/><path class="graf-fia-30" d="m300.67,191.59s-9.77-15.03-9.64-15.23.52-8.77.71-8.9,5.03,2.13,5.35,3.94,3.57,20.19,3.57,20.19Z"/><path class="graf-fia-30" d="m228.98,214.07s-1.36-2.51-1.8-2.9,4.35-14.53,4.35-14.53c0,0,5.9-4.77,6.1-4.44s-5.32,18.87-5.9,19.79-2.6,2.41-2.6,2.41"/><path class="graf-fia-14" d="m207.93,169.55s2.68,7.67,2.85,7.77l.18-.7s-2.76-8.57-2.63-8.41-.4,1.35-.4,1.35Z"/><path class="graf-fia-7" d="m341.62,212.62s6.84-21.74,6.97-25.16,4-18.71,3.94-19.23-1.74-19.87-1.94-19.94-4.06.77-4.71,3.03-9.68,40.06-9.29,41.48,5.03,19.8,5.03,19.8"/><path class="graf-fia-18" d="m283.72,48.49s-3.82,7.24-7.56,6.93-9.87-17.09-8.1-19.96,9.52-14.84,18.32-16.19v-3.52h3.9v4.39s6.19,5.16,6.52,12.13.9,14.77-1.52,16.23-11.56,0-11.56,0"/><path class="graf-fia-19" d="m171.75,94.1c-.06.39-1.23,2.19-1.23,4.71s-2.06,2.58-2.26,0,1.23-4.52,2.13-4.71,1.35,0,1.35,0Z"/><path class="graf-fia-33" d="m349.02,124.93s24.46,2.14,22.4,34.36,6.71,43.74,24,44.3c0,0-20.21,11.73-38.43-4.5l-7.97-74.17Z"/><path class="graf-fia-16" d="m349.02,126.98c.61.24,13.7,4.77,12.33,28.66s2.2,32.37,8.69,37.72,13.35,7.28,13.35,7.28l-1.06,1.98s-26.82-7.64-27.83-31.33c0,0-.76-8.75.96-14.43s2.5-19.73-1.23-23.21-5.2-4.54-5.2-4.54v-2.14Z"/><path class="graf-fia-10" d="m357.1,208.17c0,.87-10.06,4.25-15.48,4.45,0,0,12.77-57.37,9.1-84.52,0,0,11.94,1.62,5.74,39.69,0,0,.65,34.32.65,40.39Z"/><path class="graf-fia-7" d="m314.39,112.76s31.48,1.45,36.32,15.33c4.84,13.88-9.1,84.52-9.1,84.52l-32.9.59,5.68-100.44Z"/><path class="graf-fia-30" d="m303.04,213.21h5.68l5.68-100.44h-1.03s-6.84,29.42-20.52,34.73c0,0-6.32-1.25-7.87-2.49l-1.48,21.41s9.23.06,11.29,12.32l8.26,34.46Z"/><path class="graf-fia-16" d="m300.32,201.88s-6.32-.42-12.12-7c0,0-21.03,2.32-25.55,1.68,0,0-.9-31.75,2.06-31.75s27.8-.61,27.8,7.44-.18-.31,0,0,8.74,30.06,8.74,30.06l-.94-.44"/><line class="graf-fia-3" x1="282.03" y1="253.11" x2="290.38" y2="254.78"/><path class="graf-fia-15" d="m278.52,195.93s.94,9.33,3.37,9.53,18.78-2.11,18.78-2.11l-.35-1.47s-6.9-1.23-12.12-7l-9.68,1.05Z"/><polygon class="graf-fia-22" points="295.26 48.59 297.38 50.7 288.96 59.12 279.33 55.79 279.33 53.42 283.7 48.59 295.26 48.59"/><path class="graf-fia-14" d="m283.49,166.42v-21.41s-24.04-31.88-28.92-26.46c0,0-21.45,88.74-26.37,94.06,0,0,1.97,3.04,1.92,5.81l7.28.96s16.48.39,23.32-3.09l1.94-19.74s-.23-31.74,2.06-31.75,18.77,1.62,18.77,1.62Z"/><path class="graf-fia-20" d="m313.36,112.76s-6.45,30.07-20.52,34.73,0,0,0,0c0,0-27.97-5.24-31.65-25.75-3.68-20.52,52.16-8.98,52.16-8.98"/><path class="graf-fia-24" d="m313.36,107.87s-6.45,30.07-20.52,34.73,0,0,0,0c0,0-27.97-5.24-31.65-25.75-3.68-20.52,52.16-8.98,52.16-8.98"/><polygon class="graf-fia-22" points="306.44 93.3 310.65 93.3 310.65 78.97 305.55 79.42 305.67 93.3 306.44 93.3"/><path class="graf-fia-22" d="m293.42,79.07s-8.26-3.02-8.46-2.84.04,1.08.08,1.13,2.7,3.1,2.78,3.1,3.9-.02,4.03-.06,1.67-1.04,1.67-1.04l-.1-.29"/><path class="graf-fia-21" d="m285.21,67.94s-4.66,3.19-13.76,2.8c0,0-.99,6.38-.45,9.81l.53,3.42,16.28-3.82s-3.11-3.41-2.87-3.93.26-8.29.26-8.29Z"/><path class="graf-fia-11" d="m303.47,51.71s-3.52-2.26-6.32-.95c-2.81,1.31-9.33,7.22-9.33,7.22l1.63,2.94,14.02-9.21Z"/><path class="graf-fia-8" d="m285.21,67.94s-5.82,3.8-13.76,2.8c0,0-4.13-10.84,5.42-14.26,9.55-3.42,12.08,3.23,12.08,3.23,0,0-1.6,7.93-3.75,8.22Z"/><path class="graf-fia-13" d="m305.14,80.13h7.17s4.77-22.55-8.84-28.42c0,0-20.97,2.52-18.52,24.52,0,0,3.85,3.48,20.19,3.9"/><path class="graf-fia-23" d="m294,134.73s11.32-13.35,12.39-24c1.06-10.65-1.06-33.87-1.06-33.87,0,0-22.94,4.16-22.94,4.55s12.48,47.42,11.61,53.32Z"/><path class="graf-fia-9" d="m282.39,81.41c12.77,48.19,11.61,53.32,11.61,53.32-30.77-15.19-33.19-47.71-33.29-48.19l21.68-5.13Z"/><path class="graf-fia-8" d="m283.7,48.59s-.15-9.68.58-9.73,7.6-3.15,3.87-19.31c0,0-.82-.68-1.79-.19v-3.52h3.9v4.39s6.31,4.74,6.82,12.34.49,11.41-.52,13.86-2.07,5.35-12.86,2.16Z"/><path class="graf-fia-2" d="m267.72,36.34h11.98s.24.99,0,.99h-11.98v-.99Z"/><path class="graf-fia-23" d="m290.26,15.84s6.35-7.66,8.82-6.35,6.53,5.52,7.21,14.85c.68,9.34,14.95,9.97,15.1,9.97s-8.76-12.53-7.31-16.5-.05-16.84-11.23-16.45-16.45-4.65-16.98,2.52c-.53,7.16.48,11.97.48,11.97h3.9Z"/><path class="graf-fia-5" d="m288.2,194.88s-15.6,1.92-21.1,1.75c0,0-3.88-16.43,0-19.81s17.23-3.87,18.69,0,2.42,18.06,2.42,18.06Z"/><path class="graf-fia-9" d="m321.39,34.31s-9.48-4.94-11.32-12.92c-1.84-7.98-7.98-15.73-11.61-15.05-3.63.68-9.73,9.5-9.73,9.5h1.53s6.26-7.47,8.82-6.35,6.34,5.9,7.21,14.85c.87,8.95,12.44,9.48,15.1,9.97Z"/><path class="graf-fia-17" d="m258.61,142.13c0,.32-4.19,15.23-4.19,34.13v1.29h-14.58s2.9,7.36,12.19,7.36h5.03v-6.14s13.48-30,9.55-33.03c-3.94-3.03-2.61-2.61-2.61-2.61,0,0,2.57.81,3.33-.03s7.31-3.91,7.31-3.91l-10.1-9.64s-5.61,2.39-5.23,8.07l-.71,4.52Z"/><g><path class="graf-fia-1" d="m299.97,92.13c-1.22,1.59-2.45,3.18-3.67,4.77-1.92,2.48-3.85,4.95-5.75,7.44-.97,1.27-2.16,2.25-3.58,2.99-.37.19-.72.42-1.09.62-.32.18-.43.15-.53-.19-.26-.83-.81-1.36-1.63-1.63-.43-.14-.44-.19-.23-.59.32-.59.66-1.17.96-1.77.5-1,1.29-1.73,2.12-2.42,1.57-1.31,3.17-2.58,4.78-3.84,2.27-1.78,4.55-3.53,6.83-5.3.36-.27.73-.52,1.1-.78.23,0,.47,0,.7,0v.7Z"/><path class="graf-fia-1" d="m275.68,112.71c.07-.04.13-.1.21-.13,1.63-.54,2.54-1.74,3.08-3.3.12-.33.28-.66.48-.96,1.18-1.76,3.72-1.69,4.74.12.67,1.19.27,2.75-.92,3.6-.85.61-1.83.87-2.85,1.01-.34.05-.68.09-1.03.14h-2.23c-.14-.02-.27-.04-.41-.06-.35-.05-.7-.1-1.06-.15,0-.09,0-.19,0-.28Z"/></g><path class="graf-fia-15" d="m336.57,212.62s3.27-16.92.47-17.31-16.87-3.97-17.38,0-2.75,16.6-1.68,17.73l18.6-.43Z"/><g><path class="graf-fia-1" d="m335.6,198.3c-.69.9-1.39,1.8-2.08,2.7-1.09,1.41-2.18,2.81-3.26,4.22-.55.72-1.23,1.28-2.03,1.7-.21.11-.41.24-.62.35-.18.1-.24.08-.3-.11-.15-.47-.46-.77-.92-.92-.24-.08-.25-.11-.13-.33.18-.33.38-.66.55-1,.28-.56.73-.98,1.2-1.37.89-.74,1.8-1.46,2.71-2.18,1.28-1.01,2.58-2,3.87-3,.2-.16.42-.3.62-.44.13,0,.26,0,.4,0v.4Z"/><path class="graf-fia-1" d="m321.83,209.97s.07-.06.12-.07c.92-.3,1.44-.98,1.74-1.87.07-.19.16-.38.27-.54.67-1,2.11-.96,2.69.07.38.68.15,1.56-.52,2.04-.48.34-1.04.49-1.61.58-.19.03-.39.05-.58.08h-1.27c-.08-.01-.15-.02-.23-.04-.2-.03-.4-.06-.6-.08,0-.05,0-.11,0-.16Z"/></g></g></svg>