<svg id="knight_graf_1" xmlns="http://www.w3.org/2000/svg" viewBox="0 0 395.42 419.53"><defs><style>.puvodni-vyckava-1{fill:#fff;}.puvodni-vyckava-2{fill:#0d1719;}.puvodni-vyckava-3{fill:#6f462e;}.puvodni-vyckava-4{fill:#dc9564;}.puvodni-vyckava-5{fill:#994e89;}.puvodni-vyckava-6{fill:#9ba6a2;}.puvodni-vyckava-7{fill:#f7fcfd;}.puvodni-vyckava-8{fill:#d69272;}.puvodni-vyckava-9{fill:#e2eeee;}.puvodni-vyckava-10{fill:#ab6736;}.puvodni-vyckava-11{fill:#d2d7da;}.puvodni-vyckava-12{fill:#cededb;}.puvodni-vyckava-13{fill:#6c3211;}.puvodni-vyckava-14{fill:#848e8f;}.puvodni-vyckava-15{fill:#b4cac8;}.puvodni-vyckava-16{fill:#ea5353;}.puvodni-vyckava-17{fill:#505e5e;}.puvodni-vyckava-18{fill:#a48a7b;}.puvodni-vyckava-19{fill:#7d8788;}.puvodni-vyckava-20{fill:#905431;}.puvodni-vyckava-21{fill:#da9862;}.puvodni-vyckava-22{fill:#a45925;}.puvodni-vyckava-23{fill:#58230f;}.puvodni-vyckava-24{fill:#b661a2;}.puvodni-vyckava-25{fill:#462615;}.puvodni-vyckava-26{fill:#cc8655;}.puvodni-vyckava-27{fill:#924125;}</style></defs><g class="spear"><polygon class="puvodni-vyckava-1" points="150.52 3.26 171.41 44.35 170.39 48.17 150.52 3.26"/><path class="puvodni-vyckava-16" d="m171.41,44.35c.21.25,11.56,22.75,11.56,22.75l-.97,7.33-11.62-26.27,1.02-3.82Z"/><polygon class="puvodni-vyckava-1" points="191.47 83.83 182.97 67.11 182 74.44 189.34 91.02 191.47 83.83"/><polygon class="puvodni-vyckava-16" points="191.47 83.83 202.53 105.59 201.29 118.04 189.34 91.02 191.47 83.83"/><path class="puvodni-vyckava-1" d="m216.14,132.38l-13.61-26.78s-1.47,11.94-1.24,12.45,12.91,29.18,12.91,29.18l1.95-14.85Z"/><polygon class="puvodni-vyckava-16" points="216.14 132.38 235.56 170.59 231.04 185.31 214.19 147.23 216.14 132.38"/><polygon class="puvodni-vyckava-1" points="235.56 170.59 256.94 212.65 251.25 231 231.04 185.31 235.56 170.59"/><path class="puvodni-vyckava-16" d="m256.94,212.65c.25.49,7.99,15.73,7.99,15.73,0,0-4.27.78-10.99,8.72l-2.7-6.09,5.69-18.35Z"/><path class="puvodni-vyckava-6" d="m253.85,249.6l27.28-15.7s-7.34-13.8-23.29-5.28c-15.96,8.52-7.57,23.59-7.57,23.59l3.58-2.6Z"/><polygon class="puvodni-vyckava-10" points="269.9 240.36 280.69 265.75 273.35 269.95 259.8 246.18 269.9 240.36"/></g><path class="puvodni-vyckava-10" d="m333.52,368.26h10.84s4.65,5.45-.39,16.24c0,0-2.71-.53-2.42,24.73l-1.94,1.31v7.65h-14.42v-3.24l6.07-6.07v-6.99l5.1-12.19s-5.07-20-2.85-21.42Z"/><polygon class="puvodni-vyckava-25" points="331.27 408.87 339.62 410.54 339.62 418.18 325.2 418.18 325.2 414.94 331.27 408.87"/><path class="puvodni-vyckava-26" d="m336.37,389.68l-5.1,12.19v6.99l8.35,1.67,1.94-1.31s.21-16.74.72-19.55h-5.89Z"/><path class="puvodni-vyckava-10" d="m315.08,367.98h10.84s4.65,5.45-.39,16.24c0,0-2.71-.53-2.42,24.73l-1.94,1.31v7.65h-14.42v-3.24l6.07-6.07v-6.99l5.1-12.19s-5.07-20-2.85-21.42Z"/><path class="puvodni-vyckava-24" d="m222.64,373.13s-13.26-32.59-11.86-32.83,4.4,3.82,4.5,4.11,7.36,28.72,7.36,28.72Z"/><polygon class="puvodni-vyckava-25" points="312.83 408.58 321.18 410.25 321.18 417.9 306.76 417.9 306.76 414.66 312.83 408.58"/><path class="puvodni-vyckava-26" d="m317.94,389.4l-5.1,12.19v6.99l8.35,1.67,1.94-1.31s.21-16.74.72-19.55h-5.89Z"/><path class="puvodni-vyckava-10" d="m234.89,369.61h10.84s4.65,5.45-.39,16.24c0,0-2.71-.53-2.42,24.73l-1.94,1.31v7.65h-14.42v-3.24l6.07-6.07v-6.99l5.1-12.19s-5.07-20-2.85-21.42Z"/><path class="puvodni-vyckava-27" d="m249.36,249.53s2.06-1.48,3.48-.84,8.32,11.78,8.32,11.78c0,0-2.46-.04-4.87-2.24s.37,14.13,3.91,18,2.52,7.7,2.52,7.7l-10.42-1.15-2.94-33.26"/><polygon class="puvodni-vyckava-25" points="232.64 410.21 240.98 411.88 240.98 419.53 226.56 419.53 226.56 416.29 232.64 410.21"/><path class="puvodni-vyckava-26" d="m237.74,391.03l-5.1,12.19v6.99l8.35,1.67,1.94-1.31s.21-16.74.72-19.55h-5.89Z"/><path class="puvodni-vyckava-10" d="m214.64,369.32h10.84s4.65,5.45-.39,16.24c0,0-2.71-.53-2.42,24.73l-1.94,1.31v7.65h-14.42v-3.24l6.07-6.07v-6.99l5.1-12.19s-5.07-20-2.85-21.42Z"/><polygon class="puvodni-vyckava-25" points="212.39 409.93 220.74 411.6 220.74 419.24 206.32 419.24 206.32 416 212.39 409.93"/><path class="puvodni-vyckava-26" d="m217.5,390.74l-5.1,12.19v6.99l8.35,1.67,1.94-1.31s.21-16.74.72-19.55h-5.89Z"/><path class="puvodni-vyckava-18" d="m192.07,317.46h2.58s20,42.78,22.26,57.19v1.06s-16.87.24-21.61,4.99c0,0-6.26-37.02-3.23-63.24Z"/><path class="puvodni-vyckava-10" d="m217.36,375.72s-24.58-57.97-23.42-59.61,8.81,1.01,8.71,1.76,21.48,58.44,21.48,58.44l-6.78-.59Z"/><path class="puvodni-vyckava-10" d="m209.03,258.81s-8.06,18.39-12.19,22.78c0,0-7.72,11.35-5.6,29.03s57.41-26.97,57.41-26.97l4.23-7.79s-.35-25.85-3.97-26.34-36.69,4.93-39.88,9.29Z"/><path class="puvodni-vyckava-1" d="m220.6,307.78s-16.16,8.23-21.48,7.89c0,0-2.56,3.05,6.15,11.9,0,0,4.89,8.52,5.52,12.73l9.82-32.52Z"/><path class="puvodni-vyckava-25" d="m223.04,375.72h5.15s16.35-34.45,26.37-94.06c10.02-59.61,0,0,0,0l-.95-.62s-23.97,20.55-33.02,26.75l-9.82,32.52s12.45,30.64,12.26,35.42Z"/><path class="puvodni-vyckava-16" d="m252.88,275.87l.74,5.17s-37.01,37.88-62.38,36.81c0,0-1.47-7.1,0-7.23s30.96-4.22,61.64-34.76Z"/><path class="puvodni-vyckava-10" d="m175.81,241.44l15.43,12.02-9.75,6.19s-12.16-6.26-11.49-11.39l5.82-6.82Z"/><path class="puvodni-vyckava-20" d="m160.94,257.61c-.16.46-2.27,11.52,8.71,11.9s10.65-.63,10.65-.63c0,0,3.06-3.35,1.19-9.23,0,0-6.96-13.57-11.49-11.39-.2.1-7.07,3.58-9.06,9.34Z"/><path class="puvodni-vyckava-16" d="m210.78,253.46s-1.81,4.71-2.06,4.71,6.06,3.24,7.61,2.3,1.61-4.04,1.61-4.04h6.32v4.65s8.06.84,9.03-1.42c0,0-.52-4.84,0-4.84s4.45.13,8.13-1.94v4.17s6.26.32,7.48-1.89v-5.63l3.48-.84s1.99,3.55,3.45,3.23,4.04-3.57,3.91-3.88-3.91-4.47-3.91-4.47c0,0-21.05,7.06-45.06,9.9Z"/><path class="puvodni-vyckava-1" d="m191.24,253.46l-15.43-12.02,11.42-24.3s4.39-4.45,7.48-4.84c0,0,4.52,8.9,11.29,2.71,6.77-6.19,9.29-8.71,11.55-8.58s22.83,6.33,38.29,37.13c0,0-13.71,11.51-45.06,9.9,0,0,1.45-3.65,0-4.03s-10.63-.65-19.54,4.03Z"/><path class="puvodni-vyckava-25" d="m200.07,225.91c0-.26,22.06-8.32,5.94-10.9,0,0,8.39-8.65,11.55-8.58s15.1,23.92,7.87,35.55l-7.23,11.63-7.42-.14s1.48-3.86,0-4.03-8.37-1.32-19.54,4.03l-6.97-5.43s15.87-10.25,15.8-22.12Z"/><ellipse class="puvodni-vyckava-8" cx="194.04" cy="227.15" rx="5.79" ry="4.5" transform="translate(-99.7 281.62) rotate(-60)"/><path class="puvodni-vyckava-23" d="m195.54,225.72c.57.45,1.02,3.68-1.94,3.87s-1.65-2.42-1.65-2.42c0,0,2.23-2.52,3.58-1.45Z"/><path class="puvodni-vyckava-21" d="m194.71,212.3s3.19-10.58,16.65-12.85,10.06-5.37,10.06-5.37c.68-.1,4.35,5.06-3.87,12.35,0,0-3.84,1.45-11.55,8.58,0,0-6.06,7.17-11.29-2.71Z"/><path class="puvodni-vyckava-22" d="m197.97,211.75c-.03.1,1.06,4.65,5.26,2.48s11.45-8.06,11.77-11.81c0,0-15.97,5.42-17.03,9.32Z"/><path class="puvodni-vyckava-1" d="m283.49,329.53l2.06-21.01s-2.45-2.15-2.58-1.89-1.23,2.13-1.35,3.23,1.87,19.68,1.87,19.68"/><path class="puvodni-vyckava-10" d="m300.67,354.69s-9.77-15.03-9.64-15.23.52-8.77.71-8.9,5.03,2.13,5.35,3.94,3.57,20.19,3.57,20.19Z"/><path class="puvodni-vyckava-25" d="m228.98,377.17s-1.36-2.51-1.8-2.9,4.35-14.53,4.35-14.53c0,0,5.9-4.77,6.1-4.44s-5.32,18.87-5.9,19.79-2.6,2.41-2.6,2.41"/><path class="puvodni-vyckava-1" d="m209.4,336.81c.66,1.82,1.3,3.57,1.38,3.61l.18-.7s-2.76-8.57-2.63-8.41-.4,1.35-.4,1.35c0,.02.75,2.14,1.47,4.16"/><path class="puvodni-vyckava-5" d="m341.62,375.72s6.84-21.74,6.97-25.16,4-18.71,3.94-19.23-1.74-19.87-1.94-19.94-4.06.77-4.71,3.03-9.68,40.06-9.29,41.48,5.03,19.8,5.03,19.8"/><path class="puvodni-vyckava-12" d="m283.72,211.6s-3.82,7.24-7.56,6.93-9.87-17.09-8.1-19.96c1.77-2.87,9.52-14.84,18.32-16.19v-3.52h3.9v4.39s6.19,5.16,6.52,12.13c.32,6.97.9,14.77-1.52,16.23s-11.56,0-11.56,0"/><path class="puvodni-vyckava-13" d="m171.75,257.2c-.06.39-1.23,2.19-1.23,4.71s-2.06,2.58-2.26,0,1.23-4.52,2.13-4.71,1.35,0,1.35,0Z"/><path class="puvodni-vyckava-27" d="m349.02,288.04s24.46,2.14,22.4,34.36c-2.06,32.22,6.71,43.74,24,44.3,0,0-20.21,11.73-38.43-4.5l-7.97-74.17Z"/><path class="puvodni-vyckava-10" d="m349.02,290.09c.61.24,13.7,4.77,12.33,28.66s2.2,32.37,8.69,37.72c6.48,5.34,13.35,7.28,13.35,7.28l-1.06,1.98s-26.82-7.64-27.83-31.33c0,0-.76-8.75.96-14.43s2.5-19.73-1.23-23.21c-3.73-3.47-5.2-4.54-5.2-4.54v-2.14Z"/><path class="puvodni-vyckava-25" d="m357.1,371.27c0,.87-10.06,4.25-15.48,4.45,0,0,12.77-57.37,9.1-84.52,0,0,11.94,1.62,5.74,39.69,0,0,.65,34.32.65,40.39Z"/><path class="puvodni-vyckava-1" d="m314.39,275.87s31.48,1.45,36.32,15.33-9.1,84.52-9.1,84.52l-32.9.59,5.68-100.44Z"/><path class="puvodni-vyckava-10" d="m300.32,364.98s-6.32-.42-12.12-7c0,0-21.03,2.32-25.55,1.68,0,0-.9-31.75,2.06-31.75s27.8-.61,27.8,7.44-.18-.31,0,0,8.74,30.06,8.74,30.06l-.94-.44"/><path class="puvodni-vyckava-25" d="m303.04,376.31h5.68l5.68-100.44h-1.03s-6.84,29.42-20.52,34.73c0,0-6.32-1.25-7.87-2.49l-1.48,21.41s9.23.06,11.29,12.32l8.26,34.46Z"/><line class="puvodni-vyckava-3" x1="282.04" y1="416.21" x2="290.38" y2="417.88"/><path class="puvodni-vyckava-18" d="m278.52,359.03s.94,9.33,3.37,9.53,18.78-2.11,18.78-2.11l-.35-1.47s-6.9-1.23-12.12-7l-9.68,1.05Z"/><polygon class="puvodni-vyckava-17" points="295.26 211.69 297.38 213.8 288.96 222.22 279.33 218.89 279.33 216.53 283.7 211.69 295.26 211.69"/><path class="puvodni-vyckava-1" d="m283.49,329.53v-21.41s-24.04-31.88-28.92-26.46c0,0-21.45,88.74-26.37,94.06,0,0,1.97,3.04,1.92,5.81l7.28.96s16.48.39,23.32-3.09l1.94-19.74s-.23-31.74,2.06-31.75,18.77,1.62,18.77,1.62Z"/><path class="puvodni-vyckava-14" d="m313.36,275.87s-6.45,30.07-20.52,34.73,0,0,0,0c0,0-27.97-5.24-31.65-25.75-3.68-20.52,52.16-8.98,52.16-8.98"/><path class="puvodni-vyckava-19" d="m313.36,270.97s-6.45,30.07-20.52,34.73,0,0,0,0c0,0-27.97-5.24-31.65-25.75-3.68-20.52,52.16-8.98,52.16-8.98"/><polygon class="puvodni-vyckava-17" points="306.44 256.4 310.65 256.4 310.65 242.08 305.55 242.52 305.67 256.4 306.44 256.4"/><path class="puvodni-vyckava-17" d="m293.42,242.18s-8.26-3.02-8.46-2.84.04,1.08.08,1.13,2.7,3.1,2.78,3.1,3.9-.02,4.03-.06,1.67-1.04,1.67-1.04l-.1-.29"/><path class="puvodni-vyckava-15" d="m285.21,231.05s-4.66,3.19-13.76,2.8c0,0-.99,6.38-.45,9.81l.53,3.42,16.28-3.82s-3.11-3.41-2.87-3.93.26-8.29.26-8.29Z"/><path class="puvodni-vyckava-7" d="m303.47,214.82s-3.52-2.26-6.32-.95-9.33,7.22-9.33,7.22l1.63,2.94,14.02-9.21Z"/><path class="puvodni-vyckava-6" d="m285.21,231.05s-5.82,3.8-13.76,2.8c0,0-4.13-10.84,5.42-14.26,9.55-3.42,12.08,3.23,12.08,3.23,0,0-1.6,7.93-3.75,8.22Z"/><path class="puvodni-vyckava-9" d="m305.14,243.23h7.17s4.77-22.55-8.84-28.42c0,0-20.97,2.52-18.52,24.52,0,0,3.85,3.48,20.19,3.9"/><path class="puvodni-vyckava-16" d="m294.01,297.84s11.32-13.35,12.39-24c1.06-10.65-1.06-33.87-1.06-33.87,0,0-22.94,4.16-22.94,4.55s12.48,47.42,11.61,53.32Z"/><path class="puvodni-vyckava-16" d="m282.39,244.51c12.77,48.19,11.61,53.32,11.61,53.32-30.77-15.19-33.19-47.71-33.29-48.19l21.68-5.13Z"/><path class="puvodni-vyckava-6" d="m283.7,211.69s-.15-9.68.58-9.73,7.6-3.15,3.87-19.31c0,0-.82-.68-1.79-.19v-3.52h3.9v4.39s6.31,4.74,6.82,12.34c.5,7.6.49,11.41-.52,13.86s-2.07,5.35-12.86,2.16Z"/><path class="puvodni-vyckava-2" d="m267.72,199.45h11.98s.24.99,0,.99h-11.98v-.99Z"/><path class="puvodni-vyckava-16" d="m290.26,178.95s6.35-7.66,8.82-6.35,6.53,5.52,7.21,14.85,14.95,9.97,15.1,9.97-8.76-12.53-7.31-16.5c1.45-3.97-.05-16.84-11.23-16.45s-16.45-4.65-16.98,2.52c-.53,7.16.48,11.97.48,11.97h3.9Z"/><path class="puvodni-vyckava-4" d="m288.2,357.98s-15.6,1.92-21.1,1.75c0,0-3.88-16.43,0-19.81,3.88-3.39,17.23-3.87,18.69,0,1.45,3.87,2.42,18.06,2.42,18.06Z"/><path class="puvodni-vyckava-1" d="m321.39,197.41s-9.48-4.94-11.32-12.92-7.98-15.73-11.61-15.05-9.73,9.5-9.73,9.5h1.53s6.26-7.47,8.82-6.35,6.34,5.9,7.21,14.85,12.44,9.48,15.1,9.97Z"/><path class="puvodni-vyckava-11" d="m258.61,305.24c0,.32-4.19,15.23-4.19,34.13v1.29h-14.58s2.9,7.36,12.19,7.36h5.03v-6.14s13.48-30,9.55-33.03c-3.94-3.03-2.61-2.61-2.61-2.61,0,0,2.57.81,3.33-.03s7.31-3.91,7.31-3.91l-10.1-9.64s-5.61,2.39-5.23,8.07l-.71,4.52Z"/><g><path class="puvodni-vyckava-1" d="m299.97,255.23c-1.22,1.59-2.45,3.18-3.67,4.77-1.92,2.48-3.85,4.95-5.75,7.44-.97,1.27-2.16,2.25-3.58,2.99-.37.19-.72.42-1.09.62-.32.18-.43.15-.53-.19-.26-.83-.81-1.36-1.63-1.63-.43-.14-.44-.19-.23-.59.32-.59.66-1.17.96-1.77.5-1,1.29-1.73,2.12-2.42,1.57-1.31,3.17-2.58,4.78-3.84,2.27-1.78,4.55-3.53,6.83-5.3.36-.27.73-.52,1.1-.78.23,0,.47,0,.7,0v.7Z"/><path class="puvodni-vyckava-1" d="m275.68,275.81c.07-.04.13-.1.21-.13,1.63-.54,2.54-1.74,3.08-3.3.12-.33.28-.66.48-.96,1.18-1.76,3.72-1.69,4.74.12.67,1.19.27,2.75-.92,3.6-.85.61-1.83.87-2.85,1.01-.34.05-.68.09-1.03.14h-2.23c-.14-.02-.27-.04-.41-.06-.35-.05-.7-.1-1.06-.15,0-.09,0-.19,0-.28Z"/></g><path class="puvodni-vyckava-25" d="m336.57,375.72s3.27-16.92.47-17.31-16.87-3.97-17.38,0-2.75,16.6-1.68,17.73l18.6-.43Z"/><g><path class="puvodni-vyckava-1" d="m335.6,361.4c-.69.9-1.39,1.8-2.08,2.7-1.09,1.41-2.18,2.81-3.26,4.22-.55.72-1.23,1.28-2.03,1.7-.21.11-.41.24-.62.35-.18.1-.24.08-.3-.11-.15-.47-.46-.77-.92-.92-.24-.08-.25-.11-.13-.33.18-.33.38-.66.55-1,.28-.56.73-.98,1.2-1.37.89-.74,1.8-1.46,2.71-2.18,1.28-1.01,2.58-2,3.87-3,.2-.16.42-.3.62-.44.13,0,.26,0,.4,0v.4Z"/><path class="puvodni-vyckava-1" d="m321.83,373.07s.07-.06.12-.07c.92-.3,1.44-.98,1.74-1.87.07-.19.16-.38.27-.54.67-1,2.11-.96,2.69.07.38.68.15,1.56-.52,2.04-.48.34-1.04.49-1.61.58-.19.03-.39.05-.58.08h-1.27c-.08-.01-.15-.02-.23-.04-.2-.03-.4-.06-.6-.08,0-.05,0-.11,0-.16Z"/></g></svg>