<svg id="knight_prog_2" xmlns="http://www.w3.org/2000/svg" viewBox="0 0 395.42 419.53"><defs><style>.prog-bunny-1{fill:#fff;}.prog-bunny-2{fill:#0d1719;}.prog-bunny-3{fill:#dc9564;}.prog-bunny-4{fill:#ca4a17;}.prog-bunny-5{fill:#994e89;}.prog-bunny-6{fill:#9ba6a2;}.prog-bunny-7{fill:#f7fcfd;}.prog-bunny-8{fill:#d69272;}.prog-bunny-9{fill:#e2eeee;}.prog-bunny-10{fill:#fff5bd;}.prog-bunny-11{fill:#ab6736;}.prog-bunny-12{fill:#d2d7da;}.prog-bunny-13{fill:#cededb;}.prog-bunny-14{fill:#6c3211;}.prog-bunny-15{fill:#848e8f;}.prog-bunny-16{fill:#b4cac8;}.prog-bunny-17{fill:#fbbe5e;}.prog-bunny-18{fill:#f6bf51;}.prog-bunny-19{fill:#505e5e;}.prog-bunny-20{fill:#7d8788;}.prog-bunny-21{fill:#905431;}.prog-bunny-22{fill:#da9862;}.prog-bunny-23{fill:#f8f8f8;}.prog-bunny-24{fill:#a45925;}.prog-bunny-25{fill:#58230f;}.prog-bunny-26{fill:#b661a2;}.prog-bunny-27{fill:#462615;}.prog-bunny-28{fill:#cc8655;}.prog-bunny-29{fill:#1d1d1b;}.prog-bunny-30{fill:#924125;}</style></defs><path class="prog-bunny-11" d="m58.12,363.73l-9.95-4.29s-6.43,3.17-6.08,15.07c0,0,2.7.58-7.57,23.66l1.26,1.97-3.03,7.02,13.24,5.71,1.28-2.98-3.17-7.98,2.77-6.42.14-13.22s12.58-16.36,11.1-18.54Z"/><polygon class="prog-bunny-27" points="44.11 401.91 35.78 400.14 32.75 407.16 45.99 412.87 47.28 409.89 44.11 401.91"/><polygon class="prog-bunny-10" points="396.41 239.58 350.33 238.3 347.32 240.86 396.41 239.58"/><path class="prog-bunny-17" d="m351.01,238.26c-.31-.08-25.51-.7-25.51-.7l-6.21,4.01,28.71-.75,3.01-2.56Z"/><polygon class="prog-bunny-10" points="306.07 237.08 324.81 237.6 318.6 241.61 300.48 242.09 306.07 237.08"/><polygon class="prog-bunny-17" points="306.07 237.08 281.66 236.41 270.94 242.86 300.48 242.09 306.07 237.08"/><path class="prog-bunny-10" d="m251.63,235.58l30.03.83s-10.16,6.44-10.72,6.45-31.9.84-31.9.84l12.59-8.12Z"/><polygon class="prog-bunny-17" points="251.63 235.58 208.78 234.4 197.41 244.79 239.04 243.7 251.63 235.58"/><polygon class="prog-bunny-10" points="208.78 234.4 161.61 233.09 147.47 246.1 197.41 244.79 208.78 234.4"/><path class="prog-bunny-17" d="m161.61,233.09c-.55-.02-17.63-.49-17.63-.49,0,0,1.12,4.19-3.17,13.66l6.66-.17,14.14-13Z"/><path class="prog-bunny-6" d="m129.55,251.7l2.51-31.37s15.62.72,14.75,18.79-18.07,16.94-18.07,16.94l.82-4.35Z"/><polygon class="prog-bunny-11" points="131.02 233.25 103.46 234.37 102.81 242.8 130.1 244.86 131.02 233.25"/><path class="prog-bunny-28" d="m47.02,382.27l-.14,13.22-2.77,6.42-8.33-1.77-1.26-1.97s6.43-15.45,7.08-18.23l5.41,2.33Z"/><path class="prog-bunny-11" d="m74.92,364.73h-10.84s-4.65,5.45.39,16.24c0,0,2.71-.53,2.42,24.73l1.94,1.31v7.65s14.42,0,14.42,0v-3.24s-6.07-6.07-6.07-6.07v-6.99s-5.1-12.19-5.1-12.19c0,0,5.07-20,2.85-21.42Z"/><path class="prog-bunny-26" d="m172.78,369.89s13.26-32.59,11.86-32.83-4.4,3.82-4.5,4.11-7.36,28.72-7.36,28.72Z"/><polygon class="prog-bunny-27" points="77.17 405.34 68.82 407.01 68.82 414.65 83.24 414.65 83.24 411.41 77.17 405.34"/><path class="prog-bunny-28" d="m72.07,386.15l5.1,12.19v6.99s-8.35,1.67-8.35,1.67l-1.94-1.31s-.21-16.74-.72-19.55h5.89Z"/><path class="prog-bunny-11" d="m158.98,370.53l-9.9-4.4s-6.46,3.1-6.24,15c0,0,2.69.61-7.83,23.58l1.24,1.98-3.1,6.99,13.18,5.86,1.32-2.96-3.08-8.02,2.84-6.39.29-13.22s12.76-16.22,11.3-18.42Z"/><path class="prog-bunny-30" d="m147.51,250.22s-2.06-1.48-3.48-.84-8.32,11.78-8.32,11.78c0,0,2.46-.04,4.87-2.24s-.37,14.13-3.91,18c-3.54,3.87-2.52,7.7-2.52,7.7l10.42-1.15,2.94-33.26"/><polygon class="prog-bunny-27" points="144.55 408.55 136.25 406.69 133.14 413.67 146.32 419.53 147.63 416.56 144.55 408.55"/><path class="prog-bunny-28" d="m147.68,388.94l-.29,13.22-2.84,6.39-8.31-1.86-1.24-1.98s6.6-15.38,7.28-18.16l5.39,2.39Z"/><path class="prog-bunny-11" d="m175.36,366.08h-10.84s-4.65,5.45.39,16.24c0,0,2.71-.53,2.42,24.73l1.94,1.31v7.65s14.42,0,14.42,0v-3.24s-6.07-6.07-6.07-6.07v-6.99s-5.1-12.19-5.1-12.19c0,0,5.07-20,2.85-21.42Z"/><polygon class="prog-bunny-27" points="177.61 406.68 169.26 408.35 169.26 416 183.68 416 183.68 412.76 177.61 406.68"/><path class="prog-bunny-28" d="m172.51,387.5l5.1,12.19v6.99s-8.35,1.67-8.35,1.67l-1.94-1.31s-.21-16.74-.72-19.55h5.89Z"/><path class="prog-bunny-18" d="m203.35,314.22h-2.58s-20,42.78-22.26,57.19v1.06s16.87.24,21.61,4.99c0,0,6.26-37.02,3.23-63.24Z"/><path class="prog-bunny-11" d="m178.07,372.47s24.58-57.97,23.42-59.61-8.81,1.01-8.71,1.76-21.48,58.44-21.48,58.44l6.78-.59Z"/><path class="prog-bunny-11" d="m187.67,259.09s8.06,17.23,12.19,21.34c0,0,7.72,10.64,5.6,27.2-2.12,16.56-57.41-25.27-57.41-25.27l-4.23-7.3s.35-24.22,3.97-24.68,36.69,4.62,39.88,8.7Z"/><path class="prog-bunny-29" d="m174.82,304.54s16.16,8.23,21.48,7.89c0,0,2.56,3.05-6.15,11.9,0,0-4.89,8.52-5.52,12.73l-9.82-32.52Z"/><path class="prog-bunny-1" d="m172.39,372.47h-5.15s-16.35-34.45-26.37-94.06c-10.02-59.61,0,0,0,0l.95-.62s23.97,20.55,33.02,26.75l9.82,32.52s-12.45,30.64-12.26,35.42Z"/><path class="prog-bunny-18" d="m142.55,272.62l-.74,5.17s37.01,37.88,62.38,36.81c0,0,1.47-7.1,0-7.23s-30.96-4.22-61.64-34.76Z"/><path class="prog-bunny-11" d="m221.05,242.14l-15.43,12.02,9.75,6.19s12.16-6.26,11.49-11.39l-5.82-6.82Z"/><path class="prog-bunny-21" d="m235.92,258.3c.16.46,2.27,11.52-8.71,11.9-10.98.39-10.65-.63-10.65-.63,0,0-3.06-3.35-1.19-9.23,0,0,6.96-13.57,11.49-11.39.2.1,7.07,3.58,9.06,9.34Z"/><path class="prog-bunny-18" d="m186.09,254.15s1.81,4.71,2.06,4.71-6.06,3.24-7.61,2.3-1.61-4.04-1.61-4.04h-6.32s0,4.65,0,4.65c0,0-8.06.84-9.03-1.42,0,0,.52-4.84,0-4.84s-4.45.13-8.13-1.94v4.17s-6.26.32-7.48-1.89v-5.63s-3.48-.84-3.48-.84c0,0-1.99,3.55-3.45,3.23s-4.04-3.57-3.91-3.88,3.91-4.47,3.91-4.47c0,0,21.05,7.06,45.06,9.9Z"/><path class="prog-bunny-1" d="m205.63,254.15l15.43-12.02-11.42-24.3s-4.39-4.45-7.48-4.84c0,0-4.52,8.9-11.29,2.71-6.77-6.19-9.29-8.71-11.55-8.58s-22.83,6.33-38.29,37.13c0,0,13.71,11.51,45.06,9.9,0,0-1.45-3.65,0-4.03s10.63-.65,19.54,4.03Z"/><path class="prog-bunny-29" d="m196.8,226.6c0-.26-22.06-8.32-5.94-10.9,0,0-8.39-8.65-11.55-8.58s-15.1,23.92-7.87,35.55l7.23,11.63,7.42-.14s-1.48-3.86,0-4.03,8.37-1.32,19.54,4.03l6.97-5.43s-15.87-10.25-15.8-22.12Z"/><ellipse class="prog-bunny-8" cx="201.39" cy="223.9" rx="4.5" ry="5.79" transform="translate(-84.97 130.69) rotate(-30)"/><path class="prog-bunny-25" d="m199.88,222.48c-.57.45-1.02,3.68,1.94,3.87s1.65-2.42,1.65-2.42c0,0-2.23-2.52-3.58-1.45Z"/><path class="prog-bunny-22" d="m202.15,212.99s-3.19-10.58-16.65-12.85-10.06-5.37-10.06-5.37c-.68-.1-4.35,5.06,3.87,12.35,0,0,3.84,1.45,11.55,8.58,0,0,6.06,7.17,11.29-2.71Z"/><path class="prog-bunny-24" d="m198.89,212.44c.03.1-1.06,4.65-5.26,2.48s-11.45-8.06-11.77-11.81c0,0,15.97,5.42,17.03,9.32Z"/><path class="prog-bunny-29" d="m111.94,326.28l-2.06-21.01s2.45-2.15,2.58-1.89,1.23,2.13,1.35,3.23-1.87,19.68-1.87,19.68"/><path class="prog-bunny-4" d="m94.75,351.44s9.77-15.03,9.64-15.23-.52-8.77-.71-8.9-5.03,2.13-5.35,3.94-3.57,20.19-3.57,20.19Z"/><path class="prog-bunny-1" d="m166.44,373.92s1.36-2.51,1.8-2.9-4.35-14.53-4.35-14.53c0,0-5.9-4.77-6.1-4.44s5.32,18.87,5.9,19.79,2.6,2.41,2.6,2.41"/><path class="prog-bunny-29" d="m187.5,329.4s-2.68,7.67-2.85,7.77l-.18-.7s2.76-8.57,2.63-8.41.4,1.35.4,1.35Z"/><path class="prog-bunny-5" d="m53.81,372.47s-6.84-21.74-6.97-25.16-4-18.71-3.94-19.23,1.74-19.87,1.94-19.94,4.06.77,4.71,3.03,9.68,40.06,9.29,41.48-5.03,19.8-5.03,19.8"/><path class="prog-bunny-13" d="m111.71,208.35s3.82,7.24,7.56,6.93,9.87-17.09,8.1-19.96-9.52-14.84-18.32-16.19v-3.52s-3.9,0-3.9,0v4.39s-6.19,5.16-6.52,12.13-.9,14.77,1.52,16.23,11.56,0,11.56,0"/><path class="prog-bunny-14" d="m225.12,257.89c.06.39,1.23,2.19,1.23,4.71s2.06,2.58,2.26,0-1.23-4.52-2.13-4.71-1.35,0-1.35,0Z"/><path class="prog-bunny-30" d="m46.4,284.79s-24.46,2.14-22.4,34.36-6.71,43.74-24,44.3c0,0,20.21,11.73,38.43-4.5l7.97-74.17Z"/><path class="prog-bunny-11" d="m46.4,286.84c-.61.24-13.7,4.77-12.33,28.66s-2.2,32.37-8.69,37.72-13.35,7.28-13.35,7.28l1.06,1.98s26.82-7.64,27.83-31.33c0,0,.76-8.75-.96-14.43s-2.5-19.73,1.23-23.21c3.73-3.47,5.2-4.54,5.2-4.54v-2.14Z"/><path class="prog-bunny-1" d="m38.32,368.02c0,.87,10.06,4.25,15.48,4.45,0,0-12.77-57.37-9.1-84.52,0,0-11.94,1.62-5.74,39.69,0,0-.65,34.32-.65,40.39Z"/><path class="prog-bunny-29" d="m81.03,272.62s-31.48,1.45-36.32,15.33,9.1,84.52,9.1,84.52l32.9.59-5.68-100.44Z"/><path class="prog-bunny-11" d="m95.1,361.73s6.32-.42,12.12-7c0,0,21.03,2.32,25.55,1.68,0,0,.9-31.75-2.06-31.75s-27.8-.61-27.8,7.44.18-.31,0,0-8.74,30.06-8.74,30.06l.94-.44"/><path class="prog-bunny-1" d="m92.39,373.07h-5.68s-5.68-100.44-5.68-100.44h1.03s6.84,29.42,20.52,34.73c0,0,6.32-1.25,7.87-2.49l1.48,21.41s-9.23.06-11.29,12.32l-8.26,34.46Z"/><path class="prog-bunny-18" d="m116.91,355.79s-.94,9.33-3.37,9.53-18.78-2.11-18.78-2.11l.35-1.47s6.9-1.23,12.12-7l9.68,1.05Z"/><polygon class="prog-bunny-19" points="100.16 208.44 98.05 210.56 106.47 218.97 116.09 215.65 116.09 213.28 111.73 208.44 100.16 208.44"/><path class="prog-bunny-29" d="m111.94,326.28v-21.41s24.04-31.88,28.92-26.46c0,0,21.45,88.74,26.37,94.06,0,0-1.97,3.04-1.92,5.81l-7.28.96s-16.48.39-23.32-3.09l-1.94-19.74s.23-31.74-2.06-31.75-18.77,1.62-18.77,1.62Z"/><path class="prog-bunny-15" d="m82.06,272.62s6.45,30.07,20.52,34.73c14.06,4.67,0,0,0,0,0,0,27.97-5.24,31.65-25.75,3.68-20.52-52.16-8.98-52.16-8.98"/><path class="prog-bunny-20" d="m82.06,267.73s6.45,30.07,20.52,34.73,0,0,0,0c0,0,27.97-5.24,31.65-25.75s-52.16-8.98-52.16-8.98"/><polygon class="prog-bunny-19" points="88.99 253.16 84.77 253.16 84.77 238.83 89.88 239.28 89.76 253.16 88.99 253.16"/><path class="prog-bunny-19" d="m102.01,238.93s8.26-3.02,8.46-2.84-.04,1.08-.08,1.13-2.7,3.1-2.78,3.1-3.9-.02-4.03-.06-1.67-1.04-1.67-1.04l.1-.29"/><path class="prog-bunny-16" d="m110.21,227.8s4.66,3.19,13.76,2.8c0,0,.99,6.38.45,9.81l-.53,3.42-16.28-3.82s3.11-3.41,2.87-3.93-.26-8.29-.26-8.29Z"/><path class="prog-bunny-7" d="m91.95,211.57s3.52-2.26,6.32-.95,9.33,7.22,9.33,7.22l-1.63,2.94-14.02-9.21Z"/><path class="prog-bunny-6" d="m110.21,227.8s5.82,3.8,13.76,2.8c0,0,4.13-10.84-5.42-14.26s-12.08,3.23-12.08,3.23c0,0,1.6,7.93,3.75,8.22Z"/><path class="prog-bunny-9" d="m90.28,239.99h-7.17s-4.77-22.55,8.84-28.42c0,0,20.97,2.52,18.52,24.52,0,0-3.85,3.48-20.19,3.9"/><path class="prog-bunny-18" d="m101.42,294.59s-11.32-13.35-12.39-24c-1.06-10.65,1.06-33.87,1.06-33.87,0,0,22.94,4.16,22.94,4.55s-12.48,47.42-11.61,53.32Z"/><path class="prog-bunny-10" d="m113.03,241.27c-12.77,48.19-11.61,53.32-11.61,53.32,30.77-15.19,33.19-47.71,33.29-48.19l-21.68-5.13Z"/><path class="prog-bunny-6" d="m111.73,208.44s.15-9.68-.58-9.73-7.6-3.15-3.87-19.31c0,0,.82-.68,1.79-.19v-3.52s-3.9,0-3.9,0v4.39s-6.31,4.74-6.82,12.34-.49,11.41.52,13.86,2.07,5.35,12.86,2.16Z"/><path class="prog-bunny-2" d="m127.7,196.2h-11.98s-.24.99,0,.99h11.98s0-.99,0-.99Z"/><path class="prog-bunny-3" d="m107.23,354.73s15.6,1.92,21.1,1.75c0,0,3.88-16.43,0-19.81s-17.23-3.87-18.69,0-2.42,18.06-2.42,18.06Z"/><path class="prog-bunny-12" d="m136.82,301.99c0,.32,4.19,15.23,4.19,34.13v1.29s14.58,0,14.58,0c0,0-2.9,7.36-12.19,7.36h-5.03v-6.14s-13.48-30-9.55-33.03,2.61-2.61,2.61-2.61c0,0-2.57.81-3.33-.03s-7.31-3.91-7.31-3.91l10.1-9.64s5.61,2.39,5.23,8.07l.71,4.52Z"/><g><path class="prog-bunny-29" d="m93.71,258.22c.3-.23.58-.5.9-.69,2.12-1.26,4.24-2.51,6.37-3.75.68-.4,1.42-.24,1.78.37.33.56.17,1.17-.45,1.54-1.18.71-2.38,1.4-3.56,2.1-.71.42-1.43.84-2.18,1.28.26.33.5.65.74.97,1.12,1.45,2.24,2.9,3.36,4.36.39.51.33,1.09-.11,1.49-.41.38-1.04.43-1.51.1-.13-.09-.25-.21-.34-.34-1.61-2.08-3.21-4.15-4.81-6.23-.13-.17-.21-.39-.31-.59.04-.2.08-.41.12-.61Z"/><path class="prog-bunny-29" d="m120.44,263.95c-.41.6-1.11.85-1.72,1.21-1.84,1.1-3.69,2.18-5.54,3.27-.49.29-.97.34-1.46.01-.73-.49-.67-1.46.11-1.92,1.81-1.07,3.63-2.14,5.44-3.2.09-.05.2-.08.33-.13-.78-1.02-1.51-1.96-2.23-2.9-.61-.8-1.24-1.59-1.84-2.39-.48-.63-.39-1.3.19-1.68.57-.38,1.28-.22,1.76.39,1.56,2.01,3.12,4.03,4.66,6.05.17.23.27.51.41.76l-.1.54Z"/><path class="prog-bunny-29" d="m102.54,268.66c-.8-.69-.86-1.08-.3-1.96,2.46-3.88,4.93-7.75,7.39-11.63.25-.39.59-.62,1.05-.71l.65.13c.41.36.75.74.59,1.31-.04.16-.12.32-.21.46-2.47,3.88-4.94,7.75-7.4,11.63-.28.44-.6.78-1.14.9l-.65-.13Z"/></g><path class="prog-bunny-1" d="m58.78,372.52s-3.27-16.92-.47-17.31,16.87-3.97,17.38,0,2.75,16.6,1.68,17.73l-18.6-.43Z"/><g><path class="prog-bunny-29" d="m60.02,363.92c.11-.15.21-.3.33-.43.83-.85,1.67-1.69,2.5-2.53.27-.27.63-.29.87-.05.22.22.22.53-.02.77-.46.48-.93.94-1.4,1.42-.28.28-.56.57-.86.86.16.12.31.24.46.36.7.54,1.4,1.08,2.1,1.62.24.19.29.46.13.7-.15.23-.43.33-.69.23-.07-.03-.14-.07-.2-.11-1-.77-2.01-1.54-3-2.31-.08-.06-.14-.16-.21-.24,0-.1-.01-.2-.02-.3Z"/><path class="prog-bunny-29" d="m73.16,363.3c-.12.33-.41.53-.65.77-.72.74-1.45,1.47-2.17,2.2-.19.19-.41.28-.68.18-.4-.14-.49-.6-.19-.91.71-.72,1.42-1.44,2.14-2.16.04-.04.08-.06.14-.1-.49-.38-.94-.73-1.4-1.08-.38-.29-.77-.59-1.15-.88-.3-.23-.34-.56-.12-.81.22-.25.57-.26.87-.03.97.75,1.95,1.49,2.91,2.24.11.08.19.2.28.3l.02.26Z"/><path class="prog-bunny-29" d="m65.41,367.69c-.46-.22-.53-.4-.38-.87.67-2.11,1.34-4.21,2.01-6.32.07-.21.2-.36.4-.46l.32-.02c.23.12.44.25.44.54,0,.08-.02.16-.04.24-.67,2.11-1.35,4.21-2.01,6.32-.08.24-.18.44-.42.56l-.32.02Z"/></g><polygon class="prog-bunny-27" points="177.63 406.68 169.28 408.35 169.28 416 183.7 416 183.7 412.76 177.63 406.68"/><polygon class="prog-bunny-27" points="144.56 408.53 136.25 406.7 133.17 413.69 146.37 419.5 147.67 416.54 144.56 408.53"/><path class="prog-bunny-23" d="m108.86,181.2s-3.06.73-4.25,25.99c0,0,.45,1.37-1.89.67,0,0-2.38-15.53,1.64-27.3,0,0-3.62-25.87,6.31-31.68l-1.65,29.94s2.28-1.6,3.92-.64c0,0,10.9-25.04,20.8-8.94,0,0-12.27-8.03-17.51,11.22,0,0,1.19.35,1.09,1.31-.04.37-.68,1.33-.68,1.33,0,0-2.98-3.77-7.78-1.91Z"/><path class="prog-bunny-18" d="m110.68,148.88s-5.09,25.43-1.65,29.94c0,0,3.01-14.83,1.65-29.94Z"/><path class="prog-bunny-18" d="m133.74,169.25s-11.06-4.42-17.51,11.22c0,0,3.04-18.7,17.51-11.22Z"/><polygon class="prog-bunny-23" points="240.27 194.85 227.69 201.11 229.4 202.11 240.27 194.85"/><path class="prog-bunny-17" d="m227.69,201.11c-.16.03-6.97,3.46-6.97,3.46l2.32,1.79,6.36-4.25-1.71-1.01Z"/><polygon class="prog-bunny-23" points="215.6 207.11 220.72 204.57 223.04 206.36 219.02 209.04 215.6 207.11"/><polygon class="prog-bunny-17" points="215.6 207.11 208.93 210.42 212.48 213.41 219.02 209.04 215.6 207.11"/><path class="prog-bunny-23" d="m200.73,214.5l8.2-4.07s3.67,2.9,3.55,2.99l-7.07,4.72-4.69-3.63Z"/></svg>